<?xml version="1.0" encoding="UTF-8"?>
<svg width="640px" height="480px" viewBox="0 0 640 480" xmlns="http://www.w3.org/2000/svg" xmlns:xlink="http://www.w3.org/1999/xlink" version="1.1">
 <!-- Generated by Pixelmator Pro 1.5.1 -->
 <path id="Путь-3" d="M779.947 370.292 C805.877 412.396 792.764 467.549 750.66 493.478 L272.83 787.744 C229.801 814.243 173.437 800.843 146.938 757.814 L72.005 636.136 C71.565 635.423 70.972 634.817 70.267 634.363 64.527 630.669 69.133 621.869 75.44 624.48 L78.72 625.837 C81.349 626.926 84.381 625.989 85.938 623.608 L176.735 484.746 C191.948 461.482 216.911 446.393 244.581 443.739 L559.003 413.58 C587.14 410.881 612.405 395.013 627.116 370.877 661.914 313.783 744.886 313.359 779.947 370.292 Z" fill="#f6d7b1" fill-opacity="0.72" stroke="none"/>
</svg>
