<?xml version="1.0" encoding="UTF-8"?>
<svg width="640px" height="480px" viewBox="0 0 640 480" xmlns="http://www.w3.org/2000/svg" xmlns:xlink="http://www.w3.org/1999/xlink" version="1.1">
 <!-- Generated by Pixelmator Pro 1.5.1 -->
 <path id="Путь" d="M-80.908 7.46 C-79.719 -34.216 -44.97 -67.036 -3.295 -65.847 L643.329 -47.393 C693.842 -45.952 733.623 -3.834 732.181 46.679 L729.617 136.53 C729.587 137.581 729.873 138.616 730.437 139.503 733.839 144.852 726.618 150.539 722.216 145.977 L716.795 140.36 C715.221 138.73 712.868 138.116 710.698 138.771 L528.978 193.6 C509.645 199.433 488.926 198.707 470.049 191.535 L135.166 64.301 C115.56 56.852 93.99 56.364 74.068 62.92 L18.148 81.321 C-31.544 97.672 -82.4 59.751 -80.908 7.46 Z" fill="#f3cb9b" fill-opacity="0.72" stroke="none"/>
</svg>
