<?xml version="1.0" encoding="UTF-8"?>
<svg width="640px" height="480px" viewBox="0 0 640 480" xmlns="http://www.w3.org/2000/svg" xmlns:xlink="http://www.w3.org/1999/xlink" version="1.1">
 <!-- Generated by Pixelmator Pro 1.5.1 -->
 <path id="Путь-2" d="M716.025 483.098 C716.637 515.644 690.75 542.524 658.205 543.136 L-177.292 558.855 C-227.44 559.799 -268.857 519.911 -269.8 469.764 L-270.534 430.742 C-270.559 429.442 -271.141 428.216 -272.134 427.376 -276.31 423.841 -271.788 417.311 -267.01 419.976 L-253.97 427.247 C-252.698 427.956 -251.211 428.177 -249.789 427.867 L-13.07 376.28 C-1.116 373.675 11.239 373.494 23.265 375.747 L470.246 459.505 C482.754 461.848 495.612 461.558 508.001 458.651 L643.632 426.826 C680.177 418.251 715.319 445.568 716.025 483.098 Z" fill="#f6d7b1" fill-opacity="0.46" stroke="none"/>
</svg>
