<svg width="195" height="184" viewBox="0 0 195 184" fill="none" xmlns="http://www.w3.org/2000/svg">
<path opacity="0.4" d="M118.811 134.297L93.2813 122.625C91.4229 121.786 91.6738 120.314 93.797 119.342L110.337 111.78L142.529 126.499L125.989 134.061C123.866 135.033 120.651 135.14 118.811 134.297Z" fill="#D6D8E5"/>
<path d="M121.11 133.219L95.5855 121.546C93.7271 120.704 93.978 119.236 96.1012 118.26L112.641 110.698L144.828 125.418L128.293 132.98C126.165 133.955 122.95 134.072 121.11 133.219Z" fill="#B1B4C4"/>
<path d="M144.828 125.433V124.66L143.346 125.337L144.828 125.433Z" fill="#B1B4C4"/>
<path d="M94.3452 120.167V119.379L95.8691 119.884L94.3452 120.167Z" fill="#B1B4C4"/>
<path d="M121.11 132.457L95.5855 120.785C93.7271 119.942 93.978 118.474 96.1012 117.503L112.641 109.937L144.828 124.656L128.293 132.218C126.165 133.193 122.95 133.3 121.11 132.457Z" fill="#D6D8E5"/>
<path d="M112.725 109.974L108.743 99.5046L141.284 114.286L144.828 124.66L112.725 109.974Z" fill="#9EA1AF"/>
<path d="M143.885 125.09L144.814 124.66L143.42 123.773L143.885 125.09Z" fill="#9EA1AF"/>
<path d="M111.698 110.367L107.716 99.8984L140.257 114.68L143.885 125.09L111.698 110.367Z" fill="#B1B4C4"/>
<path d="M191.804 141.848L65.8375 84.2447C64.0721 83.4388 62.6411 81.2714 62.6411 79.4057V2.21854C62.6411 0.352891 64.0721 -0.5045 65.8375 0.305054L191.804 57.9158C193.569 58.7253 195 60.8927 195 62.7584V139.931C195 141.797 193.569 142.658 191.804 141.848Z" fill="#B1B4C4"/>
<path d="M192.45 142.643L193.848 142.006L193.244 138.728L192.45 142.643Z" fill="#B1B4C4"/>
<path d="M62.4136 0.79062L63.8074 0.161377L65.7819 1.05189C65.7819 1.05189 63.6773 1.30947 63.6262 1.29843C63.5751 1.28739 62.4136 0.79062 62.4136 0.79062Z" fill="#B1B4C4"/>
<path d="M190.647 142.378L64.6854 84.7747C62.9153 83.9651 61.4844 81.7977 61.4844 79.9321V2.75961C61.4844 0.89396 62.9153 0.0365703 64.6854 0.842444L190.647 58.4458C192.417 59.2517 193.848 61.4191 193.848 63.2847V140.461C193.848 142.327 192.417 143.184 190.647 142.378Z" fill="#E4E7F2"/>
<path d="M190.429 142.477L64.4623 84.8737C62.6968 84.0678 61.2612 81.9005 61.2612 80.0348V2.85864C61.2612 0.99299 62.6968 0.1356 64.4623 0.941473L190.429 58.5448C192.194 59.3544 193.625 61.5218 193.625 63.3874V140.578C193.625 142.418 192.194 143.283 190.429 142.477Z" fill="#D6D8E5"/>
<path d="M191.878 137.782L62.8643 78.78L62.9293 3.16774C62.9293 2.39499 63.6169 2.06381 64.4625 2.46858L190.429 60.0683C190.875 60.299 191.247 60.6098 191.513 60.9755C191.779 61.3412 191.933 61.7515 191.962 62.1731L191.878 137.782Z" fill="#2B303F"/>
<path opacity="0.5" d="M191.878 137.782L62.8643 78.78L62.9293 3.16774C62.9293 2.39499 63.6169 2.06381 64.4625 2.46858L190.429 60.0683C190.875 60.299 191.247 60.6098 191.513 60.9755C191.779 61.3412 191.933 61.7515 191.962 62.1731L191.878 137.782Z" fill="url(#paint0_linear)"/>
<path opacity="0.4" d="M77.9677 178.911L4.02704 145.057C2.97241 144.575 3.09785 143.736 4.31974 143.176L31.9679 130.536C33.1852 129.977 35.025 129.918 36.0796 130.4L110.02 164.254C111.075 164.736 110.949 165.579 109.728 166.134L82.0794 178.778C80.8621 179.334 79.0223 179.393 77.9677 178.911Z" fill="#D6D8E5"/>
<path d="M111.01 163.393L37.3993 129.705C36.3493 129.223 34.5048 129.285 33.2922 129.841L5.76486 142.418L4.64518 142.076V143.475C4.63738 143.661 4.69992 143.846 4.82485 144.004C4.94978 144.163 5.13144 144.288 5.34672 144.365L79.292 178.219C80.3466 178.701 82.1864 178.639 83.4037 178.083L111.038 165.435C111.721 165.123 112.065 164.722 112.046 164.332V162.933L111.01 163.393Z" fill="#B1B4C4"/>
<path d="M79.2922 176.817L5.34692 142.963C4.29228 142.481 4.41772 141.642 5.64426 141.083L33.2924 128.435C34.505 127.876 36.3495 127.817 37.3995 128.299L111.345 162.153C112.399 162.635 112.274 163.478 111.047 164.033L83.4039 176.677C82.1866 177.24 80.3468 177.299 79.2922 176.817Z" fill="#D6D8E5"/>
<path d="M31.3315 134.691L27.689 133.024C27.3917 132.888 27.4289 132.656 27.7727 132.494L31.2478 130.904C31.4234 130.827 31.6197 130.783 31.8207 130.776C32.0217 130.77 32.2218 130.801 32.4047 130.868L36.0471 132.531C36.3445 132.667 36.3073 132.899 35.9635 133.061L32.4883 134.65C32.3131 134.729 32.117 134.773 31.916 134.78C31.715 134.787 31.5147 134.757 31.3315 134.691Z" fill="#2B303F"/>
<path d="M36.4887 137.046L32.8463 135.383C32.5489 135.247 32.5861 135.015 32.9299 134.853L36.4051 133.263C36.5806 133.185 36.7769 133.141 36.9779 133.135C37.179 133.129 37.379 133.16 37.5619 133.226L41.2044 134.89C41.5017 135.026 41.4645 135.258 41.1207 135.42L37.6316 137.009C37.4578 137.085 37.264 137.128 37.0656 137.135C36.8672 137.141 36.6697 137.111 36.4887 137.046Z" fill="#2B303F"/>
<path d="M41.7016 139.434L38.0591 137.767C37.7618 137.631 37.799 137.399 38.1428 137.237L41.618 135.648C41.7943 135.57 41.9914 135.526 42.1932 135.519C42.3949 135.513 42.5958 135.544 42.7795 135.611L46.4219 137.267C46.7192 137.403 46.6774 137.635 46.3383 137.797L42.8631 139.386C42.6874 139.465 42.491 139.51 42.2895 139.519C42.0879 139.527 41.8866 139.498 41.7016 139.434Z" fill="#2B303F"/>
<path d="M46.7983 141.763L43.1558 140.096C42.8585 139.96 42.8956 139.728 43.2395 139.566L46.7146 137.977C46.8914 137.9 47.0883 137.856 47.2899 137.85C47.4915 137.844 47.6922 137.874 47.8761 137.94L51.5186 139.607C51.8159 139.743 51.7787 139.975 51.4349 140.137L47.9598 141.727C47.783 141.804 47.5861 141.847 47.3845 141.853C47.1829 141.86 46.9822 141.829 46.7983 141.763Z" fill="#2B303F"/>
<path d="M51.9552 144.122L48.3174 142.455C48.0201 142.319 48.0573 142.087 48.4011 141.925L51.8763 140.336C52.0526 140.258 52.2497 140.214 52.4515 140.208C52.6532 140.201 52.8541 140.233 53.0378 140.299L56.6756 141.962C56.9729 142.098 56.9357 142.33 56.5966 142.492L53.1167 144.082C52.941 144.161 52.7441 144.206 52.5421 144.213C52.3402 144.22 52.1391 144.189 51.9552 144.122Z" fill="#2B303F"/>
<path d="M57.1122 146.466L53.4698 144.803C53.1724 144.667 53.2096 144.435 53.5534 144.273L57.0286 142.683C57.2042 142.606 57.4001 142.562 57.601 142.555C57.8018 142.548 58.0019 142.578 58.1854 142.643L61.8279 144.31C62.1252 144.446 62.0881 144.678 61.7443 144.84L58.2691 146.429C58.0935 146.507 57.8972 146.551 57.6962 146.558C57.4952 146.564 57.2951 146.533 57.1122 146.466Z" fill="#2B303F"/>
<path d="M62.2552 148.836L58.6128 147.173C58.3155 147.037 58.3526 146.805 58.6918 146.639L62.1716 145.053C62.3468 144.975 62.5429 144.93 62.7439 144.923C62.9449 144.916 63.1452 144.947 63.3285 145.013L66.9709 146.68C67.2682 146.816 67.2311 147.048 66.8873 147.209L63.4121 148.799C63.2362 148.876 63.04 148.92 62.8392 148.926C62.6383 148.932 62.4384 148.902 62.2552 148.836Z" fill="#2B303F"/>
<path d="M67.4218 151.194L63.7794 149.528C63.482 149.391 63.5192 149.16 63.863 148.998L67.3382 147.408C67.5149 147.331 67.7119 147.287 67.9134 147.281C68.115 147.275 68.3157 147.306 68.4997 147.371L72.1421 149.038C72.4394 149.174 72.4023 149.406 72.0585 149.568L68.5833 151.158C68.4065 151.235 68.2096 151.278 68.008 151.285C67.8064 151.291 67.6057 151.26 67.4218 151.194Z" fill="#2B303F"/>
<path d="M72.5785 153.553L68.9361 151.886C68.6388 151.75 68.6759 151.518 69.0197 151.357L72.4763 149.778C72.6527 149.7 72.8498 149.656 73.0515 149.65C73.2533 149.643 73.4541 149.675 73.6378 149.741L77.2803 151.404C77.5776 151.541 77.5404 151.772 77.1966 151.934L73.7214 153.524C73.5467 153.598 73.3526 153.64 73.1544 153.645C72.9561 153.65 72.759 153.619 72.5785 153.553Z" fill="#2B303F"/>
<path d="M77.7358 155.908L74.0933 154.245C73.796 154.109 73.8332 153.877 74.177 153.715L77.6521 152.126C77.8277 152.048 78.0237 152.004 78.2245 151.997C78.4253 151.99 78.6255 152.02 78.809 152.085L82.4514 153.752C82.7488 153.888 82.7116 154.12 82.3724 154.282L78.8926 155.872C78.7171 155.949 78.5208 155.993 78.3198 156C78.1187 156.006 77.9186 155.975 77.7358 155.908Z" fill="#2B303F"/>
<path d="M82.893 158.267L79.2506 156.6C78.9532 156.468 78.9904 156.232 79.3342 156.071L82.8094 154.485C82.9845 154.406 83.1806 154.362 83.3817 154.355C83.5827 154.347 83.783 154.378 83.9662 154.444L87.6087 156.111C87.906 156.247 87.8688 156.479 87.525 156.641L84.0498 158.242C83.8728 158.317 83.6761 158.358 83.4753 158.363C83.2744 158.367 83.0751 158.335 82.893 158.267Z" fill="#2B303F"/>
<path d="M88.045 160.626L84.4072 158.977C84.1099 158.841 84.1471 158.609 84.4862 158.448L87.966 156.858C88.142 156.781 88.3381 156.737 88.539 156.731C88.7398 156.725 88.9397 156.755 89.1229 156.821L92.7653 158.488C93.0627 158.62 93.0255 158.856 92.6817 159.018L89.2019 160.589C89.0257 160.666 88.8296 160.709 88.6289 160.715C88.4282 160.722 88.2283 160.691 88.045 160.626Z" fill="#2B303F"/>
<path d="M93.2026 162.985L89.5601 161.318C89.2628 161.182 89.2999 160.95 89.6437 160.788L93.1189 159.198C93.2953 159.12 93.4924 159.077 93.6941 159.07C93.8959 159.064 94.0968 159.095 94.2804 159.162L97.9229 160.825C98.2202 160.961 98.183 161.193 97.8392 161.355L94.3641 162.944C94.188 163.023 93.9912 163.067 93.7894 163.074C93.5876 163.081 93.3866 163.051 93.2026 162.985Z" fill="#2B303F"/>
<path d="M100.845 166.477L94.7169 163.676C94.4195 163.54 94.4567 163.308 94.8005 163.146L98.2757 161.557C98.4517 161.478 98.6485 161.434 98.8503 161.427C99.0521 161.42 99.2531 161.45 99.4372 161.516L105.561 164.32C105.858 164.456 105.821 164.688 105.477 164.85L102.002 166.44C101.826 166.517 101.63 166.56 101.429 166.567C101.228 166.573 101.028 166.542 100.845 166.477Z" fill="#2B303F"/>
<path d="M33.9799 140.472L30.3375 138.808C30.0401 138.672 30.0773 138.44 30.4211 138.279L33.9149 136.689C34.0909 136.61 34.2877 136.566 34.4895 136.559C34.6913 136.552 34.8923 136.583 35.0764 136.648L38.7188 138.315C39.0161 138.452 38.979 138.683 38.6352 138.845L35.16 140.435C34.9809 140.514 34.7806 140.559 34.5755 140.565C34.3704 140.572 34.1663 140.54 33.9799 140.472Z" fill="#2B303F"/>
<path d="M39.1464 142.834L35.504 141.167C35.2066 141.035 35.2438 140.799 35.5876 140.638L39.0628 139.048C39.2395 138.971 39.4365 138.927 39.6381 138.921C39.8396 138.915 40.0403 138.945 40.2243 139.011L43.8667 140.678C44.1641 140.814 44.1222 141.046 43.7831 141.208L40.3079 142.787C40.1323 142.865 39.9359 142.911 39.7343 142.919C39.5327 142.927 39.3314 142.898 39.1464 142.834Z" fill="#2B303F"/>
<path d="M44.3124 145.197L40.67 143.522C40.3726 143.386 40.4098 143.154 40.7536 142.992L44.2288 141.403C44.4047 141.326 44.6009 141.282 44.8017 141.276C45.0026 141.27 45.2025 141.3 45.3856 141.366L49.0281 143.033C49.3254 143.165 49.2883 143.401 48.9445 143.563L45.4693 145.152C45.2941 145.231 45.0983 145.275 44.8974 145.283C44.6966 145.291 44.4963 145.261 44.3124 145.197Z" fill="#2B303F"/>
<path d="M49.474 147.57L45.8316 145.903C45.5389 145.767 45.576 145.535 45.9152 145.373L49.3904 143.784C49.5671 143.707 49.7641 143.663 49.9657 143.657C50.1672 143.65 50.3679 143.681 50.5519 143.747L54.1943 145.41C54.4917 145.546 54.4545 145.778 54.1107 145.94L50.6401 147.519C50.4647 147.599 50.2676 147.646 50.0649 147.655C49.8622 147.664 49.6597 147.635 49.474 147.57Z" fill="#2B303F"/>
<path d="M54.5986 149.899L50.9561 148.236C50.6588 148.1 50.6959 147.868 51.0397 147.706L54.5149 146.117C54.6913 146.039 54.8881 145.995 55.0896 145.988C55.2912 145.981 55.4921 146.011 55.6764 146.076L59.3189 147.743C59.6162 147.879 59.579 148.111 59.2352 148.273L55.7508 149.863C55.5755 149.939 55.3802 149.982 55.1802 149.989C54.9801 149.995 54.781 149.965 54.5986 149.899Z" fill="#2B303F"/>
<path d="M59.7651 152.262L56.1226 150.598C55.8253 150.462 55.8624 150.231 56.2062 150.069L59.6814 148.479C59.8575 148.4 60.0543 148.356 60.2561 148.349C60.4579 148.342 60.6589 148.373 60.8429 148.438L64.4807 150.105C64.7781 150.242 64.7409 150.473 64.4017 150.635L60.9219 152.225C60.7464 152.303 60.5501 152.347 60.3491 152.353C60.148 152.359 59.9479 152.328 59.7651 152.262Z" fill="#2B303F"/>
<path d="M64.9316 154.624L61.2891 152.961C60.9918 152.825 61.029 152.593 61.3728 152.427L64.8479 150.841C65.0231 150.763 65.2192 150.718 65.4202 150.711C65.6213 150.704 65.8216 150.735 66.0048 150.801L69.6472 152.468C69.9446 152.604 69.9074 152.836 69.5636 152.998L66.0884 154.587C65.9125 154.664 65.7163 154.708 65.5155 154.714C65.3147 154.721 65.1147 154.69 64.9316 154.624Z" fill="#2B303F"/>
<path d="M70.093 156.987L66.4366 155.32C66.1392 155.184 66.1764 154.952 66.5202 154.79L69.9954 153.2C70.1721 153.123 70.3691 153.08 70.5707 153.073C70.7723 153.067 70.9729 153.098 71.1569 153.163L74.7993 154.83C75.0967 154.966 75.0595 155.198 74.7157 155.36L71.2405 156.95C71.0656 157.025 70.8711 157.068 70.6721 157.074C70.4732 157.08 70.275 157.051 70.093 156.987Z" fill="#2B303F"/>
<path d="M75.2641 159.346L71.6216 157.679C71.3243 157.542 71.3615 157.311 71.7053 157.149L75.1805 155.559C75.3572 155.482 75.5541 155.439 75.7557 155.432C75.9573 155.426 76.158 155.457 76.342 155.522L79.9844 157.186C80.2817 157.322 80.2446 157.554 79.9008 157.719L76.4256 159.305C76.2496 159.384 76.0527 159.428 75.8509 159.435C75.6491 159.442 75.4481 159.412 75.2641 159.346Z" fill="#2B303F"/>
<path d="M80.4257 161.712L76.7833 160.045C76.4859 159.909 76.5231 159.677 76.8669 159.515L80.3421 157.925C80.5176 157.848 80.7139 157.804 80.9149 157.797C81.116 157.791 81.3161 157.822 81.4989 157.889L85.1414 159.552C85.4387 159.688 85.4016 159.92 85.0578 160.082L81.5826 161.671C81.4074 161.75 81.2113 161.794 81.0103 161.801C80.8092 161.808 80.6089 161.778 80.4257 161.712Z" fill="#2B303F"/>
<path d="M85.5875 164.07L81.9497 162.407C81.6524 162.271 81.6895 162.039 82.0287 161.877L85.5085 160.287C85.6841 160.21 85.8804 160.166 86.0814 160.159C86.2824 160.153 86.4825 160.184 86.6654 160.251L90.3078 161.914C90.6052 162.05 90.568 162.282 90.2242 162.444L86.749 164.033C86.5726 164.111 86.3756 164.155 86.1738 164.162C85.972 164.168 85.7712 164.137 85.5875 164.07Z" fill="#2B303F"/>
<path d="M90.7533 166.433L87.1109 164.77C86.8136 164.633 86.8507 164.402 87.1945 164.24L90.6697 162.65C90.8457 162.572 91.0426 162.527 91.2444 162.52C91.4461 162.513 91.6472 162.544 91.8312 162.61L95.4736 164.277C95.771 164.413 95.7338 164.645 95.39 164.806L91.9148 166.396C91.7384 166.474 91.5414 166.518 91.3396 166.524C91.1378 166.531 90.937 166.499 90.7533 166.433Z" fill="#2B303F"/>
<path d="M28.8044 138.109L22.6763 135.309C22.379 135.173 22.4162 134.941 22.76 134.779L26.2351 133.189C26.4119 133.112 26.6088 133.069 26.8104 133.062C27.012 133.056 27.2127 133.087 27.3966 133.152L33.52 135.953C33.8174 136.089 33.7802 136.321 33.4364 136.483L29.9612 138.072C29.7857 138.15 29.5894 138.194 29.3884 138.2C29.1873 138.207 28.9872 138.176 28.8044 138.109Z" fill="#2B303F"/>
<path d="M100.594 166.628L96.9516 164.961C96.7843 164.894 96.5998 164.86 96.4127 164.86C96.2256 164.86 96.0411 164.894 95.8738 164.961L92.1988 166.642C92.1343 166.66 92.0784 166.694 92.0389 166.738C91.9993 166.782 91.9781 166.835 91.9781 166.889C91.9781 166.943 91.9993 166.996 92.0389 167.04C92.0784 167.084 92.1343 167.118 92.1988 167.136L92.4869 167.268C92.761 167.393 92.761 167.596 92.4869 167.724L88.6075 169.498C88.5413 169.515 88.4836 169.548 88.4428 169.593C88.4019 169.638 88.3799 169.691 88.3799 169.746C88.3799 169.801 88.4019 169.855 88.4428 169.9C88.4836 169.944 88.5413 169.978 88.6075 169.995L90.9304 171.055C91.0974 171.122 91.2821 171.157 91.4694 171.157C91.6567 171.157 91.8413 171.122 92.0083 171.055L95.6415 169.395L96.3941 169.049L96.933 168.802L97.4766 168.552L100.608 167.121C100.672 167.102 100.727 167.067 100.765 167.023C100.804 166.978 100.823 166.925 100.822 166.87C100.82 166.816 100.798 166.764 100.757 166.72C100.716 166.677 100.659 166.644 100.594 166.628Z" fill="#2B303F"/>
<path d="M11.3632 143.839L7.72077 142.176C7.42342 142.039 7.46059 141.808 7.80439 141.646L11.2796 140.056C11.4551 139.978 11.6514 139.934 11.8524 139.928C12.0535 139.921 12.2536 139.953 12.4364 140.019L16.0789 141.682C16.3762 141.819 16.339 142.05 15.9952 142.212L12.5433 143.802C12.3648 143.883 12.1644 143.928 11.9589 143.935C11.7535 143.941 11.5491 143.908 11.3632 143.839Z" fill="#2B303F"/>
<path d="M16.5019 146.19L12.8594 144.527C12.5621 144.391 12.5993 144.159 12.9431 143.997L16.4183 142.418C16.5943 142.34 16.7911 142.295 16.9929 142.288C17.1947 142.281 17.3957 142.312 17.5797 142.378L21.2222 144.045C21.5195 144.181 21.4824 144.413 21.1386 144.574L17.6541 146.153C17.4789 146.23 17.2835 146.273 17.0835 146.279C16.8835 146.286 16.6843 146.255 16.5019 146.19Z" fill="#2B303F"/>
<path d="M21.6449 148.542L18.0025 146.878C17.7052 146.742 17.7423 146.51 18.0861 146.349L21.5613 144.759C21.7365 144.68 21.9326 144.636 22.1336 144.629C22.3346 144.622 22.5349 144.653 22.7182 144.718L26.3606 146.385C26.6579 146.522 26.6208 146.753 26.277 146.915L22.8018 148.505C22.6262 148.583 22.43 148.627 22.2289 148.633C22.0279 148.639 21.8278 148.608 21.6449 148.542Z" fill="#2B303F"/>
<path d="M65.4284 168.563L61.7906 166.9C61.4932 166.764 61.5304 166.532 61.8742 166.37L65.3494 164.78C65.5254 164.702 65.7223 164.657 65.9241 164.65C66.1258 164.643 66.3269 164.674 66.5109 164.74L70.1533 166.407C70.446 166.543 70.4089 166.775 70.0697 166.937L66.5899 168.545C66.4117 168.62 66.2137 168.661 66.0119 168.664C65.8101 168.667 65.6103 168.633 65.4284 168.563Z" fill="#2B303F"/>
<path d="M70.5717 170.915L66.9293 169.251C66.6319 169.115 66.6691 168.883 67.0129 168.721L70.4881 167.132C70.6633 167.053 70.8593 167.009 71.0604 167.002C71.2614 166.995 71.4617 167.025 71.6449 167.091L75.2874 168.758C75.5847 168.894 75.5475 169.126 75.2037 169.288L71.7285 170.878C71.553 170.956 71.3567 170.999 71.1557 171.006C70.9547 171.012 70.7546 170.981 70.5717 170.915Z" fill="#2B303F"/>
<path d="M75.7284 173.266L72.086 171.603C71.7887 171.467 71.8258 171.235 72.1696 171.069L75.6448 169.483C75.8208 169.405 76.0177 169.36 76.2195 169.353C76.4212 169.346 76.6223 169.377 76.8063 169.443L80.4488 171.11C80.7461 171.246 80.7089 171.478 80.3651 171.64L76.8899 173.229C76.7132 173.306 76.5163 173.35 76.3147 173.356C76.1131 173.363 75.9124 173.332 75.7284 173.266Z" fill="#2B303F"/>
<path d="M80.8393 175.618L77.1968 173.951C76.8995 173.818 76.9367 173.583 77.2805 173.421L80.7557 171.831C80.9316 171.754 81.1277 171.711 81.3286 171.704C81.5294 171.698 81.7293 171.729 81.9125 171.794L85.5549 173.461C85.8523 173.597 85.8151 173.829 85.4759 173.991L81.9961 175.581C81.8202 175.658 81.624 175.701 81.4232 175.708C81.2224 175.714 81.0224 175.683 80.8393 175.618Z" fill="#2B303F"/>
<path d="M28.1118 151.5L23.1407 149.23C22.848 149.094 22.8851 148.862 23.2243 148.7L26.6995 147.11C26.8755 147.032 27.0723 146.987 27.2741 146.98C27.4759 146.973 27.6769 147.004 27.861 147.07L32.8275 149.34C33.1248 149.476 33.0877 149.708 32.7439 149.874L29.2687 151.46C29.0935 151.538 28.8974 151.583 28.6964 151.59C28.4954 151.597 28.2951 151.566 28.1118 151.5Z" fill="#2B303F"/>
<path d="M60.2854 166.212L55.3189 163.941C55.0216 163.805 55.0587 163.573 55.4025 163.411L58.8777 161.822C59.0545 161.745 59.2514 161.701 59.453 161.695C59.6546 161.689 59.8553 161.719 60.0392 161.785L65.0058 164.055C65.3031 164.192 65.2659 164.423 64.9221 164.585L61.4469 166.175C61.2706 166.253 61.0735 166.297 60.8717 166.303C60.67 166.31 60.4691 166.278 60.2854 166.212Z" fill="#2B303F"/>
<path d="M53.8228 163.257L29.608 152.184C29.3106 152.048 29.3478 151.816 29.6916 151.654L33.1668 150.065C33.3432 149.987 33.5402 149.943 33.742 149.937C33.9438 149.93 34.1446 149.962 34.3283 150.028L58.5384 161.1C58.8358 161.237 58.7986 161.468 58.4548 161.63L54.9796 163.22C54.8037 163.297 54.6075 163.34 54.4067 163.347C54.2059 163.353 54.0059 163.322 53.8228 163.257Z" fill="#2B303F"/>
<path d="M30.3886 143.401L26.7462 141.734C26.4488 141.598 26.486 141.366 26.8298 141.204L30.305 139.614C30.4805 139.536 30.6768 139.493 30.8778 139.486C31.0789 139.48 31.2789 139.511 31.4618 139.578L35.1043 141.241C35.4016 141.377 35.3644 141.609 35.0206 141.771L31.5454 143.36C31.3703 143.439 31.1742 143.483 30.9731 143.49C30.7721 143.497 30.5718 143.467 30.3886 143.401Z" fill="#2B303F"/>
<path d="M35.5361 145.756L31.8936 144.089C31.5963 143.953 31.6334 143.721 31.9772 143.559L35.4524 141.97C35.6288 141.892 35.8259 141.848 36.0276 141.841C36.2294 141.835 36.4302 141.866 36.6139 141.933L40.2564 143.596C40.5537 143.732 40.5165 143.964 40.1727 144.126L36.7022 145.73C36.5241 145.807 36.3257 145.849 36.123 145.854C35.9204 145.858 35.7193 145.825 35.5361 145.756Z" fill="#2B303F"/>
<path d="M40.6884 148.111L37.046 146.444C36.7486 146.308 36.7858 146.076 37.1296 145.914L40.6048 144.325C40.7803 144.247 40.9766 144.203 41.1776 144.197C41.3787 144.19 41.5788 144.222 41.7616 144.288L45.4041 145.951C45.7014 146.087 45.6642 146.319 45.3204 146.481L41.8453 148.071C41.6701 148.149 41.474 148.194 41.273 148.201C41.0719 148.208 40.8716 148.177 40.6884 148.111Z" fill="#2B303F"/>
<path d="M45.8364 150.466L42.1939 148.799C41.8966 148.663 41.9337 148.431 42.2775 148.269L45.7527 146.68C45.9291 146.602 46.1261 146.558 46.3279 146.551C46.5297 146.545 46.7305 146.576 46.9142 146.643L50.5567 148.306C50.854 148.442 50.8168 148.674 50.473 148.836L46.9978 150.426C46.8218 150.504 46.625 150.549 46.4232 150.556C46.2214 150.563 46.0204 150.532 45.8364 150.466Z" fill="#2B303F"/>
<path d="M50.9887 152.821L47.3463 151.154C47.0489 151.018 47.0861 150.786 47.4299 150.624L50.9051 149.035C51.0806 148.957 51.2769 148.913 51.4779 148.907C51.679 148.9 51.879 148.931 52.0619 148.998L55.7044 150.661C56.0017 150.797 55.9645 151.029 55.6207 151.191L52.1455 152.781C51.9704 152.859 51.7743 152.904 51.5732 152.911C51.3722 152.918 51.1719 152.887 50.9887 152.821Z" fill="#2B303F"/>
<path d="M56.1364 155.176L52.4986 153.509C52.2013 153.373 52.2384 153.141 52.5822 152.979L56.0574 151.39C56.2338 151.312 56.4308 151.268 56.6326 151.262C56.8344 151.255 57.0352 151.286 57.2189 151.353L60.8614 153.016C61.1587 153.152 61.1215 153.384 60.7777 153.546L57.3025 155.136C57.1259 155.215 56.9283 155.26 56.7256 155.267C56.5229 155.274 56.321 155.243 56.1364 155.176Z" fill="#2B303F"/>
<path d="M61.289 157.531L57.6465 155.864C57.3492 155.728 57.3864 155.496 57.7302 155.334L61.2054 153.745C61.3809 153.667 61.5772 153.623 61.7782 153.617C61.9792 153.61 62.1793 153.641 62.3622 153.708L66.0046 155.371C66.302 155.507 66.2648 155.739 65.9256 155.901L62.4458 157.505C62.2692 157.582 62.0723 157.624 61.8713 157.628C61.6703 157.632 61.4708 157.599 61.289 157.531Z" fill="#2B303F"/>
<path d="M66.4366 159.886L62.7988 158.219C62.5015 158.083 62.5387 157.851 62.8778 157.69L66.3576 156.1C66.5332 156.022 66.7295 155.978 66.9305 155.972C67.1315 155.965 67.3316 155.997 67.5145 156.063L71.1569 157.726C71.4543 157.863 71.4171 158.094 71.0733 158.256L67.5981 159.846C67.4221 159.924 67.2252 159.969 67.0235 159.976C66.8217 159.983 66.6207 159.952 66.4366 159.886Z" fill="#2B303F"/>
<path d="M71.5888 162.241L67.9464 160.574C67.649 160.438 67.6862 160.206 68.03 160.045L71.5052 158.455C71.6819 158.378 71.8789 158.334 72.0804 158.328C72.282 158.322 72.4827 158.352 72.6667 158.418L76.3091 160.081C76.6018 160.217 76.5646 160.449 76.2255 160.611L72.7503 162.201C72.5743 162.279 72.3774 162.324 72.1756 162.331C71.9739 162.338 71.7728 162.307 71.5888 162.241Z" fill="#2B303F"/>
<path d="M76.7411 164.596L73.0987 162.929C72.8014 162.793 72.8385 162.561 73.1823 162.399L76.6575 160.817C76.8334 160.74 77.0296 160.697 77.2304 160.69C77.4313 160.684 77.6312 160.715 77.8144 160.78L81.4568 162.444C81.7541 162.58 81.717 162.812 81.3732 162.977L77.898 164.563C77.7221 164.64 77.5256 164.684 77.3246 164.689C77.1235 164.695 76.9236 164.663 76.7411 164.596Z" fill="#2B303F"/>
<path d="M81.8891 166.951L78.2466 165.284C77.9493 165.148 77.9865 164.916 78.3303 164.754L81.8055 163.165C81.9822 163.088 82.1791 163.044 82.3807 163.038C82.5823 163.032 82.783 163.062 82.967 163.128L86.6094 164.791C86.9067 164.927 86.8696 165.159 86.5258 165.325L83.0506 166.911C82.8746 166.989 82.6777 167.034 82.4759 167.041C82.2742 167.048 82.0731 167.017 81.8891 166.951Z" fill="#2B303F"/>
<path d="M87.0414 169.307L83.399 167.64C83.1016 167.504 83.1388 167.272 83.4826 167.11L86.9578 165.52C87.1337 165.443 87.3299 165.4 87.5307 165.393C87.7316 165.387 87.9315 165.418 88.1146 165.483L91.7571 167.147C92.0544 167.283 92.0173 167.515 91.6735 167.68L88.1983 169.281C88.0216 169.357 87.8248 169.399 87.6237 169.404C87.4227 169.408 87.2232 169.375 87.0414 169.307Z" fill="#2B303F"/>
<path d="M25.2358 141.046L17.7047 137.598C17.4073 137.466 17.4445 137.23 17.7883 137.068L21.2635 135.478C21.4394 135.401 21.6356 135.358 21.8364 135.352C22.0372 135.345 22.2372 135.376 22.4203 135.442L29.9561 138.886C30.2534 139.022 30.2163 139.254 29.8725 139.416L26.3973 141.005C26.2209 141.083 26.0241 141.127 25.8225 141.134C25.621 141.141 25.4201 141.111 25.2358 141.046Z" fill="#2B303F"/>
<path d="M22.8344 144.516L19.192 142.849C18.8946 142.713 18.9318 142.481 19.2756 142.319L22.7647 140.73C22.9406 140.653 23.1368 140.609 23.3376 140.603C23.5385 140.596 23.7384 140.627 23.9216 140.693L27.564 142.36C27.8613 142.496 27.8242 142.728 27.4804 142.89L24.0052 144.479C23.8275 144.558 23.6288 144.603 23.4254 144.609C23.2219 144.615 23.0194 144.584 22.8344 144.516Z" fill="#2B303F"/>
<path d="M27.9819 146.871L24.3394 145.204C24.0421 145.068 24.0792 144.836 24.423 144.674L27.8982 143.084C28.075 143.007 28.2719 142.964 28.4735 142.957C28.6751 142.951 28.8758 142.982 29.0597 143.047L32.7022 144.714C32.9995 144.847 32.9577 145.082 32.6185 145.244L29.1434 146.834C28.967 146.912 28.7699 146.956 28.5682 146.962C28.3664 146.969 28.1655 146.937 27.9819 146.871Z" fill="#2B303F"/>
<path d="M33.1298 149.226L29.4874 147.57C29.19 147.434 29.2272 147.202 29.571 147.04L33.0462 145.451C33.2229 145.374 33.4199 145.33 33.6215 145.324C33.823 145.317 34.0237 145.348 34.2077 145.414L37.8501 147.077C38.1475 147.213 38.1103 147.445 37.7665 147.607L34.2913 149.197C34.1142 149.273 33.9168 149.316 33.715 149.321C33.5132 149.326 33.3128 149.294 33.1298 149.226Z" fill="#2B303F"/>
<path d="M38.2817 151.581L34.6392 149.914C34.3419 149.778 34.379 149.546 34.7228 149.384L38.198 147.794C38.3736 147.717 38.5699 147.673 38.7709 147.666C38.9719 147.66 39.172 147.691 39.3549 147.758L42.9973 149.41C43.2947 149.546 43.2575 149.778 42.9137 149.94L39.4385 151.529C39.2644 151.61 39.0689 151.656 38.8679 151.665C38.6668 151.674 38.466 151.645 38.2817 151.581Z" fill="#2B303F"/>
<path d="M43.4296 153.936L39.7872 152.269C39.4898 152.133 39.527 151.901 39.8708 151.739L43.346 150.146C43.5224 150.068 43.7194 150.024 43.9212 150.018C44.123 150.011 44.3238 150.043 44.5075 150.109L48.1499 151.772C48.4473 151.908 48.4101 152.14 48.0663 152.302L44.6004 153.896C44.4229 153.974 44.2244 154.019 44.0211 154.026C43.8177 154.033 43.6152 154.002 43.4296 153.936Z" fill="#2B303F"/>
<path d="M48.5777 156.288L44.9399 154.624C44.6426 154.488 44.6798 154.257 45.0189 154.095L48.4988 152.505C48.6743 152.427 48.8706 152.383 49.0716 152.377C49.2727 152.37 49.4727 152.402 49.6556 152.468L53.2981 154.131C53.5954 154.268 53.5582 154.499 53.2144 154.661L49.7392 156.251C49.5629 156.329 49.3658 156.373 49.164 156.379C48.9623 156.386 48.7614 156.354 48.5777 156.288Z" fill="#2B303F"/>
<path d="M53.7299 158.643L50.0875 156.979C49.7901 156.843 49.8273 156.611 50.1711 156.45L53.6463 154.86C53.8218 154.782 54.0178 154.738 54.2187 154.731C54.4195 154.724 54.6196 154.754 54.8031 154.819L58.4456 156.486C58.7429 156.623 58.7057 156.854 58.3619 157.016L54.8868 158.61C54.7108 158.687 54.5144 158.73 54.3133 158.736C54.1123 158.742 53.9124 158.71 53.7299 158.643Z" fill="#2B303F"/>
<path d="M58.8779 160.998L55.2354 159.345C54.9381 159.209 54.9752 158.977 55.319 158.815L58.7942 157.226C58.9702 157.147 59.1671 157.103 59.3689 157.096C59.5707 157.089 59.7717 157.119 59.9557 157.185L63.5982 158.852C63.8955 158.988 63.8583 159.22 63.5145 159.382L60.0393 160.972C59.8619 161.048 59.6642 161.09 59.4625 161.094C59.2607 161.099 59.0604 161.066 58.8779 160.998Z" fill="#2B303F"/>
<path d="M64.0297 163.353L60.3965 161.69C60.0992 161.553 60.1364 161.322 60.4802 161.16L63.9554 159.57C64.1305 159.492 64.3266 159.447 64.5277 159.44C64.7287 159.433 64.929 159.464 65.1122 159.529L68.7593 161.185C69.0566 161.322 69.0195 161.553 68.6757 161.715L65.2005 163.305C65.0243 163.386 64.8261 163.433 64.6224 163.442C64.4187 163.45 64.2155 163.419 64.0297 163.353Z" fill="#2B303F"/>
<path d="M69.1776 165.708L65.5352 164.045C65.2379 163.909 65.275 163.677 65.6188 163.511L69.094 161.925C69.27 161.847 69.4669 161.802 69.6687 161.795C69.8704 161.788 70.0715 161.819 70.2555 161.885L73.8933 163.552C74.1906 163.688 74.1535 163.92 73.8143 164.082L70.3345 165.671C70.1586 165.748 69.9624 165.792 69.7616 165.798C69.5607 165.804 69.3608 165.774 69.1776 165.708Z" fill="#2B303F"/>
<path d="M74.3344 168.063L70.692 166.396C70.3946 166.263 70.4318 166.028 70.7756 165.866L74.2508 164.276C74.4275 164.199 74.6245 164.156 74.826 164.149C75.0276 164.143 75.2283 164.174 75.4123 164.239L79.0547 165.906C79.3521 166.042 79.3149 166.274 78.9711 166.436L75.4959 168.026C75.3192 168.103 75.1222 168.146 74.9206 168.153C74.719 168.159 74.5184 168.128 74.3344 168.063Z" fill="#2B303F"/>
<path d="M85.8522 173.329L75.8355 168.747C75.5382 168.611 75.5753 168.379 75.9191 168.218L79.3943 166.628C79.5702 166.551 79.7664 166.507 79.9673 166.501C80.1681 166.495 80.368 166.526 80.5512 166.591L90.5679 171.172C90.8652 171.309 90.8281 171.54 90.4843 171.702L87.0091 173.292C86.8332 173.369 86.637 173.412 86.4362 173.419C86.2353 173.425 86.0354 173.394 85.8522 173.329Z" fill="#2B303F"/>
<path d="M17.6819 142.161L12.7154 139.89C12.4181 139.754 12.4552 139.522 12.799 139.361L16.2603 137.771C16.4366 137.693 16.6334 137.649 16.835 137.642C17.0366 137.635 17.2375 137.665 17.4218 137.73L22.3883 140.004C22.6856 140.141 22.6485 140.372 22.3047 140.534L18.8295 142.124C18.6545 142.199 18.4601 142.242 18.2611 142.248C18.0622 142.255 17.864 142.225 17.6819 142.161Z" fill="#2B303F"/>
<path d="M106.016 164.129L32.8834 130.669C32.586 130.533 32.6232 130.301 32.967 130.139L34.7046 129.344C34.8801 129.266 35.0761 129.222 35.277 129.215C35.4778 129.208 35.6779 129.239 35.8614 129.304L108.994 162.749C109.291 162.885 109.254 163.117 108.915 163.279L107.177 164.074C107.002 164.154 106.806 164.2 106.605 164.21C106.403 164.22 106.201 164.192 106.016 164.129Z" fill="#2B303F"/>
<path opacity="0.4" d="M164.444 184C170.794 184 175.942 181.646 175.942 178.742C175.942 175.837 170.794 173.483 164.444 173.483C158.093 173.483 152.945 175.837 152.945 178.742C152.945 181.646 158.093 184 164.444 184Z" fill="#D6D8E5"/>
<path d="M177.066 177.994V163.967L154.12 164.427L154.166 177.354C153.739 178.911 154.831 180.537 157.442 181.733C161.93 183.786 169.21 183.786 173.703 181.733C175.961 180.688 177.08 179.345 177.066 177.994Z" fill="#A6CE28"/>
<path d="M165.573 169.226C171.923 169.226 177.071 166.871 177.071 163.967C177.071 161.063 171.923 158.709 165.573 158.709C159.222 158.709 154.074 161.063 154.074 163.967C154.074 166.871 159.222 169.226 165.573 169.226Z" fill="#BCD64D"/>
<path d="M175.25 163.967C175.25 164.824 174.353 165.722 172.792 166.436C170.796 167.273 168.582 167.73 166.325 167.772C166.077 167.772 165.831 167.772 165.586 167.772C162.868 167.772 160.239 167.283 158.366 166.425C156.805 165.711 155.909 164.813 155.909 163.956C155.909 163.099 156.805 162.201 158.366 161.487C160.225 160.63 162.868 160.14 165.586 160.14C165.832 160.14 166.079 160.14 166.325 160.14C168.587 160.178 170.806 160.634 172.806 161.472C174.353 162.212 175.25 163.113 175.25 163.967Z" fill="#28221C"/>
<path opacity="0.07" d="M175.25 163.967C175.25 164.825 174.353 165.722 172.792 166.436C170.81 167.312 168.578 167.772 166.309 167.772C164.039 167.772 161.807 167.312 159.825 166.436C158.264 165.722 157.368 164.825 157.368 163.967C157.368 163.11 158.264 162.212 159.825 161.498C161.808 160.624 164.04 160.166 166.309 160.166C168.578 160.166 170.809 160.624 172.792 161.498C174.353 162.212 175.25 163.113 175.25 163.967Z" fill="white"/>
<path d="M175.389 170.462L172.945 169.358L171.761 169.903L172.945 170.447V170.815L175.236 171.86L175.166 172.195C175.501 172.42 176.681 174.149 176.681 174.149L176.769 174.09V178.605C176.769 179.79 175.891 179.389 175.515 179.216L172.945 178.042L171.761 178.587L172.945 179.132V179.5L175.515 180.673C175.778 180.796 176.059 180.895 176.351 180.968L176.198 181.535L177.526 180.942C178.084 180.681 178.312 180.059 178.312 179.356V174.583C178.349 172.593 176.411 171.014 175.389 170.462Z" fill="#8DA01F"/>
<path d="M174.33 181.181L171.761 180.008V178.561L174.33 179.739C174.702 179.908 175.58 180.309 175.58 179.124V174.407C175.58 173.303 174.307 172.523 174.093 172.401L171.77 171.334V169.888L174.209 170.992C175.236 171.544 177.169 173.115 177.169 175.113V179.835C177.159 181.119 176.416 182.138 174.33 181.181Z" fill="#99B524"/>
<path opacity="0.4" d="M10.8292 111.177C15.7583 111.177 19.7541 109.35 19.7541 107.096C19.7541 104.842 15.7583 103.015 10.8292 103.015C5.90012 103.015 1.9043 104.842 1.9043 107.096C1.9043 109.35 5.90012 111.177 10.8292 111.177Z" fill="#D6D8E5"/>
<path d="M12.1022 110.419C17.0312 110.419 21.0271 108.592 21.0271 106.338C21.0271 104.084 17.0312 102.257 12.1022 102.257C7.17306 102.257 3.17725 104.084 3.17725 106.338C3.17725 108.592 7.17306 110.419 12.1022 110.419Z" fill="#D6D8E5"/>
<path d="M0.157227 92.3845L3.27932 106.625H21.0037L24.0515 92.4876L0.157227 92.3845Z" fill="#D6D8E5"/>
<path d="M12.1018 97.6758C18.7064 97.6758 24.0605 95.2276 24.0605 92.2077C24.0605 89.1877 18.7064 86.7395 12.1018 86.7395C5.49717 86.7395 0.143066 89.1877 0.143066 92.2077C0.143066 95.2276 5.49717 97.6758 12.1018 97.6758Z" fill="#E4E6EF"/>
<path d="M12.1018 96.4728C9.17024 96.4728 6.4384 95.9613 4.40811 95.0304C2.66588 94.2355 1.66699 93.1905 1.66699 92.208C1.66699 91.2255 2.66588 90.1841 4.40811 89.3856C6.4384 88.4583 9.17024 87.9468 12.1018 87.9468C15.0335 87.9468 17.7653 88.4583 19.7956 89.3856C21.5378 90.1841 22.5367 91.2255 22.5367 92.208C22.5367 93.1905 21.5378 94.2355 19.7956 95.0304C17.7653 95.9613 15.0335 96.4728 12.1018 96.4728Z" fill="#28221C"/>
<path d="M17.2497 87.9027C17.4193 86.0621 17.0497 84.2154 16.1696 82.5067C15.2895 80.7979 13.9229 79.2733 12.1763 78.0519L12.1391 78.0261V78.0776C10.3912 79.297 9.023 80.82 8.1413 82.5276C7.2596 84.2351 6.88829 86.081 7.05639 87.9211L0.222168 87.4096C3.10732 96.024 12.1763 95.2806 12.1763 95.2806C12.8592 95.3211 21.3149 95.667 24.0792 87.4022L17.2497 87.9027Z" fill="#99B524"/>
<path d="M12.1763 95.2805C12.1763 95.2805 11.5631 88.5759 0.194381 84.0571C0.194381 84.0571 -2.50028 95.1995 12.1763 95.2805Z" fill="#A6CE28"/>
<path d="M12.1021 95.2805C12.1021 95.2805 12.7153 88.5759 24.084 84.0571C24.084 84.0571 26.7787 95.1995 12.1021 95.2805Z" fill="#A6CE28"/>
<defs>
<linearGradient id="paint0_linear" x1="62.8643" y1="70.0405" x2="191.962" y2="70.0405" gradientUnits="userSpaceOnUse">
<stop offset="0.21" stop-color="white" stop-opacity="0"/>
<stop offset="1" stop-color="white" stop-opacity="0.2"/>
</linearGradient>
</defs>
</svg>
