<?xml version="1.0" encoding="UTF-8"?>
<svg width="640px" height="480px" viewBox="0 0 640 480" xmlns="http://www.w3.org/2000/svg" xmlns:xlink="http://www.w3.org/1999/xlink" version="1.1">
 <!-- Generated by Pixelmator Pro 1.5.1 -->
 <path id="Путь-1" d="M-143.727 194.648 C-172.045 156.437 -164.024 102.505 -125.813 74.188 L255.185 -208.157 C295.786 -238.245 353.09 -229.723 383.178 -189.122 L468.401 -74.122 C468.808 -73.572 469.322 -73.109 469.911 -72.76 475.329 -69.552 471.329 -61.288 465.451 -63.547 L463.729 -64.209 C461.144 -65.203 458.229 -64.035 457.046 -61.53 L397.829 63.844 C384.504 92.055 357.722 111.533 326.778 115.517 L56.3 150.34 C30.005 153.726 7.444 170.73 -3.053 195.076 -25.968 248.218 -97.857 256.546 -132.314 210.05 Z" fill="#ffffff" fill-opacity="0.72" stroke="none"/>
</svg>
