<?xml version="1.0" encoding="UTF-8"?>
<svg width="640px" height="480px" viewBox="0 0 640 480" xmlns="http://www.w3.org/2000/svg" xmlns:xlink="http://www.w3.org/1999/xlink" version="1.1">
 <!-- Generated by Pixelmator Pro 1.5.1 -->
 <path id="Путь-2" d="M716.025 483.098 C716.637 515.644 690.75 542.524 658.205 543.136 L-177.292 558.855 C-227.44 559.799 -268.857 519.911 -269.8 469.764 L-270.534 430.742 C-270.559 429.442 -271.141 428.216 -272.134 427.376 -276.31 423.841 -271.788 417.311 -267.01 419.976 L-253.97 427.247 C-252.698 427.956 -251.211 428.177 -249.789 427.867 L-13.07 376.28 C-1.116 373.675 11.24 373.494 23.265 375.747 L470.246 459.505 C482.754 461.848 495.612 461.558 508.001 458.651 L643.632 426.826 C680.177 418.251 715.319 445.568 716.025 483.098 Z" fill="#3454d1" fill-opacity="0.462" stroke="none"/>
 <path id="Путь-3" d="M779.947 370.292 C805.877 412.396 792.764 467.549 750.66 493.478 L272.83 787.744 C229.801 814.243 173.437 800.843 146.938 757.814 L72.005 636.136 C71.565 635.423 70.972 634.817 70.267 634.363 64.527 630.669 69.133 621.869 75.44 624.48 L78.72 625.837 C81.349 626.926 84.381 625.989 85.938 623.608 L176.735 484.746 C191.948 461.482 216.911 446.393 244.581 443.739 L559.003 413.58 C587.14 410.881 612.405 395.013 627.116 370.877 661.914 313.783 744.886 313.359 779.947 370.292 Z" fill="#4764d8" fill-opacity="0.716" stroke="none"/>
</svg>
