<svg width="31" height="29" viewBox="0 0 31 29" fill="none" xmlns="http://www.w3.org/2000/svg">
<path d="M14.5916 20.7517V15.3553H8.20361C8.26593 17.4716 8.55914 19.5014 9.06013 21.34C10.8068 21.0014 12.6732 20.8001 14.5916 20.7517Z" fill="white"/>
<path d="M12.8879 28.1069C13.4433 28.5493 14.0136 28.8473 14.5916 29.0001V22.4629C12.8509 22.5088 11.1618 22.6864 9.58203 22.9828C9.85205 23.7196 10.1589 24.4154 10.5016 25.0608C11.201 26.3779 12.0038 27.4027 12.8879 28.1069Z" fill="white"/>
<path d="M20.4982 25.0608C20.8409 24.4154 21.1477 23.7196 21.4178 22.9828C19.838 22.6864 18.1489 22.5088 16.4082 22.4629V29.0001C16.9863 28.8473 17.5565 28.5493 18.1119 28.1068C18.996 27.4027 19.7988 26.3779 20.4982 25.0608Z" fill="white"/>
<path d="M23.1937 5.6218C24.4739 5.28919 25.6565 4.87225 26.7044 4.37874C26.6302 4.30598 26.5556 4.23345 26.4796 4.16194C24.7335 2.51774 22.6446 1.31356 20.3647 0.608154C21.0034 1.31892 21.594 2.17732 22.1236 3.17462C22.5263 3.93294 22.8838 4.75257 23.1937 5.6218Z" fill="white"/>
<path d="M16.4082 15.3553V20.7517C18.3266 20.8001 20.193 21.0014 21.9396 21.34C22.4407 19.5014 22.7339 17.4716 22.7962 15.3553H16.4082Z" fill="white"/>
<path d="M10.5016 3.93942C10.1589 4.58479 9.85205 5.28056 9.58203 6.01739C11.1618 6.31378 12.8509 6.4914 14.5916 6.53731V0C14.0135 0.152874 13.4432 0.450866 12.8879 0.893293C12.0038 1.5975 11.201 2.62235 10.5016 3.93942Z" fill="white"/>
<path d="M14.5916 13.6448V8.2485C12.6732 8.20009 10.8068 7.9988 9.06013 7.66016C8.55908 9.4988 8.26593 11.5286 8.20361 13.6448H14.5916Z" fill="white"/>
<path d="M7.8071 23.3784C6.52675 23.711 5.34426 24.128 4.29639 24.6215C4.37057 24.6942 4.44511 24.7668 4.52111 24.8383C6.26726 26.4825 8.35617 27.6867 10.636 28.3921C9.99737 27.6813 9.40677 26.823 8.8772 25.8257C8.4745 25.0673 8.11697 24.2476 7.8071 23.3784Z" fill="white"/>
<path d="M23.7046 21.7401C25.2516 22.1438 26.6733 22.6627 27.9136 23.285C29.7532 20.9902 30.8235 18.2524 30.9998 15.3552H24.6135C24.5504 17.6031 24.2392 19.7684 23.7046 21.7401Z" fill="white"/>
<path d="M23.1937 23.3784C22.8838 24.2476 22.5263 25.0673 22.1236 25.8257C21.594 26.823 21.0033 27.6813 20.3647 28.3921C22.6446 27.6867 24.7335 26.4825 26.4796 24.8383C26.5556 24.7668 26.6302 24.6942 26.7044 24.6215C25.6565 24.128 24.474 23.711 23.1937 23.3784Z" fill="white"/>
<path d="M23.7046 7.2599C24.2393 9.23163 24.5504 11.3969 24.6135 13.6447H30.9998C30.8235 10.7475 29.7532 8.00973 27.9136 5.71497C26.6733 6.33729 25.2516 6.85624 23.7046 7.2599Z" fill="white"/>
<path d="M16.4082 8.2485V13.6448H22.7962C22.7339 11.5285 22.4407 9.4988 21.9396 7.66016C20.193 7.9988 18.3266 8.20009 16.4082 8.2485Z" fill="white"/>
<path d="M18.1119 0.893294C17.5565 0.450923 16.9863 0.152931 16.4082 0V6.53725C18.1488 6.49129 19.838 6.31373 21.4178 6.01733C21.1477 5.28056 20.8409 4.58473 20.4982 3.93936C19.7988 2.62235 18.996 1.59751 18.1119 0.893294Z" fill="white"/>
<path d="M7.8071 5.62149C8.11697 4.75226 8.4745 3.93264 8.8772 3.17425C9.40677 2.17695 9.99744 1.31856 10.636 0.607788C8.35617 1.3132 6.26733 2.51737 4.52111 4.16157C4.44511 4.23314 4.37057 4.30567 4.29639 4.37843C5.34426 4.87194 6.52681 5.28888 7.8071 5.62149Z" fill="white"/>
<path d="M7.29526 21.7402C6.76055 19.7684 6.44941 17.6032 6.38631 15.3553H0C0.176341 18.2525 1.24662 20.9903 3.08615 23.2851C4.32659 22.6628 5.74816 22.1438 7.29526 21.7402Z" fill="white"/>
<path d="M7.29526 7.25996C5.74822 6.85631 4.32659 6.33736 3.08615 5.71509C1.24662 8.00985 0.176341 10.7477 0 13.6448H6.38631C6.44935 11.397 6.76055 9.23164 7.29526 7.25996Z" fill="white"/>
</svg>
