<svg width="218" height="187" viewBox="0 0 218 187" fill="none" xmlns="http://www.w3.org/2000/svg">
<g clip-path="url(#clip0)">
<path opacity="0.15" d="M32.0512 135.968C49.7526 135.968 64.1024 129.014 64.1024 120.435C64.1024 111.857 49.7526 104.903 32.0512 104.903C14.3498 104.903 0 111.857 0 120.435C0 129.014 14.3498 135.968 32.0512 135.968Z" fill="#D6D8E5"/>
<path opacity="0.5" d="M31.6812 127.437C41.5544 127.437 49.5583 123.559 49.5583 118.775C49.5583 113.991 41.5544 110.113 31.6812 110.113C21.808 110.113 13.8042 113.991 13.8042 118.775C13.8042 123.559 21.808 127.437 31.6812 127.437Z" fill="#EDEFF9"/>
<path d="M31.5121 118.173C34.3274 118.173 36.6096 117.066 36.6096 115.701C36.6096 114.335 34.3274 113.228 31.5121 113.228C28.6968 113.228 26.4146 114.335 26.4146 115.701C26.4146 117.066 28.6968 118.173 31.5121 118.173Z" fill="#EDEFF9"/>
<path d="M36.5828 82.927H26.7798V115.263H36.5828V82.927Z" fill="#EDEFF9"/>
<path d="M26.312 82.5605C26.312 82.5605 26.5794 89.2102 32.2161 101.137C32.2161 101.137 37.4651 91.5328 38.0087 82.3585C38.5523 73.1843 26.312 82.5605 26.312 82.5605Z" fill="#FFBC00"/>
<path d="M19.4275 57.5249L6.38512 68.1764L4.83447 82.0855L20.6083 75.447L23.4779 58.4823L19.4275 57.5249Z" fill="#8C50FF"/>
<path d="M45.0045 57.5249L58.0424 68.1764L59.5976 82.0855L43.7658 74.987L40.9541 58.4823L45.0045 57.5249Z" fill="#8C50FF"/>
<path d="M32.0512 84.2397C35.6318 84.2397 38.5345 82.8332 38.5345 81.0981C38.5345 79.3631 35.6318 77.9566 32.0512 77.9566C28.4706 77.9566 25.5679 79.3631 25.5679 81.0981C25.5679 82.8332 28.4706 84.2397 32.0512 84.2397Z" fill="#424956"/>
<path d="M22.2217 77.9566V75.1291H41.8588V78.0613L22.2217 77.9566Z" fill="#494949"/>
<path d="M32.0514 82.7175C37.4802 82.7175 41.8811 80.5843 41.8811 77.9528C41.8811 75.3213 37.4802 73.188 32.0514 73.188C26.6226 73.188 22.2217 75.3213 22.2217 77.9528C22.2217 80.5843 26.6226 82.7175 32.0514 82.7175Z" fill="#2B303F"/>
<path d="M32.0202 79.475C38.645 79.475 44.0154 76.8729 44.0154 73.663C44.0154 70.4532 38.645 67.851 32.0202 67.851C25.3954 67.851 20.0249 70.4532 20.0249 73.663C20.0249 76.8729 25.3954 79.475 32.0202 79.475Z" fill="#EDEFF9"/>
<path d="M44.9734 63.3107C44.9734 63.7782 44.9734 64.2382 44.9734 64.6833C44.9734 65.0573 44.9734 65.4313 44.9734 65.8053C44.9734 66.3102 44.9423 66.7926 44.92 67.2639C44.92 67.8511 44.871 68.4083 44.8353 68.9431C44.7997 69.478 44.7685 70.0015 44.7239 70.484C44.5412 72.5971 44.5457 74.153 44.2338 74.7626C42.5361 78.0949 36.7924 76.2586 33.9585 75.0618C32.9114 74.6204 32.2207 74.2577 32.2207 74.2577H31.9622C31.9622 74.2577 31.1424 74.6317 29.9304 75.0356C26.9583 76.0454 21.6602 77.8368 20.1898 74.7514C19.9269 74.1978 19.664 72.369 19.5036 70.4541C19.4635 69.9754 19.4278 69.463 19.3922 68.9169C19.3565 68.3709 19.3387 67.8286 19.312 67.2414C19.312 66.7739 19.2808 66.2915 19.2674 65.7903C19.2674 65.4163 19.2674 65.0423 19.2674 64.6683V63.2957C19.1872 50.2469 20.8359 29.3814 26.281 20.4765C27.8539 17.8996 29.7432 16.3251 32.0023 16.2316H32.2608C34.4887 16.3288 36.4003 17.8959 37.9777 20.4615C43.3471 29.3328 45.0715 50.116 44.9734 63.3107Z" fill="#EDEFF9"/>
<path d="M32.0824 51.0061C34.5852 51.0061 36.6141 49.3032 36.6141 47.2026C36.6141 45.1019 34.5852 43.399 32.0824 43.399C29.5797 43.399 27.5508 45.1019 27.5508 47.2026C27.5508 49.3032 29.5797 51.0061 32.0824 51.0061Z" fill="#2B303F"/>
<path d="M32.0823 51.5633C31.0547 51.5633 30.0502 51.3076 29.1958 50.8284C28.3414 50.3492 27.6755 49.6682 27.2822 48.8713C26.889 48.0745 26.7861 47.1977 26.9866 46.3517C27.187 45.5058 27.6819 44.7288 28.4085 44.1189C29.1351 43.509 30.0608 43.0937 31.0687 42.9255C32.0765 42.7572 33.1212 42.8435 34.0705 43.1736C35.0199 43.5037 35.8314 44.0626 36.4023 44.7797C36.9731 45.4969 37.2779 46.34 37.2779 47.2025C37.2767 48.3588 36.7289 49.4674 35.7548 50.285C34.7807 51.1026 33.4599 51.5624 32.0823 51.5633ZM32.0823 43.9562C31.3171 43.9554 30.5689 44.1452 29.9323 44.5015C29.2957 44.8577 28.7992 45.3645 28.5058 45.9576C28.2124 46.5507 28.1352 47.2036 28.2839 47.8335C28.4326 48.4635 28.8006 49.0423 29.3414 49.4967C29.8821 49.9511 30.5713 50.2606 31.3216 50.3862C32.072 50.5117 32.8499 50.4477 33.5569 50.2021C34.2639 49.9565 34.8682 49.5404 35.2934 49.0065C35.7186 48.4725 35.9455 47.8447 35.9455 47.2025C35.9444 46.3425 35.5371 45.5179 34.813 44.9094C34.0889 44.3009 33.1069 43.9582 32.0823 43.9562Z" fill="#424956"/>
<path d="M32.0824 39.8235C34.5852 39.8235 36.6141 38.1206 36.6141 36.0199C36.6141 33.9192 34.5852 32.2163 32.0824 32.2163C29.5797 32.2163 27.5508 33.9192 27.5508 36.0199C27.5508 38.1206 29.5797 39.8235 32.0824 39.8235Z" fill="#2B303F"/>
<path d="M32.0824 40.392C31.0541 40.3927 30.0487 40.1375 29.1931 39.6587C28.3376 39.1799 27.6704 38.499 27.2759 37.7019C26.8814 36.9049 26.7772 36.0276 26.9767 35.1809C27.1761 34.3342 27.6701 33.5562 28.3963 32.9451C29.1224 32.3341 30.0481 31.9174 31.0564 31.7479C32.0646 31.5783 33.1101 31.6634 34.0607 31.9925C35.0113 32.3216 35.8243 32.8799 36.397 33.5967C36.9696 34.3136 37.2762 35.1568 37.278 36.0199C37.2792 37.1778 36.7326 38.2887 35.7583 39.1085C34.7841 39.9283 33.4619 40.39 32.0824 40.392ZM32.0824 32.7848C31.3171 32.7841 30.5687 32.9739 29.9319 33.3303C29.2952 33.6868 28.7988 34.1937 28.5055 34.7871C28.2122 35.3804 28.1352 36.0334 28.2843 36.6635C28.4334 37.2936 28.8019 37.8724 29.3431 38.3266C29.8842 38.7808 30.5738 39.0901 31.3245 39.2152C32.0752 39.3404 32.8532 39.2758 33.5601 39.0296C34.267 38.7834 34.871 38.3668 35.2957 37.8323C35.7203 37.2979 35.9465 36.6698 35.9457 36.0274C35.9462 35.6011 35.8468 35.1788 35.653 34.7848C35.4591 34.3907 35.1747 34.0326 34.816 33.7308C34.4572 33.429 34.0312 33.1895 33.5622 33.0259C33.0931 32.8623 32.5903 32.7778 32.0824 32.7773V32.7848Z" fill="#424956"/>
<path d="M44.9732 70.8318C44.9732 71.2993 44.9732 71.7594 44.9732 72.2082C44.5277 73.4424 43.3157 74.6242 41.3462 75.5742C36.2397 78.0463 27.9785 78.0463 22.8498 75.5742C20.8802 74.6167 19.6727 73.4311 19.2227 72.2082V70.8356C19.6682 72.0922 20.8713 73.289 22.8676 74.2577C27.9785 76.7298 36.2575 76.7298 41.364 74.2577C43.3201 73.2778 44.5589 72.0847 44.9732 70.8318Z" fill="#8C50FF"/>
<path d="M44.9333 73.0085C44.9333 73.5097 44.9021 73.9959 44.8799 74.4634C44.3808 75.6302 43.1955 76.741 41.3152 77.6461C36.2087 80.122 27.9475 80.122 22.8187 77.6461C20.9428 76.7335 19.7575 75.6153 19.254 74.4409C19.254 73.9734 19.2228 73.491 19.2095 72.9935C19.6551 74.2128 20.8715 75.3722 22.8143 76.3147C27.9252 78.7905 36.2042 78.7905 41.3107 76.3147C43.2624 75.3759 44.4655 74.2203 44.9333 73.0085Z" fill="#8C50FF"/>
<path d="M44.7952 69.1451C44.256 70.2409 43.0975 71.2844 41.3285 72.1371C36.2221 74.6093 27.9608 74.6093 22.8321 72.1371C21.0497 71.2694 19.8912 70.2222 19.3521 69.1152C19.3877 69.6612 19.4233 70.1736 19.4634 70.6523C20.0383 71.6846 21.1611 72.657 22.8321 73.4686C25.0116 74.4654 27.4162 75.0668 29.8902 75.2338C31.2234 75.3426 32.5655 75.3514 33.9005 75.26C36.4964 75.1222 39.0252 74.5108 41.3107 73.4686C42.9683 72.6645 44.0867 71.7033 44.666 70.6823L44.7952 69.1451Z" fill="#8C50FF"/>
<path d="M37.8974 20.469C34.0862 21.4508 30.0118 21.4508 26.2007 20.469C27.7736 17.8921 29.6629 16.3176 31.922 16.2241H32.1805C34.4307 16.3363 36.32 17.9034 37.8974 20.469Z" fill="#8C50FF"/>
<path d="M33.3255 57.5548H31.1021V82.0556H33.3255V57.5548Z" fill="#8C50FF"/>
<path opacity="0.4" d="M138.756 142.935L112.912 130.41C111.045 129.505 111.281 127.927 113.434 126.883L130.179 118.771L162.774 134.565L146.028 142.681C143.872 143.724 140.619 143.837 138.756 142.935Z" fill="#D6D8E5"/>
<path d="M140.641 142.004L114.797 129.475C112.935 128.574 113.166 126.995 115.318 125.952L132.068 117.84L164.663 133.634L147.936 141.746C145.761 142.793 142.504 142.905 140.641 142.004Z" fill="#B1B4C4"/>
<path d="M164.659 133.634V132.807L163.153 133.537L164.659 133.634Z" fill="#B1B4C4"/>
<path d="M113.536 127.983V127.141L115.082 127.68L113.536 127.983Z" fill="#B1B4C4"/>
<path d="M140.641 141.174L114.797 128.648C112.935 127.743 113.166 126.169 115.318 125.125L132.068 117.01L164.663 132.807L147.936 140.919C145.761 141.963 142.504 142.079 140.641 141.174Z" fill="#D6D8E5"/>
<path d="M132.148 117.047L128.116 105.812L161.067 121.677L164.658 132.807L132.148 117.047Z" fill="#9EA1AF"/>
<path d="M163.705 133.267L164.659 132.807L163.237 131.854L163.705 133.267Z" fill="#9EA1AF"/>
<path d="M131.11 117.47L127.078 106.235L160.029 122.1L163.701 133.267L131.11 117.47Z" fill="#B1B4C4"/>
<path d="M214.774 152.218L87.2062 90.3921C85.4239 89.5244 83.9668 87.1981 83.9668 85.1972V2.3824C83.9668 0.377759 85.4194 -0.542281 87.2062 0.325399L214.774 62.1364C216.556 63.0041 218.013 65.3303 218.013 67.3312V150.146C218 152.147 216.556 153.067 214.774 152.218Z" fill="#C4C7D6"/>
<path d="M215.416 153.056L216.829 152.371L216.218 148.856L215.416 153.056Z" fill="#C4C7D6"/>
<path d="M83.7397 0.836883L85.13 0.159943L87.1307 1.12112C87.1307 1.12112 85.0008 1.39414 84.9473 1.38292C84.8938 1.3717 83.7397 0.836883 83.7397 0.836883Z" fill="#B1B4C4"/>
<path d="M213.589 152.768L86.0387 90.9568C84.2564 90.0891 82.7993 87.7666 82.7993 85.7619V2.94714C82.7993 0.946241 84.2475 0.0262016 86.0387 0.893881L213.589 62.7049C215.371 63.5725 216.828 65.8988 216.828 67.8997V150.722C216.828 152.715 215.38 153.635 213.589 152.768Z" fill="#E4E7F2"/>
<path d="M213.366 152.876L85.8117 91.0653C84.0293 90.1976 82.5723 87.8713 82.5723 85.8704V3.05559C82.5723 1.05469 84.0249 0.134646 85.8117 1.00233L213.366 62.832C215.148 63.6959 216.605 66.0222 216.605 68.0269V150.819C216.605 152.824 215.153 153.744 213.366 152.876Z" fill="#D6D8E5"/>
<path d="M214.85 147.838L84.2163 84.524L84.2609 3.3884C84.2609 2.55812 84.956 2.22152 85.8115 2.6404L213.366 64.4476C213.815 64.6938 214.19 65.0251 214.459 65.4148C214.729 65.8045 214.885 66.2419 214.917 66.6916L214.85 147.838Z" fill="white"/>
<path d="M135.78 38.1779L93.9306 17.8996C93.7374 17.7828 93.5796 17.6295 93.4697 17.4522C93.3598 17.2749 93.3009 17.0785 93.2979 16.8786V14.4289C93.2979 14.0549 93.5786 13.8567 93.9306 14.025L135.78 34.3033C135.973 34.4208 136.13 34.5741 136.24 34.7513C136.35 34.9285 136.409 35.1246 136.413 35.3243V37.774C136.413 38.1667 136.128 38.35 135.78 38.1779Z" fill="#E9EAF2"/>
<path d="M125.033 38.7651L94.1221 23.7864C93.9281 23.6708 93.7694 23.5184 93.6587 23.3417C93.548 23.1649 93.4885 22.9688 93.4849 22.7691V21.5499C93.4849 21.1759 93.77 20.9739 94.1221 21.146L125.033 36.1247C125.224 36.2418 125.38 36.3947 125.488 36.5713C125.596 36.7479 125.654 36.9433 125.656 37.142V38.3612C125.656 38.7539 125.38 38.9372 125.033 38.7651Z" fill="#E9EAF2"/>
<path d="M125.033 43.384L94.1221 28.424C93.9281 28.3083 93.7694 28.1559 93.6587 27.9792C93.548 27.8025 93.4885 27.6063 93.4849 27.4067V26.18C93.4849 25.806 93.77 25.604 94.1221 25.776L125.033 40.766C125.225 40.8823 125.383 41.0348 125.493 41.2115C125.603 41.3882 125.662 41.584 125.665 41.7833V43.0025C125.656 43.384 125.38 43.5598 125.033 43.384Z" fill="#E9EAF2"/>
<path d="M119.2 45.1867L94.1221 33.0316C93.9281 32.916 93.7694 32.7636 93.6587 32.5869C93.548 32.4101 93.4885 32.214 93.4849 32.0144V30.7951C93.4849 30.4211 93.77 30.2192 94.1221 30.3912L119.2 42.5425C119.394 42.6591 119.552 42.8122 119.663 42.9895C119.773 43.1668 119.833 43.3634 119.837 43.5635V44.7827C119.837 45.1754 119.552 45.355 119.2 45.1867Z" fill="#8C50FF"/>
<path d="M135.78 86.7082L93.9306 66.4299C93.7374 66.313 93.5796 66.1598 93.4697 65.9825C93.3598 65.8052 93.3009 65.6087 93.2979 65.4089V62.9592C93.2979 62.5665 93.5786 62.3869 93.9306 62.5552L135.78 82.8335C135.973 82.951 136.13 83.1044 136.24 83.2815C136.35 83.4587 136.409 83.6549 136.413 83.8545V86.3042C136.413 86.6969 136.128 86.8765 135.78 86.7082Z" fill="#E9EAF2"/>
<path d="M125.033 87.2953L94.1221 72.3353C93.9283 72.2186 93.7698 72.0655 93.6591 71.8883C93.5485 71.711 93.4888 71.5144 93.4849 71.3143V70.0951C93.4849 69.7024 93.77 69.5228 94.1221 69.6949L125.033 84.6549C125.225 84.7723 125.382 84.9257 125.492 85.1029C125.602 85.2801 125.661 85.4762 125.665 85.6759V86.8951C125.656 87.2841 125.38 87.4636 125.033 87.2953Z" fill="#E9EAF2"/>
<path d="M125.033 91.918L94.1221 76.9392C93.9287 76.8232 93.7703 76.6707 93.6597 76.4941C93.549 76.3174 93.4892 76.1215 93.4849 75.922V74.7027C93.4849 74.3287 93.77 74.1305 94.1221 74.3025L125.033 89.2626C125.225 89.38 125.382 89.5334 125.492 89.7106C125.602 89.8878 125.661 90.0839 125.665 90.2836V91.5028C125.656 91.9067 125.38 92.0863 125.033 91.918Z" fill="#E9EAF2"/>
<path d="M119.2 93.7132L94.1221 81.5619C93.9281 81.4454 93.7693 81.2924 93.6587 81.115C93.548 80.9377 93.4885 80.741 93.4849 80.5409V79.3216C93.4849 78.9289 93.77 78.7494 94.1221 78.9215L119.2 91.0727C119.394 91.1894 119.552 91.3425 119.663 91.5198C119.773 91.6971 119.833 91.8936 119.837 92.0937V93.313C119.837 93.7057 119.552 93.874 119.2 93.7132Z" fill="#8C50FF"/>
<path d="M146.978 92.7296C146.978 92.7296 151.594 95.9834 158.26 91.5402C163.019 88.264 167.275 90.134 169.645 91.256C172.016 92.378 175.438 93.0662 181.957 102.947C181.957 102.947 184.078 106.044 187.58 107.742C191.082 109.44 192.767 108.61 195.52 105.124C198.274 101.638 200.079 97.7786 205.141 100.299V135.339L146.523 106.964V92.5014L146.978 92.7296Z" fill="#F5F6FF"/>
<path d="M134.238 77.8742L94.1352 58.4262C93.9415 58.3096 93.783 58.1565 93.6723 57.9792C93.5617 57.8019 93.502 57.6053 93.498 57.4052V37.9834C93.498 37.6094 93.7832 37.4112 94.1352 37.5795L134.238 57.0275C134.432 57.1442 134.591 57.2973 134.701 57.4745C134.812 57.6518 134.871 57.8484 134.875 58.0485V77.4778C134.875 77.863 134.59 78.0425 134.238 77.8742Z" fill="#E9EAF2"/>
<path d="M146.523 91.9143V106.957L205.141 135.358V100.318" stroke="#E9EAF2" stroke-width="0.31" stroke-miterlimit="10"/>
<path d="M169.56 91.4317V118.083" stroke="#E9EAF2" stroke-width="0.31" stroke-miterlimit="10"/>
<path d="M187.495 108.288V126.771" stroke="#E9EAF2" stroke-width="0.31" stroke-miterlimit="10"/>
<path d="M146.523 92.5014C156.923 97.9132 158.394 85.6797 169.725 91.17C181.057 96.6603 179.493 103.815 187.856 107.869C196.22 111.923 196.416 96.0881 205.141 100.318" stroke="#E9EAF2" stroke-width="1.53" stroke-miterlimit="10"/>
<path d="M170.535 92.8582C171.075 92.5969 171.074 91.7485 170.534 90.9632C169.994 90.1779 169.119 89.7531 168.579 90.0144C168.04 90.2757 168.041 91.1241 168.581 91.9094C169.121 92.6947 169.996 93.1195 170.535 92.8582Z" fill="#8C50FF"/>
<path d="M206.936 102.15C207.478 101.889 207.479 101.038 206.939 100.249C206.399 99.46 205.522 99.0323 204.98 99.2936C204.439 99.5548 204.437 100.406 204.978 101.195C205.518 101.984 206.395 102.412 206.936 102.15Z" fill="#8C50FF"/>
<path d="M189.217 109.823C189.758 109.561 189.76 108.71 189.219 107.921C188.679 107.132 187.802 106.705 187.261 106.966C186.719 107.227 186.718 108.078 187.258 108.867C187.798 109.656 188.675 110.084 189.217 109.823Z" fill="#8C50FF"/>
<path d="M147.501 93.9267C148.04 93.6654 148.04 92.817 147.5 92.0317C146.959 91.2464 146.084 90.8216 145.545 91.0829C145.006 91.3442 145.007 92.1926 145.547 92.9779C146.087 93.7632 146.962 94.188 147.501 93.9267Z" fill="#8C50FF"/>
<path d="M148.176 66.658L145.774 65.4949C145.581 65.3782 145.422 65.2251 145.311 65.0478C145.201 64.8705 145.141 64.674 145.137 64.4739V54.7499C145.137 54.3572 145.422 54.1776 145.774 54.3459L148.176 55.5128C148.37 55.6254 148.529 55.7743 148.642 55.9476C148.755 56.1209 148.818 56.314 148.827 56.5114V66.2541C148.827 66.6468 148.528 66.8263 148.176 66.658Z" fill="#E9EAF2"/>
<path d="M153.728 69.3396L151.327 68.1727C151.133 68.057 150.974 67.9047 150.863 67.7279C150.753 67.5512 150.693 67.3551 150.689 67.1554V47.3334C150.689 46.9594 150.975 46.7575 151.327 46.9295L153.728 48.0964C153.922 48.2131 154.081 48.3662 154.191 48.5434C154.302 48.7207 154.362 48.9173 154.366 49.1174V68.9394C154.348 69.3284 154.063 69.5079 153.728 69.3396Z" fill="#8C50FF"/>
<path d="M164.774 74.699L162.373 73.5359C162.178 73.4198 162.019 73.2669 161.908 73.0894C161.797 72.912 161.738 72.7151 161.735 72.5148V54.6227C161.735 54.23 162.021 54.0505 162.373 54.2188L164.774 55.3819C164.968 55.4986 165.127 55.6517 165.237 55.829C165.348 56.0063 165.408 56.2028 165.411 56.4029V74.2988C165.411 74.6915 165.126 74.871 164.774 74.699Z" fill="#E9EAF2"/>
<path d="M170.309 77.3806L167.907 76.2175C167.713 76.1008 167.555 75.9477 167.444 75.7704C167.334 75.5931 167.274 75.3966 167.27 75.1964V60.3711C167.27 59.9971 167.555 59.7989 167.907 59.9672L170.309 61.1341C170.503 61.2497 170.662 61.4021 170.772 61.5788C170.883 61.7556 170.943 61.9517 170.946 62.1513V76.9767C170.946 77.3731 170.661 77.5526 170.309 77.3806Z" fill="#8C50FF"/>
<path d="M181.328 82.7213L178.922 81.5582C178.729 81.4413 178.571 81.2881 178.461 81.1108C178.351 80.9334 178.292 80.737 178.289 80.5371V73.2105C178.289 72.8141 178.57 72.6345 178.922 72.8066L181.328 73.9697C181.52 74.0872 181.678 74.2406 181.787 74.4177C181.897 74.5949 181.957 74.791 181.961 74.9907V82.3174C181.961 82.7101 181.676 82.8896 181.328 82.7213Z" fill="#E9EAF2"/>
<path d="M186.858 85.4029L184.474 84.236C184.28 84.1204 184.121 83.968 184.011 83.7913C183.9 83.6145 183.841 83.4184 183.837 83.2188V58.2991C183.837 57.9027 184.122 57.7232 184.474 57.8952L186.876 59.0583C187.07 59.1748 187.229 59.3279 187.339 59.5052C187.45 59.6825 187.509 59.8792 187.513 60.0794V84.999C187.495 85.3917 187.21 85.5712 186.858 85.4029Z" fill="#8C50FF"/>
<path d="M200.355 91.9441L197.953 90.7772C197.759 90.6616 197.6 90.5092 197.49 90.3325C197.379 90.1557 197.32 89.9596 197.316 89.76V82.4295C197.316 82.0368 197.601 81.8573 197.953 82.0256L200.355 83.1925C200.549 83.3085 200.708 83.4615 200.819 83.6389C200.93 83.8164 200.989 84.0132 200.992 84.2135V91.5402C200.992 91.9329 200.707 92.1124 200.355 91.9441Z" fill="#E9EAF2"/>
<path d="M205.889 94.622L203.487 93.4551C203.293 93.339 203.134 93.1861 203.023 93.0086C202.912 92.8312 202.853 92.6343 202.85 92.4341V82.7101C202.85 82.3174 203.135 82.1378 203.487 82.3061L205.889 83.4693C206.083 83.5859 206.241 83.7391 206.352 83.9163C206.463 84.0936 206.522 84.2902 206.526 84.4903V94.233C206.526 94.622 206.241 94.794 205.889 94.622Z" fill="#8C50FF"/>
<path opacity="0.4" d="M46.7468 186.252L26.8557 176.625C24.601 175.529 24.8818 173.633 27.4885 172.362L37.5855 167.466C40.1878 166.206 44.1134 166.056 46.3814 167.178L66.2725 176.82C68.5272 177.912 68.2465 179.812 65.6398 181.08L55.5428 185.975C52.9405 187.217 49.0149 187.374 46.7468 186.252Z" fill="#D6D8E5"/>
<path d="M76.6411 174.235V150.931L34.1676 146.918V170.368C34.1408 171.086 34.6132 171.771 35.6826 172.279L55.5737 181.921C57.8284 183.013 61.7674 182.875 64.3696 181.614L74.4666 176.719C75.9326 176.008 76.6634 175.092 76.6188 174.235H76.6411Z" fill="#D6D8E5"/>
<path d="M76.6144 153.475V150.931H73.3482L55.2083 142.139C52.9536 141.043 49.0146 141.181 46.4124 142.442L36.3153 147.356C36.1357 147.442 35.9617 147.535 35.794 147.636L34.1676 146.937C34.1676 146.937 34.1676 149.626 34.1676 149.716C34.1408 150.427 34.6132 151.111 35.6826 151.62L55.5737 161.258C57.8284 162.35 61.7674 162.211 64.3696 160.951L74.4667 156.059C75.9772 155.311 76.6946 154.376 76.6099 153.493L76.6144 153.475Z" fill="#EDF0F9"/>
<path d="M55.574 158.468L35.6829 148.83C33.4282 147.737 33.7089 145.838 36.3156 144.566L46.4127 139.674C49.0149 138.41 52.9539 138.275 55.2086 139.367L75.0997 149.005C77.3544 150.097 77.0736 151.997 74.4669 153.269L64.3699 158.161C61.7677 159.425 57.8286 159.56 55.574 158.468Z" fill="#E2E5F2"/>
<path d="M51.091 145.31V144.383H50.4137L50.2043 144.27C49.5381 143.987 48.8015 143.839 48.0543 143.839C47.3072 143.839 46.5706 143.987 45.9044 144.27C45.777 144.333 45.6563 144.404 45.5434 144.484L45.0132 144.383V145.31C45.0381 145.535 45.1337 145.75 45.2904 145.933C45.447 146.117 45.6589 146.262 45.9044 146.354C46.5706 146.637 47.3072 146.785 48.0543 146.785C48.8015 146.785 49.5381 146.637 50.2043 146.354C50.4498 146.262 50.6615 146.117 50.8175 145.934C50.9734 145.75 51.0679 145.535 51.091 145.31Z" fill="#6E48E5"/>
<path d="M48.0521 145.856C49.7305 145.856 51.091 145.196 51.091 144.383C51.091 143.569 49.7305 142.909 48.0521 142.909C46.3738 142.909 45.0132 143.569 45.0132 144.383C45.0132 145.196 46.3738 145.856 48.0521 145.856Z" fill="#8C50FF"/>
<path d="M58.6305 149.226C58.4647 149.538 58.177 149.792 57.815 149.948C57.149 150.23 56.4134 150.377 55.6673 150.377C54.9213 150.377 54.1856 150.23 53.5196 149.948C53.1576 149.792 52.8699 149.538 52.7041 149.226C52.4813 148.747 52.7576 148.235 53.5196 147.861C54.1856 147.579 54.9213 147.432 55.6673 147.432C56.4134 147.432 57.149 147.579 57.815 147.861C58.5815 148.216 58.8533 148.729 58.6305 149.226Z" fill="#5E42D3"/>
<path d="M58.6306 149.226C58.4649 149.538 58.1771 149.792 57.8152 149.948C57.1491 150.23 56.4135 150.377 55.6674 150.377C54.9214 150.377 54.1858 150.23 53.5197 149.948C53.3017 149.935 53.0978 149.853 52.9489 149.718C52.8 149.584 52.7173 149.407 52.7173 149.224C52.7173 149.041 52.8 148.864 52.9489 148.73C53.0978 148.596 53.3017 148.514 53.5197 148.5C54.1858 148.218 54.9214 148.071 55.6674 148.071C56.4135 148.071 57.1491 148.218 57.8152 148.5C58.1779 148.657 58.4657 148.913 58.6306 149.226Z" fill="#8C50FF"/>
<path d="M65.7731 152.543V151.616H65.0958L64.8864 151.504C64.2202 151.22 63.4836 151.072 62.7365 151.072C61.9893 151.072 61.2527 151.22 60.5865 151.504C60.4602 151.566 60.3396 151.636 60.2256 151.713L59.6953 151.616V152.543C59.7202 152.768 59.8159 152.983 59.9725 153.166C60.1291 153.35 60.341 153.495 60.5865 153.587C61.2527 153.871 61.9893 154.019 62.7365 154.019C63.4836 154.019 64.2202 153.871 64.8864 153.587C65.1319 153.495 65.3436 153.35 65.4996 153.167C65.6556 152.983 65.75 152.768 65.7731 152.543Z" fill="#6E48E5"/>
<path d="M62.7342 153.089C64.4126 153.089 65.7731 152.43 65.7731 151.616C65.7731 150.802 64.4126 150.142 62.7342 150.142C61.0559 150.142 59.6953 150.802 59.6953 151.616C59.6953 152.43 61.0559 153.089 62.7342 153.089Z" fill="#8C50FF"/>
<path d="M29.0968 141.563C28.9765 142.434 27.76 146.197 28.0007 147.487C28.2413 148.777 32.5011 150.931 32.5011 150.931L33.0893 148.725L30.7455 146.795L31.3782 143.141L29.0968 141.563Z" fill="#FFCEA9"/>
<path d="M32.3717 137.856C31.9603 137.695 31.4928 137.667 31.0581 137.777C30.6234 137.886 30.252 138.126 30.0145 138.451C29.3907 139.319 28.7446 142.288 28.6777 142.797C28.6777 142.797 29.5689 143.81 30.8656 143.642L32.3717 137.856Z" fill="#EDEDED"/>
<path d="M37.2063 179.804C38.1281 180.017 39.1128 179.916 39.9467 179.524C40.6062 179.542 44.1931 178.252 44.6788 179.333C45.1244 180.283 43.5515 181.158 42.7227 181.326C40.9136 181.7 39.5768 182.448 38.8461 182.583C38.3069 182.677 37.6029 182.74 37.1751 182.381C36.6538 181.955 36.6983 180.369 37.2063 179.804Z" fill="#38226D"/>
<path d="M38.8461 182.317C39.5769 182.19 40.9137 181.431 42.7228 181.065C43.4179 180.922 44.6165 180.287 44.7368 179.524C44.8972 180.395 43.4981 181.169 42.7228 181.326C40.9137 181.7 39.5769 182.448 38.8461 182.583C38.307 182.676 37.603 182.74 37.1752 182.381C37.058 182.276 36.9751 182.147 36.9346 182.007C37.2019 182.181 37.5142 182.3 37.8462 182.354C38.1783 182.408 38.5208 182.395 38.8461 182.317Z" fill="#9C73FF"/>
<path d="M31.3959 177.613C32.3172 177.827 33.3018 177.727 34.1363 177.336C34.7957 177.336 38.3783 176.064 38.8684 177.145C39.314 178.091 37.7411 178.967 36.9123 179.139C35.1032 179.513 33.762 180.261 33.0357 180.391C32.492 180.485 31.7925 180.549 31.3602 180.193C30.8434 179.763 30.8879 178.177 31.3959 177.613Z" fill="#38226D"/>
<path d="M33.0356 180.13C33.7619 179.999 35.1031 179.243 36.9122 178.873C37.6073 178.735 38.806 178.095 38.9263 177.336C39.0867 178.207 37.6876 178.978 36.9122 179.139C35.1031 179.513 33.7619 180.261 33.0356 180.391C32.492 180.485 31.7924 180.549 31.3602 180.193C31.2472 180.086 31.1663 179.958 31.124 179.819C31.3922 179.992 31.7044 180.11 32.0362 180.164C32.368 180.217 32.7101 180.206 33.0356 180.13Z" fill="#9C73FF"/>
<path d="M31.3246 169.441C31.479 168.324 31.7549 167.221 32.149 166.146C32.149 166.146 31.9039 163.303 31.7791 160.607C31.641 157.547 30.3755 154.855 31.3736 152.416L42.6158 154.514C42.6158 154.514 41.9385 166.71 41.787 168.184C41.7055 169.334 41.5373 170.478 41.2835 171.61C40.7711 173.977 39.9468 179.61 39.9468 179.61C38.7615 180.189 37.1975 179.868 37.1975 179.868C37.1975 179.868 37.2866 172.762 37.3623 171.041C37.4559 168.958 37.5317 169.115 37.5317 169.115L37.1574 163.928L36.9168 161.347C36.9168 161.347 36.6048 163.24 36.3999 164.934C36.2261 166.408 35.8028 167.743 35.326 170.488C34.9161 172.87 34.2477 177.657 34.2477 177.657C33.058 178.237 31.4449 177.755 31.4449 177.755C31.4449 177.755 31.0038 171.505 31.3246 169.441Z" fill="#8C50FF"/>
<path d="M32.9737 137.905C33.8337 137.942 34.4709 138.126 34.5778 137.905C34.6671 137.534 34.7311 137.16 34.7695 136.783C34.6714 136.574 34.5868 136.349 34.5868 136.349C33.5129 135.796 33.1742 134.82 33.0317 133.683C32.791 131.742 34.0387 130.044 36.3513 129.842C38.5258 129.651 40.1299 130.934 40.5532 132.695C40.7849 133.563 41.2439 135.209 40.6245 136.637C40.2769 137.438 39.8313 138.073 39.3858 138.197C38.9546 138.185 38.5247 138.153 38.098 138.1C38.098 138.1 37.9821 138.638 37.9019 138.982C37.8217 139.326 37.8529 139.513 38.6728 139.936C39.4927 140.358 37.4296 141.245 36.0929 141.159C34.7561 141.073 33.2322 140.392 32.8133 139.663C32.3365 138.844 32.3766 137.883 32.9737 137.905Z" fill="#FFCEA9"/>
<path d="M34.2034 138.006C33.9672 138.503 34.5688 139.128 36.1774 139.532C37.7859 139.936 37.933 139.412 37.933 139.412C39.0015 139.814 40.0428 140.264 41.0521 140.762C42.019 141.331 42.4468 142.969 42.576 145.737C42.7275 148.938 42.7409 153.688 42.6117 154.507C42.6117 154.507 40.8293 156.003 38.4989 155.857C36.1685 155.711 32.3097 153.987 31.3695 152.659C31.3962 149.851 31.7883 149.394 31.2447 147.779C30.006 144.076 29.3554 142.543 29.9569 140.1C30.4515 138.07 31.1467 137.819 32.1047 137.838C32.8074 137.861 33.508 137.918 34.2034 138.006Z" fill="#F4F4F4"/>
<path d="M46.2121 148.392C44.3139 148.792 43.8727 147.79 43.6232 146.96C43.0172 144.947 42.6964 143.134 42.2463 141.993C41.7161 140.646 41.1591 140.433 40.3838 140.171C39.4926 139.861 38.6816 140.512 38.9846 142.225C39.3585 144.212 39.94 146.168 40.7224 148.07C40.9586 148.695 41.4844 149.806 42.2775 150.344C43.2534 151.006 44.7283 150.98 46.9562 150.516C47.9053 150.314 48.948 149.839 50.7437 149.136C51.2249 148.949 51.5992 148.822 52.5261 148.459C53.4567 148.111 54.272 147.576 54.9011 146.903C55.3867 146.313 55.4491 146.036 55.3466 145.901C55.2442 145.766 55.0035 145.77 54.7451 146.021C54.37 146.439 53.9081 146.798 53.3816 147.079C53.3816 147.079 53.9787 146.559 54.304 146.223C54.5946 145.923 54.8359 145.593 55.0214 145.239C55.1907 144.895 54.8387 144.428 54.5758 144.674C54.3129 144.921 54.1792 145.168 53.6846 145.662C53.4223 145.925 53.1231 146.161 52.7934 146.365C53.0977 146.02 53.3674 145.655 53.5999 145.273C53.8098 144.974 53.9134 144.632 53.8985 144.285C53.8985 144.106 53.5821 143.893 53.2969 144.233C53.0216 144.701 52.6806 145.139 52.281 145.538C51.8354 145.912 51.4789 146.129 51.47 146.025C51.4611 145.92 51.7285 145.714 51.8844 145.277C52.0404 144.839 51.8844 144.371 51.5948 144.323C51.3052 144.274 51.3631 144.285 51.1492 144.697C50.83 145.119 50.5427 145.557 50.2892 146.01C50.1401 146.431 49.8727 146.815 49.5094 147.132C49.0416 147.55 48.0122 148.01 46.2121 148.392Z" fill="#FFCEA9"/>
<path d="M39.6797 139.895C40.9452 139.738 41.8408 140.216 42.3978 141.824C42.9548 143.433 43.3469 144.738 43.3469 144.738C42.8471 145.344 42.0898 145.767 41.2304 145.92C39.7154 146.23 39.1718 145.621 39.1718 145.621C39.1718 145.621 38.7529 143.938 38.49 142.789C38.2271 141.641 38.1157 140.089 39.6797 139.895Z" fill="#EDEDED"/>
<path d="M40.4726 132.445C40.4726 132.445 42.4689 129.894 38.1377 129.374C35.0186 129 33.009 130.683 32.7907 132.512C32.5679 134.258 33.8512 136.072 34.7735 136.79C35.6827 136.985 36.6456 136.887 37.4738 136.517C37.5269 136.043 37.5477 135.566 37.5362 135.089C37.5362 135.089 35.9989 132.396 40.4726 132.445Z" fill="#3A2C6D"/>
<path opacity="0.4" d="M170.473 181.315C176.535 181.315 181.448 178.934 181.448 175.997C181.448 173.06 176.535 170.679 170.473 170.679C164.412 170.679 159.499 173.06 159.499 175.997C159.499 178.934 164.412 181.315 170.473 181.315Z" fill="#D6D8E5"/>
<path d="M170.38 124.68C170.825 124.07 174.301 123.666 175.442 126.131C175.887 127.066 175.807 129.456 176.168 130.955C176.529 132.455 177.38 133.308 177.687 134.523C177.995 135.739 177.496 137.781 173.998 138.144C170.5 138.506 167.813 137.474 166.989 136.539C166.164 135.604 166.147 133.615 166.989 132.545C167.831 131.475 168.499 130.611 168.477 129.22L170.38 124.68Z" fill="#3A2C6D"/>
<path d="M172.67 124.258C172.67 124.258 170.059 123.626 168.477 124.808C167.956 125.212 167.577 125.728 167.38 126.3C167.184 126.872 167.178 127.479 167.363 128.054C167.573 128.746 167.996 129.688 168.651 129.741C169.306 129.793 172.67 124.258 172.67 124.258Z" fill="#3A2C6D"/>
<path d="M173.668 130.231C173.668 130.231 173.495 132.669 173.548 132.849C173.601 133.028 174.689 133.223 174.996 133.417C175.304 133.612 173.414 136.106 172.456 136.473C171.498 136.839 168.526 135.9 168.317 134.662C168.13 133.518 169.168 132.632 169.569 132.321C169.841 132.3 170.115 132.293 170.389 132.302L170.478 131.121C171.779 130.773 173.668 130.231 173.668 130.231Z" fill="#FFCEA9"/>
<path d="M166.65 134.842C166.65 134.771 166.205 134.969 166.205 134.973C166.205 134.977 165.995 141.237 165.63 141.806C164.698 143.134 162.234 145.385 162.172 145.636C161.989 146.384 162.515 145.714 163.362 145.636C163.838 145.587 166.641 143.208 167.27 142.666L167.31 142.685V142.625L167.39 142.554C167.406 142.385 167.406 142.214 167.39 142.045C168.571 135.242 167.136 134.79 166.65 134.842Z" fill="#FFCEA9"/>
<path d="M174.065 133.088C174.885 133.193 175.816 133.559 175.945 133.933C176.282 135.286 176.203 136.69 175.713 138.01C175.005 139.581 174.528 140.579 174.118 141.256C174.118 141.256 170.585 142.528 167.733 141.043C167.733 141.043 167.537 139.36 167.523 138.459C164.894 136.532 167.145 134.158 169.373 132.314C169.639 132.293 169.908 132.293 170.175 132.314C170.175 132.314 168.187 134.288 169.569 135.41C172.532 134.64 173.12 133.518 174.065 133.088Z" fill="#F4F4F4"/>
<path d="M168.236 127.205C168.526 125.638 169.876 124.452 171.801 124.546C172.577 124.581 173.32 124.82 173.925 125.229C174.53 125.638 174.966 126.196 175.172 126.825C175.378 127.454 175.343 128.121 175.072 128.732C174.802 129.343 174.309 129.867 173.664 130.231C173.597 130.468 173.497 130.698 173.365 130.915C172.683 131.581 170.87 132.003 170.273 132.011C169.756 132.011 169.31 131.611 168.825 130.937C167.818 129.535 168.076 127.979 168.236 127.205Z" fill="#FFCEA9"/>
<path d="M172.403 124.576C173.739 124.796 174.862 125.118 175.232 126.229C175.482 126.999 175.811 128.473 175.499 129.075L175.303 129.52L173.668 130.23C173.668 130.23 172.902 129.696 173.142 128.129C173.133 127.917 173.053 127.712 172.911 127.538C172.808 127.389 172.732 127.229 172.683 127.063C172.489 126.639 172.11 126.294 171.623 126.098C170.406 125.526 168.624 126.019 168.375 126.229C168.719 125.608 169.307 125.105 170.04 124.804C170.773 124.503 171.607 124.423 172.403 124.576Z" fill="#3A2C6D"/>
<path d="M174.862 174.168C174.176 174.636 173.111 174.314 173.08 174.355C172.282 174.93 171.445 175.467 170.576 175.963C170.13 176.244 169.484 176.621 169.605 177.16C169.818 178.129 171.663 177.833 172.358 177.534C173.053 177.235 173.624 176.749 174.283 176.412C174.751 176.169 175.214 176.038 175.29 175.544C175.313 175.234 174.983 174.157 174.862 174.168Z" fill="#38226D"/>
<path d="M175.264 175.335C175.17 175.814 174.716 175.945 174.248 176.188C173.579 176.535 172.991 177.04 172.296 177.336C171.601 177.631 170.046 177.878 169.596 177.19C169.841 178.121 171.654 177.829 172.341 177.534C173.027 177.239 173.606 176.749 174.265 176.412C174.733 176.169 175.197 176.038 175.273 175.544C175.276 175.474 175.273 175.404 175.264 175.335Z" fill="#9C73FF"/>
<path d="M170.063 173.364C169.435 173.794 168.49 173.551 168.446 173.592C167.714 174.114 166.949 174.604 166.156 175.058C165.763 175.316 165.153 175.66 165.264 176.154C165.46 177.04 167.149 176.767 167.791 176.498C168.432 176.229 168.945 175.776 169.551 175.462C169.996 175.238 170.402 175.122 170.469 174.665C170.513 174.389 170.175 173.353 170.063 173.364Z" fill="#38226D"/>
<path d="M170.464 174.482C170.38 174.92 169.961 175.039 169.533 175.26C168.923 175.582 168.384 176.042 167.751 176.315C167.118 176.588 165.692 176.812 165.278 176.18C165.501 177.033 167.163 176.767 167.795 176.498C168.428 176.229 168.949 175.776 169.555 175.462C170.001 175.238 170.407 175.122 170.473 174.665C170.479 174.604 170.476 174.543 170.464 174.482Z" fill="#9C73FF"/>
<path d="M166.374 146.66C166.677 144.678 167.546 141.798 167.546 141.798C168.368 142.12 169.256 142.305 170.162 142.341C171.49 142.337 172.814 142.229 174.118 142.019C174.544 142.643 175.009 143.248 175.513 143.829C176.195 144.622 177.518 146.357 177.198 149.391C176.988 151.373 175.665 159.791 175.665 159.791C176.18 161.207 176.455 162.676 176.48 164.156C176.355 165.916 176.078 167.666 175.651 169.392L174.863 174.168C174.863 174.168 173.811 174.808 173.08 174.355L173.174 169.68C173.085 168.536 172.947 166.849 172.862 165.772C172.719 164.014 172.345 161.228 172.238 160.536C172.131 159.844 171.864 158.621 171.735 157.26C171.605 155.898 170.999 148.968 170.999 148.968L170.915 150.266C170.915 150.266 170.83 152.371 170.469 154.971C170.108 157.57 169.983 158.711 169.983 158.711C170.325 159.235 170.565 159.802 170.692 160.39C170.754 160.951 171.516 165.394 171.062 167.653L170.122 173.401C169.888 173.537 169.62 173.624 169.339 173.656C169.057 173.687 168.771 173.661 168.504 173.581L167.952 167.788C167.582 165.585 166.797 160.913 166.677 160.308C166.41 159.084 166.252 157.845 166.205 156.601C166.009 154.088 166.071 148.639 166.374 146.66Z" fill="#FFCEA9"/>
<path d="M174.118 141.256L176.15 144.678C176.15 144.678 179.269 148.485 176.039 158.273L176.64 161.295C176.64 161.295 170.562 164.567 166.494 161.295C166.494 161.295 165.086 152.248 165.835 148.078C166.253 145.681 166.886 143.315 167.728 140.998C167.728 140.998 168.726 141.922 173.851 141.312" fill="#8C50FF"/>
<path d="M169.372 132.314C169.372 132.314 167.759 131.899 166.044 134.902L166.686 135.223C166.686 135.223 168.374 133.084 169.372 132.314Z" fill="#EDEDED"/>
<path d="M156.776 148.586L163.718 145.202L168.7 147.614L161.758 151.002L156.776 148.586Z" fill="#F4F4F4"/>
<path d="M162.822 145.449C162.387 145.485 161.966 145.6 161.588 145.785C161.449 145.887 161.3 145.978 161.143 146.058C161.076 146.084 161.009 146.122 160.938 146.148C160.831 146.181 160.735 146.233 160.657 146.301C160.579 146.397 160.538 146.511 160.537 146.627C160.501 146.765 160.492 146.908 160.51 147.049C160.572 147.259 160.831 147.24 160.955 147.094C161.023 147.021 161.062 146.932 161.067 146.84C161.071 146.751 161.099 146.665 161.15 146.588C161.201 146.51 161.274 146.444 161.361 146.395L163.019 145.531C162.999 145.502 162.97 145.479 162.935 145.465C162.901 145.45 162.861 145.444 162.822 145.449Z" fill="#FFCEA9"/>
<path d="M176.03 135.014C175.803 134.221 175.063 134.475 174.426 134.012C172.951 135.766 173.931 140.508 174.132 141.013L168.464 144.046L168.081 144.244C167.435 144.6 166.723 144.861 165.973 145.015C165.407 145.071 165.113 145.74 164.507 145.8C164.461 145.802 164.416 145.814 164.378 145.837C164.341 145.859 164.312 145.891 164.295 145.927C164.278 145.963 164.275 146.003 164.285 146.041C164.295 146.079 164.318 146.113 164.351 146.14C164.592 146.335 165.242 146.174 165.688 145.74C165.686 145.75 165.686 145.76 165.688 145.77C165.691 145.84 165.716 145.907 165.76 145.966C165.804 146.025 165.865 146.073 165.937 146.107C165.97 146.123 166.006 146.134 166.044 146.137C166.044 146.169 166.055 146.2 166.075 146.227C166.108 146.281 166.155 146.329 166.214 146.365C166.273 146.401 166.342 146.424 166.414 146.432C166.446 146.509 166.507 146.575 166.587 146.62C166.667 146.665 166.763 146.687 166.86 146.683C166.99 146.677 167.112 146.631 167.203 146.552C167.686 146.397 168.113 146.139 168.442 145.804C168.732 145.551 169.038 145.311 169.359 145.086C170.897 144.529 175.509 142.875 175.714 142.64C176.034 142.285 176.36 136.136 176.03 135.014Z" fill="#FFCEA9"/>
<path d="M176.547 137.142C176.547 137.142 174.733 137.823 173.227 137.187L173.445 134.805C173.445 134.805 173.468 133.525 174.827 133.398C176.186 133.271 176.899 134.733 176.547 137.142Z" fill="#EDEDED"/>
</g>
<defs>
<clipPath id="clip0">
<rect width="218" height="187" fill="white"/>
</clipPath>
</defs>
</svg>
