<svg width="266" height="172" viewBox="0 0 266 172" fill="none" xmlns="http://www.w3.org/2000/svg">
<path opacity="0.4" d="M70.1105 170.099L3.79137 136.794C-1.82655 133.976 -1.12431 129.05 5.38737 125.793L165.567 45.379C172.058 42.141 181.868 41.7663 187.486 44.588L253.805 77.8936C259.423 80.7153 258.715 85.6417 252.209 88.8983L92.0342 169.303C85.5385 172.565 75.7284 172.916 70.1105 170.099Z" fill="#D6D8E5"/>
<path d="M78.5108 165.714L12.1917 132.408C6.57376 129.587 7.28132 124.66 13.7877 121.404L173.962 40.9938C180.453 37.7558 190.263 37.3857 195.881 40.2028L262.2 73.5084C267.818 76.3255 267.115 81.2519 260.604 84.5084L100.429 164.923C93.9388 168.179 84.1287 168.536 78.5108 165.714Z" fill="#B1B4C4"/>
<path d="M8.39844 127.574V122.264L15.5592 124.614L8.39844 127.574Z" fill="#B1B4C4"/>
<path d="M265.998 78.0971V72.9903L260.301 76.1821L265.998 78.0971Z" fill="#B1B4C4"/>
<path d="M78.5108 161.222L12.1917 127.917C6.57376 125.1 7.28132 120.173 13.7877 116.917L173.962 36.5022C180.453 33.2642 190.263 32.8895 195.881 35.7112L262.2 69.0167C267.818 71.8384 267.115 76.7649 260.604 80.0214L100.429 160.431C93.9388 163.688 84.1287 164.039 78.5108 161.222Z" fill="#616E84"/>
<path d="M20.1966 134.746C20.5376 134.575 20.5389 134.021 20.1995 133.51C19.8602 132.999 19.3087 132.724 18.9677 132.895C18.6267 133.066 18.6254 133.619 18.9648 134.13C19.3042 134.641 19.8557 134.917 20.1966 134.746Z" fill="#757B89"/>
<path d="M23.3868 136.349C23.7278 136.178 23.7291 135.625 23.3897 135.114C23.0504 134.603 22.4989 134.327 22.1579 134.498C21.8169 134.67 21.8156 135.223 22.155 135.734C22.4943 136.245 23.0459 136.52 23.3868 136.349Z" fill="#757B89"/>
<path d="M26.5846 137.952C26.9255 137.781 26.9268 137.228 26.5875 136.717C26.2481 136.206 25.6966 135.93 25.3557 136.101C25.0147 136.272 25.0134 136.826 25.3527 137.337C25.6921 137.848 26.2436 138.123 26.5846 137.952Z" fill="#757B89"/>
<path d="M29.7745 139.556C30.1155 139.384 30.1168 138.831 29.7774 138.32C29.4381 137.809 28.8866 137.534 28.5456 137.705C28.2046 137.876 28.2033 138.429 28.5427 138.94C28.882 139.451 29.4336 139.727 29.7745 139.556Z" fill="#757B89"/>
<path d="M57.4097 153.924C57.7522 153.753 57.7548 153.198 57.4154 152.685C57.0761 152.171 56.5233 151.894 56.1808 152.065C55.8382 152.236 55.8356 152.791 56.175 153.305C56.5144 153.818 57.0671 154.096 57.4097 153.924Z" fill="#757B89"/>
<path d="M60.3746 154.918C60.7156 154.747 60.7169 154.194 60.3775 153.683C60.0382 153.172 59.4867 152.896 59.1457 153.067C58.8047 153.238 58.8034 153.792 59.1428 154.303C59.4821 154.814 60.0337 155.089 60.3746 154.918Z" fill="#757B89"/>
<path d="M63.567 156.521C63.908 156.35 63.9093 155.797 63.5699 155.286C63.2306 154.775 62.679 154.499 62.3381 154.67C61.9971 154.841 61.9958 155.394 62.3352 155.905C62.6745 156.417 63.226 156.692 63.567 156.521Z" fill="#757B89"/>
<path d="M66.7569 158.124C67.0979 157.953 67.0992 157.4 66.7598 156.889C66.4205 156.378 65.869 156.103 65.528 156.274C65.187 156.445 65.1857 156.998 65.5251 157.509C65.8645 158.02 66.416 158.296 66.7569 158.124Z" fill="#757B89"/>
<path d="M47.2504 148.871L38.483 144.472C38.1768 144.282 37.9262 144.031 37.7516 143.741C37.5769 143.451 37.4831 143.13 37.4775 142.802C37.4775 142.155 37.9244 141.877 38.483 142.141L47.2504 146.54C47.5571 146.731 47.8078 146.982 47.9824 147.273C48.1571 147.564 48.2507 147.886 48.2559 148.215C48.2559 148.858 47.809 149.154 47.2504 148.871Z" fill="#757B89"/>
<path d="M245.926 90.7347L237.77 94.8285C237.238 95.0876 236.834 94.8285 236.834 94.2133C236.84 93.9093 236.927 93.6107 237.09 93.3416C237.253 93.0725 237.486 92.8403 237.77 92.6637L245.926 88.5699C246.458 88.3108 246.857 88.5699 246.857 89.1851C246.852 89.4887 246.765 89.7872 246.604 90.0564C246.442 90.3255 246.21 90.5579 245.926 90.7347Z" fill="#757B89"/>
<path d="M233.435 97.0073L225.279 101.101C224.747 101.36 224.343 101.101 224.343 100.486C224.349 100.181 224.436 99.882 224.599 99.6121C224.761 99.3422 224.994 99.1091 225.279 98.9316L233.435 94.8285C233.967 94.5695 234.366 94.8285 234.366 95.4437C234.363 95.7497 234.277 96.0508 234.116 96.3225C233.954 96.5942 233.72 96.8288 233.435 97.0073Z" fill="#757B89"/>
<path d="M78.5108 160.403L12.1917 127.098C6.57376 124.276 7.28132 119.35 13.7877 116.093L173.962 35.6834C180.453 32.4454 190.263 32.0753 195.881 34.8924L262.2 68.198C267.818 71.0151 267.115 75.9415 260.604 79.1981L100.429 159.612C93.9388 162.869 84.1287 163.225 78.5108 160.403Z" fill="#20232D"/>
<path d="M255.087 69.5163L229.195 56.5179L229.131 56.5503C226.072 58.086 221.114 58.086 218.055 56.5503C214.996 55.0145 214.996 52.5212 218.055 50.9993L218.118 50.9716L192.226 37.9732C188.294 35.998 181.916 35.998 177.984 37.9732L21.954 116.287C18.0225 118.258 18.0225 121.459 21.954 123.434L84.8098 154.991C88.7466 156.966 95.12 156.966 99.0514 154.991L255.087 76.6631C259.019 74.6879 259.019 71.4869 255.087 69.5163Z" fill="white"/>
<path opacity="0.5" d="M255.087 76.6631L99.0564 154.991C95.5027 156.777 89.9433 156.943 86.0065 155.5C85.5983 155.354 85.202 155.184 84.8201 154.991L21.959 123.434C21.0899 123.029 20.3357 122.46 19.7512 121.769C18.2669 119.919 19.0011 117.768 21.959 116.287L177.984 37.9547C181.915 35.9841 188.289 35.9841 192.226 37.9547L218.118 50.9577L218.054 50.9901C214.995 52.5259 214.995 55.0099 218.054 56.541C221.113 58.0722 226.077 58.0814 229.13 56.541L229.189 56.5133L255.087 69.5117C259.018 71.4915 259.018 74.6879 255.087 76.6631Z" fill="url(#paint0_linear)"/>
<path d="M221.89 56.1155C223.532 56.1155 224.864 55.4465 224.864 54.6213C224.864 53.7962 223.532 53.1272 221.89 53.1272C220.247 53.1272 218.916 53.7962 218.916 54.6213C218.916 55.4465 220.247 56.1155 221.89 56.1155Z" fill="#2B303F"/>
<path opacity="0.1" d="M221.012 55.0469C220.902 55.0189 220.805 54.9604 220.736 54.8804C220.667 54.8003 220.629 54.7029 220.629 54.6028C220.629 54.5027 220.667 54.4053 220.736 54.3253C220.805 54.2452 220.902 54.1868 221.012 54.1587C221.286 54.0402 221.587 53.9785 221.893 53.9785C222.198 53.9785 222.5 54.0402 222.773 54.1587C222.884 54.1868 222.981 54.2452 223.05 54.3253C223.119 54.4053 223.156 54.5027 223.156 54.6028C223.156 54.7029 223.119 54.8003 223.05 54.8804C222.981 54.9604 222.884 55.0189 222.773 55.0469C222.5 55.1654 222.198 55.2271 221.893 55.2271C221.587 55.2271 221.286 55.1654 221.012 55.0469Z" fill="white"/>
<path d="M189.087 98.1776L133.594 70.3119C130.37 68.6929 130.774 65.8666 134.498 63.9978L171.834 45.2634C175.558 43.4131 181.197 43.1864 184.421 44.8008L239.93 72.6665C243.154 74.2855 242.75 77.1118 239.026 78.9853L201.695 97.7243C197.945 99.5931 192.311 99.7966 189.087 98.1776Z" fill="#E9EAF2"/>
<path d="M190.864 65.8203L170.882 68.5079L174.09 62.499L142.766 66.7131L151.522 71.1076L165.695 78.222L180.325 85.5677L190.864 65.8203Z" fill="#DADCE5"/>
<path d="M216.538 79.4016C222.012 79.4016 226.449 77.1732 226.449 74.4243C226.449 71.6754 222.012 69.4469 216.538 69.4469C211.064 69.4469 206.627 71.6754 206.627 74.4243C206.627 77.1732 211.064 79.4016 216.538 79.4016Z" fill="#DADCE5"/>
<path d="M132.429 126.617L76.9361 98.7604C73.7122 97.1414 74.1165 94.3151 77.8405 92.4416L115.166 73.7026C118.89 71.8523 124.529 71.6303 127.753 73.2401L183.246 101.096C186.47 102.72 186.065 105.546 182.341 107.415L145.011 126.154C141.287 128.037 135.658 128.236 132.429 126.617Z" fill="#E9EAF2"/>
<path d="M125.683 135.868L88.3529 154.603C87.6106 154.975 86.824 155.276 86.0068 155.5C85.5986 155.354 85.2022 155.184 84.8204 154.991L21.9593 123.434C21.0902 123.029 20.336 122.46 19.7515 121.769C20.1931 121.433 20.6726 121.137 21.1825 120.885L58.5183 102.147C62.2423 100.296 67.8815 100.074 71.1054 101.684L126.614 129.55C129.806 131.169 129.407 133.995 125.683 135.868Z" fill="#E9EAF2"/>
<path d="M77.5478 122.703L57.5659 125.391L60.7739 119.382L29.4497 123.596L38.2117 127.995L52.3789 135.11L67.0089 142.451L77.5478 122.703Z" fill="#DADCE5"/>
<path d="M103.222 136.289C108.696 136.289 113.133 134.061 113.133 131.312C113.133 128.563 108.696 126.335 103.222 126.335C97.7484 126.335 93.311 128.563 93.311 131.312C93.311 134.061 97.7484 136.289 103.222 136.289Z" fill="#DADCE5"/>
<path d="M232.551 65.3855L231.429 64.8212L233.307 63.8775L234.429 64.4418L232.551 65.3855Z" fill="#E9EAF2"/>
<path d="M234.057 66.1395L232.929 65.5751L235.557 64.2568L236.685 64.8212L234.057 66.1395Z" fill="#E9EAF2"/>
<path d="M235.557 66.8935L234.429 66.3291L238.185 64.4418L239.313 65.0062L235.557 66.8935Z" fill="#E9EAF2"/>
<path d="M237.057 67.6475L235.935 67.0832L241.191 64.4418L242.319 65.0062L237.057 67.6475Z" fill="#E9EAF2"/>
<path d="M241.941 70.0992L240.191 69.2203L243.691 67.4579L245.447 68.3367L241.941 70.0992Z" fill="#E9EAF2"/>
<path d="M244.277 71.2695L242.526 70.3906L246.032 68.6328L247.783 69.5117L244.277 71.2695Z" fill="#E9EAF2"/>
<path d="M246.612 72.4444L244.862 71.5655L248.368 69.8031L250.118 70.6866L246.612 72.4444Z" fill="#E9EAF2"/>
<path d="M161.897 28.2452L107.005 0.689489C105.515 -0.0552596 104.164 -0.17553 103.132 0.226912C102.989 0.283088 102.852 0.349626 102.722 0.42582L96.9927 3.20128L101.164 8.28963V44.3059C101.164 47.5439 103.781 51.4851 107.016 53.0948L128.519 63.8868L131.136 69.7569L128.391 80.1417L134.461 77.209L140.393 69.8494L159.013 79.2027L159.668 84.0551L165.679 81.1409C166.929 80.6783 167.727 79.4987 167.727 77.7132V37.0434C167.738 33.8054 165.126 29.8642 161.897 28.2452Z" fill="#EDEEF7"/>
<path d="M155.826 31.1779L100.935 3.62223C97.7106 2.00321 95.0825 3.31693 95.0825 6.55497V47.2617C95.0825 50.4998 97.7 54.4409 100.935 56.0507L122.438 66.8426L128.38 80.1648L134.323 72.8099L155.826 83.6064C159.056 85.2254 161.678 83.9117 161.678 80.6737V39.9762C161.668 36.7381 159.066 32.797 155.826 31.1779Z" fill="#F8F9FF"/>
<path d="M140.063 44.6019C139.712 40.559 136.983 36.3819 133.573 34.6658C131.301 33.5278 129.216 33.7082 128.045 35.0913C126.886 32.5148 124.891 30.3083 122.651 29.1842C119.241 27.4727 116.512 28.9113 116.16 32.6027C116.074 33.4856 116.144 34.3749 116.368 35.2394C116.958 37.8066 118.087 40.2575 119.698 42.4694L128.051 54.2744L136.563 50.93C138.238 50.2454 139.388 48.8993 139.882 47.0351C140.099 46.2386 140.16 45.416 140.063 44.6019Z" fill="#FF5757"/>
<path opacity="0.05" d="M129.716 106.194C138.765 106.194 146.101 102.512 146.101 97.9694C146.101 93.4271 138.765 89.7448 129.716 89.7448C120.666 89.7448 113.33 93.4271 113.33 97.9694C113.33 102.512 120.666 106.194 129.716 106.194Z" fill="black"/>
<defs>
<linearGradient id="paint0_linear" x1="138.52" y1="156.472" x2="138.52" y2="36.4791" gradientUnits="userSpaceOnUse">
<stop offset="0.21" stop-color="white" stop-opacity="0"/>
<stop offset="1" stop-color="white" stop-opacity="0.2"/>
</linearGradient>
</defs>
</svg>
