<svg width="17" height="28" viewBox="0 0 17 28" fill="none" xmlns="http://www.w3.org/2000/svg">
<path d="M16.5384 12.9074L3.66127 0.447313C3.36344 0.158893 2.96586 0 2.54193 0C2.118 0 1.72042 0.158893 1.42259 0.447313L0.474274 1.3647C-0.1428 1.96249 -0.1428 2.93406 0.474274 3.53093L11.2875 13.9942L0.462276 24.4691C0.164443 24.7575 0 25.142 0 25.552C0 25.9624 0.164443 26.3469 0.462276 26.6355L1.41059 27.5527C1.70866 27.8411 2.106 28 2.52993 28C2.95386 28 3.35144 27.8411 3.64928 27.5527L16.5384 15.0812C16.837 14.7918 17.0009 14.4055 17 13.9949C17.0009 13.5826 16.837 13.1965 16.5384 12.9074Z" fill="#777777" fill-opacity="0.74"/>
</svg>
