<?xml version="1.0" encoding="UTF-8"?>
<svg width="512px" height="512px" viewBox="0 0 512 512" xmlns="http://www.w3.org/2000/svg" xmlns:xlink="http://www.w3.org/1999/xlink" version="1.1">
 <!-- Generated by Pixelmator Pro 1.5.1 -->
 <g id="group">
  <g id="group-1">
   <path id="Путь" d="M437.333 192 L405.333 192 405.333 149.333 C405.333 66.99 338.344 0 256 0 173.656 0 106.667 66.99 106.667 149.333 L106.667 192 74.667 192 C68.771 192 64 196.771 64 202.667 L64 469.334 C64 492.865 83.135 512 106.667 512 L405.334 512 C428.865 512 448 492.865 448 469.333 L448 202.667 C448 196.771 443.229 192 437.333 192 Z M287.938 414.823 C288.271 417.833 287.303 420.854 285.282 423.115 283.261 425.375 280.365 426.667 277.334 426.667 L234.667 426.667 C231.636 426.667 228.74 425.375 226.719 423.115 224.698 420.855 223.729 417.834 224.063 414.823 L230.792 354.313 C219.865 346.365 213.334 333.792 213.334 320 213.334 296.469 232.469 277.333 256.001 277.333 279.533 277.333 298.668 296.468 298.668 320 298.668 333.792 292.137 346.365 281.21 354.313 Z M341.333 192 L170.667 192 170.667 149.333 C170.667 102.281 208.948 64 256 64 303.052 64 341.333 102.281 341.333 149.333 Z" fill="#000000" fill-opacity="1" stroke="none"/>
  </g>
 </g>
 <g id="group-2"/>
 <g id="group-3"/>
 <g id="group-4"/>
 <g id="group-5"/>
 <g id="group-6"/>
 <g id="group-7"/>
 <g id="group-8"/>
 <g id="group-9"/>
 <g id="group-10"/>
 <g id="group-11"/>
 <g id="group-12"/>
 <g id="group-13"/>
 <g id="group-14"/>
 <g id="group-15"/>
 <g id="group-16"/>
</svg>
