<svg width="24" height="28" viewBox="0 0 24 28" fill="none" xmlns="http://www.w3.org/2000/svg">
<path d="M23.3333 10.5H21.3333V8.16665C21.3333 3.66352 17.1465 0 12 0C6.8535 0 2.66669 3.66352 2.66669 8.16665V10.5H0.666687C0.298187 10.5 0 10.7609 0 11.0834V25.6667C0 26.9536 1.19594 28 2.66669 28H21.3334C22.8041 28 24 26.9536 24 25.6666V11.0834C24 10.7609 23.7018 10.5 23.3333 10.5ZM13.9961 22.6856C14.0169 22.8502 13.9564 23.0155 13.8301 23.1391C13.7038 23.2627 13.5228 23.3334 13.3334 23.3334H10.6667C10.4773 23.3334 10.2962 23.2627 10.1699 23.1391C10.0436 23.0155 9.98306 22.8503 10.0039 22.6856L10.4245 19.3765C9.74156 18.9418 9.33337 18.2542 9.33337 17.5C9.33337 16.2131 10.5293 15.1666 12.0001 15.1666C13.4708 15.1666 14.6667 16.2131 14.6667 17.5C14.6667 18.2542 14.2586 18.9418 13.5756 19.3765L13.9961 22.6856ZM17.3333 10.5H6.66669V8.16665C6.66669 5.59349 9.05925 3.5 12 3.5C14.9408 3.5 17.3333 5.59349 17.3333 8.16665V10.5Z" fill="white"/>
</svg>
