<svg width="234" height="200" viewBox="0 0 234 200" fill="none" xmlns="http://www.w3.org/2000/svg">
<path opacity="0.4" d="M17.3176 181.189L16.3991 179.89C-1.99791 153.926 -2.8015 131.016 13.9395 109.855C28.1959 91.8414 52.6533 78.2446 74.2349 66.2492C78.7859 63.7184 83.0528 61.329 87.1658 58.97L91.7973 56.2463L96.2105 59.3208C120.056 75.6985 145.422 84.006 176.051 85.4698L182.271 85.7619L182.205 89.6933C181.885 109.06 192.839 125.715 216.672 142.092L221.086 145.123L216.45 147.803C212.376 150.171 208.225 152.666 203.836 155.297C183.03 167.831 159.438 182.027 129.753 189.441C94.8739 198.14 58.7362 195.672 19.2747 181.889L17.3176 181.189ZM91.4015 67.6482C88.6469 69.2034 85.8119 70.7774 82.8756 72.3982C39.9223 96.281 -8.68785 123.319 27.1151 175.479C106.497 202.511 153.409 174.245 194.83 149.323C197.683 147.634 200.401 145.99 203.117 144.397C181.295 128.388 170.499 111.921 169.495 93.1633C139.905 90.9268 114.833 82.7323 91.4081 67.6484L91.4015 67.6482Z" fill="#D6D8E5"/>
<path d="M24.915 176.614L23.9962 175.322C5.59949 149.35 4.79588 126.441 21.5369 105.279C35.7933 87.2659 60.2573 73.6693 81.8323 61.6737C86.3833 59.1429 90.6502 56.7535 94.7632 54.3944L99.3996 51.7145L103.808 54.7453C127.653 71.123 153.02 79.4304 183.682 80.8956L189.902 81.1877L189.836 85.1191C189.516 104.486 200.47 121.14 224.302 137.518L228.717 140.549L224.08 143.236C220.007 145.596 215.856 148.092 211.473 150.731C190.66 163.257 167.076 177.453 137.383 184.874C102.537 193.582 66.3665 191.105 26.9049 177.322L24.915 176.614ZM98.9989 63.0726C96.2443 64.6279 93.4093 66.2018 90.4796 67.8229C47.5197 91.7055 -1.08384 118.744 34.7191 170.904C114.094 197.935 161.007 169.67 202.428 144.747C205.261 143.05 207.992 141.4 210.682 139.805C188.866 123.797 178.064 107.33 177.06 88.572C147.502 86.3512 122.43 78.1568 99.0055 63.0729L98.9989 63.0726Z" fill="#7D90E2"/>
<path d="M24.9152 176.613L25.3551 165.271L171.875 125.068L228.857 128.904L228.697 140.548L152.119 175.197L104.761 186.214L40.1545 178.083L24.9152 176.613Z" fill="#7D90E2"/>
<path d="M9.60776 134.807L10.021 124.154L14.9129 132.168L9.60776 134.807Z" fill="#7D90E2"/>
<path d="M220.085 128.855C195.134 111.708 183.502 94.2438 183.845 73.5857C151.169 72.0279 124.568 63.2225 99.6171 46.0834C56.6257 70.9519 -13.4338 100.758 30.2623 162.428C123.982 195.176 177.093 153.723 220.085 128.855Z" fill="#525BFF"/>
<path d="M25.3542 165.271L24.4357 163.973C6.03866 138.008 5.23506 115.099 21.9761 93.9371C36.2325 75.9236 60.6965 62.327 82.2717 50.3241C86.8225 47.8006 91.0893 45.4112 95.2026 43.0449L99.8391 40.365L104.247 43.3957C128.093 59.7807 153.459 68.0882 184.088 69.5448L190.308 69.8441L190.242 73.7755C189.922 93.1425 200.878 109.753 224.708 126.174L229.123 129.205L224.487 131.885C220.413 134.253 216.262 136.741 211.879 139.38C191.067 151.906 167.482 166.11 137.789 173.523C102.944 182.224 66.7728 179.754 27.3115 165.964L25.3542 165.271ZM99.4381 51.7303C96.6834 53.2856 93.8485 54.8596 90.9188 56.4806C47.9592 80.3559 -0.644669 107.402 35.1582 159.562C114.535 186.557 161.446 158.327 202.867 133.405C205.7 131.701 208.432 130.057 211.121 128.463C189.305 112.455 178.503 95.9876 177.499 77.2297C147.942 75.0017 122.87 66.8073 99.4447 51.7306L99.4381 51.7303Z" fill="#97A6FF"/>
<path opacity="0.1" d="M112 130.824C126.85 131.4 139.184 124.265 139.547 114.887C139.911 105.509 128.167 97.4393 113.317 96.8633C98.4664 96.2873 86.1328 103.423 85.7691 112.801C85.4053 122.179 97.1491 130.248 112 130.824Z" fill="black"/>
<path d="M133.742 71.5478L106.625 52.9166C104.615 51.5321 103.081 47.9814 103.197 44.981L103.998 24.3262C104.115 21.3258 105.837 20.0426 107.848 21.3908L134.964 40.022C136.975 41.4064 138.509 44.9572 138.393 47.9576L137.592 68.6124C137.475 71.6128 135.752 72.925 133.742 71.5478Z" fill="#E8A30A"/>
<path d="M123.596 79.3993L136.328 71.7567L129.526 52.7884L117.592 58.6547L123.596 79.3993Z" fill="#E8A30A"/>
<path d="M93.1338 28.4772L105.696 20.9587L107.798 45.965L93.1338 28.4772Z" fill="#E8A30A"/>
<path d="M121.254 79.0474L94.1044 60.4149C92.094 59.0377 90.566 55.4872 90.6824 52.4869L91.4841 31.8175C91.6005 28.8171 93.316 27.5336 95.3275 28.8819L122.476 47.5216C124.48 48.8985 126.015 52.4493 125.898 55.4497L125.097 76.1045C124.981 79.1049 123.257 80.4244 121.254 79.0474Z" fill="#F9CB07"/>
<path d="M106.814 28.725L107.423 13.0345C107.67 6.66413 111.858 4.24267 116.778 7.59085C121.698 10.968 125.485 18.874 125.239 25.2371L124.63 40.9276" stroke="#CC8B09" stroke-width="10.46" stroke-miterlimit="10"/>
<path d="M106.585 31.387C108.821 31.4738 110.678 30.3987 110.733 28.9858C110.788 27.5728 109.019 26.3571 106.783 26.2704C104.547 26.1837 102.69 27.2588 102.636 28.6717C102.581 30.0846 104.349 31.3003 106.585 31.387Z" fill="#CC8B09"/>
<path d="M124.558 42.7831C126.794 42.8698 128.651 41.7947 128.706 40.3818C128.761 38.9689 126.993 37.7532 124.757 37.6665C122.521 37.5797 120.664 38.6548 120.609 40.0677C120.554 41.4806 122.322 42.6963 124.558 42.7831Z" fill="#CC8B09"/>
</svg>
