<svg width="219" height="89" viewBox="0 0 219 89" fill="none" xmlns="http://www.w3.org/2000/svg">
<path d="M10.34 1.49V2.326H5.874V17H4.862V2.326H0.418V1.49H10.34ZM18.0682 4.812C19.4762 4.812 20.6202 5.252 21.5002 6.132C22.3802 7.012 22.8202 8.31 22.8202 10.026V17H21.8302V10.07C21.8302 8.63267 21.4709 7.54 20.7522 6.792C20.0335 6.02933 19.0509 5.648 17.8042 5.648C16.5135 5.648 15.4722 6.07333 14.6802 6.924C13.9029 7.76 13.5142 8.99933 13.5142 10.642V17H12.5242V0.72H13.5142V8.2C13.8075 7.08533 14.3649 6.242 15.1862 5.67C16.0222 5.098 16.9829 4.812 18.0682 4.812ZM31.3787 4.9C32.684 4.9 33.784 5.24467 34.6787 5.934C35.5734 6.60867 36.182 7.50333 36.5047 8.618V5.054H37.4947V17H36.5047V13.436C36.182 14.5507 35.5734 15.4527 34.6787 16.142C33.784 16.8167 32.684 17.154 31.3787 17.154C30.264 17.154 29.274 16.912 28.4087 16.428C27.558 15.9293 26.8907 15.218 26.4067 14.294C25.9227 13.3553 25.6807 12.2627 25.6807 11.016C25.6807 9.76933 25.9227 8.684 26.4067 7.76C26.8907 6.836 27.558 6.132 28.4087 5.648C29.274 5.14933 30.264 4.9 31.3787 4.9ZM31.5987 5.78C30.1027 5.78 28.9074 6.24933 28.0127 7.188C27.1327 8.12667 26.6927 9.40267 26.6927 11.016C26.6927 12.644 27.1327 13.9273 28.0127 14.866C28.8927 15.8047 30.088 16.274 31.5987 16.274C32.5374 16.274 33.3807 16.0613 34.1287 15.636C34.8767 15.196 35.456 14.58 35.8667 13.788C36.292 12.9813 36.5047 12.0573 36.5047 11.016C36.5047 9.97467 36.292 9.058 35.8667 8.266C35.456 7.474 34.8767 6.86533 34.1287 6.44C33.3807 6 32.5374 5.78 31.5987 5.78ZM46.578 4.812C47.986 4.812 49.13 5.252 50.01 6.132C50.89 7.012 51.33 8.31 51.33 10.026V17H50.34V10.07C50.34 8.63267 49.9806 7.54 49.262 6.792C48.5433 6.02933 47.5606 5.648 46.314 5.648C45.0233 5.648 43.982 6.07333 43.19 6.924C42.4126 7.76 42.024 8.99933 42.024 10.642V17H41.034V5.054H42.024V8.2C42.3173 7.08533 42.8746 6.242 43.696 5.67C44.532 5.098 45.4926 4.812 46.578 4.812ZM60.9225 17L55.7525 11.5V17H54.7625V0.72H55.7525V10.422L60.8125 5.054H62.1105L56.4345 10.972L62.2425 17H60.9225ZM69.9442 5.054L74.4322 15.68L78.5902 5.054H79.6902L72.7602 22.632H71.6162L73.9042 16.934L68.8442 5.054H69.9442ZM87.1568 4.9C88.2861 4.9 89.2981 5.14933 90.1928 5.648C91.0874 6.132 91.7841 6.836 92.2828 7.76C92.7961 8.684 93.0528 9.76933 93.0528 11.016C93.0528 12.2773 92.7961 13.37 92.2828 14.294C91.7841 15.218 91.0874 15.9293 90.1928 16.428C89.2981 16.912 88.2861 17.154 87.1568 17.154C86.0421 17.154 85.0374 16.912 84.1428 16.428C83.2481 15.9293 82.5441 15.218 82.0308 14.294C81.5174 13.3553 81.2608 12.2627 81.2608 11.016C81.2608 9.76933 81.5174 8.684 82.0308 7.76C82.5441 6.836 83.2481 6.132 84.1428 5.648C85.0374 5.14933 86.0421 4.9 87.1568 4.9ZM87.1568 5.78C86.2914 5.78 85.4848 5.97067 84.7368 6.352C84.0034 6.73333 83.4094 7.32 82.9548 8.112C82.5001 8.88933 82.2728 9.85733 82.2728 11.016C82.2728 12.1747 82.5001 13.15 82.9548 13.942C83.4094 14.734 84.0034 15.3207 84.7368 15.702C85.4848 16.0833 86.2914 16.274 87.1568 16.274C88.0221 16.274 88.8214 16.0833 89.5548 15.702C90.3028 15.3207 90.9041 14.734 91.3588 13.942C91.8134 13.15 92.0408 12.1747 92.0408 11.016C92.0408 9.85733 91.8134 8.88933 91.3588 8.112C90.9188 7.32 90.3248 6.73333 89.5768 6.352C88.8434 5.97067 88.0368 5.78 87.1568 5.78ZM105.955 5.054V17H104.943V13.876C104.65 14.976 104.085 15.812 103.249 16.384C102.428 16.956 101.475 17.242 100.389 17.242C98.9961 17.242 97.8594 16.802 96.9794 15.922C96.0994 15.042 95.6594 13.7367 95.6594 12.006V5.054H96.6274V11.984C96.6274 13.4067 96.9868 14.4993 97.7054 15.262C98.4241 16.01 99.4068 16.384 100.653 16.384C101.959 16.384 103 15.966 103.777 15.13C104.555 14.2793 104.943 13.0327 104.943 11.39V5.054H105.955ZM120.271 1.468C119.069 1.468 118.233 1.69533 117.763 2.15C117.294 2.60467 117.059 3.35267 117.059 4.394V5.054H120.271V5.956H117.059V17H116.047V5.956H114.199V5.054H116.047V4.328C116.047 3.052 116.377 2.106 117.037 1.49C117.712 0.859333 118.79 0.551333 120.271 0.565999V1.468ZM128.063 4.9C129.192 4.9 130.204 5.14933 131.099 5.648C131.994 6.132 132.69 6.836 133.189 7.76C133.702 8.684 133.959 9.76933 133.959 11.016C133.959 12.2773 133.702 13.37 133.189 14.294C132.69 15.218 131.994 15.9293 131.099 16.428C130.204 16.912 129.192 17.154 128.063 17.154C126.948 17.154 125.944 16.912 125.049 16.428C124.154 15.9293 123.45 15.218 122.937 14.294C122.424 13.3553 122.167 12.2627 122.167 11.016C122.167 9.76933 122.424 8.684 122.937 7.76C123.45 6.836 124.154 6.132 125.049 5.648C125.944 5.14933 126.948 4.9 128.063 4.9ZM128.063 5.78C127.198 5.78 126.391 5.97067 125.643 6.352C124.91 6.73333 124.316 7.32 123.861 8.112C123.406 8.88933 123.179 9.85733 123.179 11.016C123.179 12.1747 123.406 13.15 123.861 13.942C124.316 14.734 124.91 15.3207 125.643 15.702C126.391 16.0833 127.198 16.274 128.063 16.274C128.928 16.274 129.728 16.0833 130.461 15.702C131.209 15.3207 131.81 14.734 132.265 13.942C132.72 13.15 132.947 12.1747 132.947 11.016C132.947 9.85733 132.72 8.88933 132.265 8.112C131.825 7.32 131.231 6.73333 130.483 6.352C129.75 5.97067 128.943 5.78 128.063 5.78ZM137.952 7.694C138.26 6.75533 138.802 6.044 139.58 5.56C140.357 5.06133 141.347 4.812 142.55 4.812V5.89H142.22C141.017 5.89 140.005 6.22733 139.184 6.902C138.362 7.57667 137.952 8.66933 137.952 10.18V17H136.962V5.054H137.952V7.694ZM151.48 2.282C151.23 2.282 151.025 2.20867 150.864 2.062C150.702 1.90067 150.622 1.69533 150.622 1.446C150.622 1.21133 150.702 1.02067 150.864 0.873999C151.025 0.712666 151.23 0.632 151.48 0.632C151.729 0.632 151.934 0.712666 152.096 0.873999C152.257 1.02067 152.338 1.21133 152.338 1.446C152.338 1.69533 152.257 1.90067 152.096 2.062C151.934 2.20867 151.729 2.282 151.48 2.282ZM148.444 21.73H149.258C149.859 21.73 150.292 21.598 150.556 21.334C150.834 21.07 150.974 20.6007 150.974 19.926V5.054H151.986V20.036C151.986 21.7667 151.106 22.632 149.346 22.632H148.444V21.73ZM160.848 4.9C161.978 4.9 162.99 5.14933 163.884 5.648C164.779 6.132 165.476 6.836 165.974 7.76C166.488 8.684 166.744 9.76933 166.744 11.016C166.744 12.2773 166.488 13.37 165.974 14.294C165.476 15.218 164.779 15.9293 163.884 16.428C162.99 16.912 161.978 17.154 160.848 17.154C159.734 17.154 158.729 16.912 157.834 16.428C156.94 15.9293 156.236 15.218 155.722 14.294C155.209 13.3553 154.952 12.2627 154.952 11.016C154.952 9.76933 155.209 8.684 155.722 7.76C156.236 6.836 156.94 6.132 157.834 5.648C158.729 5.14933 159.734 4.9 160.848 4.9ZM160.848 5.78C159.983 5.78 159.176 5.97067 158.428 6.352C157.695 6.73333 157.101 7.32 156.646 8.112C156.192 8.88933 155.964 9.85733 155.964 11.016C155.964 12.1747 156.192 13.15 156.646 13.942C157.101 14.734 157.695 15.3207 158.428 15.702C159.176 16.0833 159.983 16.274 160.848 16.274C161.714 16.274 162.513 16.0833 163.246 15.702C163.994 15.3207 164.596 14.734 165.05 13.942C165.505 13.15 165.732 12.1747 165.732 11.016C165.732 9.85733 165.505 8.88933 165.05 8.112C164.61 7.32 164.016 6.73333 163.268 6.352C162.535 5.97067 161.728 5.78 160.848 5.78ZM169.395 1.446C169.395 1.21133 169.468 1.02067 169.615 0.873999C169.776 0.712666 169.982 0.632 170.231 0.632C170.48 0.632 170.686 0.712666 170.847 0.873999C171.008 1.02067 171.089 1.21133 171.089 1.446C171.089 1.69533 171.008 1.90067 170.847 2.062C170.686 2.20867 170.48 2.282 170.231 2.282C169.982 2.282 169.776 2.20867 169.615 2.062C169.468 1.90067 169.395 1.69533 169.395 1.446ZM170.737 5.054V17H169.747V5.054H170.737ZM179.846 4.812C181.254 4.812 182.398 5.252 183.278 6.132C184.158 7.012 184.598 8.31 184.598 10.026V17H183.608V10.07C183.608 8.63267 183.248 7.54 182.53 6.792C181.811 6.02933 180.828 5.648 179.582 5.648C178.291 5.648 177.25 6.07333 176.458 6.924C175.68 7.76 175.292 8.99933 175.292 10.642V17H174.302V5.054H175.292V8.2C175.585 7.08533 176.142 6.242 176.964 5.67C177.8 5.098 178.76 4.812 179.846 4.812ZM203.989 5.054V17H202.977V13.876C202.683 14.976 202.119 15.812 201.283 16.384C200.461 16.956 199.508 17.242 198.423 17.242C197.029 17.242 195.893 16.802 195.013 15.922C194.133 15.042 193.693 13.7367 193.693 12.006V5.054H194.661V11.984C194.661 13.4067 195.02 14.4993 195.739 15.262C196.457 16.01 197.44 16.384 198.687 16.384C199.992 16.384 201.033 15.966 201.811 15.13C202.588 14.2793 202.977 13.0327 202.977 11.39V5.054H203.989ZM210.926 4.9C212.173 4.9 213.177 5.23733 213.94 5.912C214.703 6.572 215.157 7.48133 215.304 8.64H214.358C214.27 7.78933 213.925 7.08533 213.324 6.528C212.737 5.956 211.938 5.67 210.926 5.67C210.031 5.67 209.327 5.89 208.814 6.33C208.315 6.77 208.066 7.35667 208.066 8.09C208.066 8.63267 208.213 9.06533 208.506 9.388C208.814 9.71067 209.181 9.95267 209.606 10.114C210.046 10.2607 210.655 10.4293 211.432 10.62C212.297 10.8107 212.994 11.0087 213.522 11.214C214.05 11.4193 214.497 11.742 214.864 12.182C215.231 12.622 215.414 13.2233 215.414 13.986C215.414 14.9247 215.077 15.6873 214.402 16.274C213.727 16.8607 212.84 17.154 211.74 17.154C210.42 17.154 209.335 16.824 208.484 16.164C207.648 15.4893 207.149 14.5727 206.988 13.414H207.978C208.066 14.2647 208.433 14.976 209.078 15.548C209.738 16.1053 210.633 16.384 211.762 16.384C212.613 16.384 213.273 16.164 213.742 15.724C214.226 15.2693 214.468 14.6827 214.468 13.964C214.468 13.392 214.314 12.9373 214.006 12.6C213.698 12.248 213.309 11.9913 212.84 11.83C212.385 11.6687 211.777 11.5 211.014 11.324C210.149 11.1187 209.459 10.9207 208.946 10.73C208.447 10.5247 208.015 10.2167 207.648 9.806C207.296 9.38067 207.12 8.80867 207.12 8.09C207.12 7.122 207.465 6.352 208.154 5.78C208.843 5.19333 209.767 4.9 210.926 4.9ZM218.892 15.482V17H217.33V15.482H218.892ZM3.586 42.234L11.176 50H9.922L2.772 42.652V50H1.782V34.49H2.772V41.838L9.922 34.49H11.176L3.586 42.234ZM18.5756 49.318C19.7782 49.318 20.7902 49.0173 21.6116 48.416C22.4329 47.8 22.9316 46.964 23.1076 45.908H24.1416C23.9216 47.184 23.3202 48.2107 22.3376 48.988C21.3696 49.7653 20.1302 50.154 18.6196 50.154C17.4902 50.154 16.4856 49.912 15.6056 49.428C14.7402 48.9293 14.0582 48.218 13.5596 47.294C13.0609 46.37 12.8116 45.2773 12.8116 44.016C12.8116 42.7693 13.0609 41.684 13.5596 40.76C14.0582 39.836 14.7402 39.132 15.6056 38.648C16.4856 38.1493 17.4902 37.9 18.6196 37.9C19.7782 37.9 20.7756 38.1493 21.6116 38.648C22.4622 39.132 23.1002 39.7773 23.5256 40.584C23.9656 41.376 24.1856 42.2267 24.1856 43.136C24.1856 43.5027 24.1489 43.8913 24.0756 44.302H13.8016C13.8162 45.4167 14.0436 46.3553 14.4836 47.118C14.9382 47.866 15.5176 48.4233 16.2216 48.79C16.9402 49.142 17.7249 49.318 18.5756 49.318ZM18.6196 38.714C17.7542 38.714 16.9622 38.8973 16.2436 39.264C15.5249 39.6307 14.9382 40.188 14.4836 40.936C14.0436 41.684 13.8162 42.608 13.8016 43.708H23.2176C23.2762 42.608 23.0929 41.684 22.6676 40.936C22.2422 40.1733 21.6702 39.616 20.9516 39.264C20.2329 38.8973 19.4556 38.714 18.6196 38.714ZM32.3685 49.318C33.5712 49.318 34.5832 49.0173 35.4045 48.416C36.2259 47.8 36.7245 46.964 36.9005 45.908H37.9345C37.7145 47.184 37.1132 48.2107 36.1305 48.988C35.1625 49.7653 33.9232 50.154 32.4125 50.154C31.2832 50.154 30.2785 49.912 29.3985 49.428C28.5332 48.9293 27.8512 48.218 27.3525 47.294C26.8539 46.37 26.6045 45.2773 26.6045 44.016C26.6045 42.7693 26.8539 41.684 27.3525 40.76C27.8512 39.836 28.5332 39.132 29.3985 38.648C30.2785 38.1493 31.2832 37.9 32.4125 37.9C33.5712 37.9 34.5685 38.1493 35.4045 38.648C36.2552 39.132 36.8932 39.7773 37.3185 40.584C37.7585 41.376 37.9785 42.2267 37.9785 43.136C37.9785 43.5027 37.9419 43.8913 37.8685 44.302H27.5945C27.6092 45.4167 27.8365 46.3553 28.2765 47.118C28.7312 47.866 29.3105 48.4233 30.0145 48.79C30.7332 49.142 31.5179 49.318 32.3685 49.318ZM32.4125 38.714C31.5472 38.714 30.7552 38.8973 30.0365 39.264C29.3179 39.6307 28.7312 40.188 28.2765 40.936C27.8365 41.684 27.6092 42.608 27.5945 43.708H37.0105C37.0692 42.608 36.8859 41.684 36.4605 40.936C36.0352 40.1733 35.4632 39.616 34.7445 39.264C34.0259 38.8973 33.2485 38.714 32.4125 38.714ZM47.0635 37.9C48.1782 37.9 49.1608 38.1493 50.0115 38.648C50.8768 39.132 51.5515 39.836 52.0355 40.76C52.5195 41.684 52.7615 42.7693 52.7615 44.016C52.7615 45.2627 52.5195 46.3553 52.0355 47.294C51.5515 48.218 50.8768 48.9293 50.0115 49.428C49.1608 49.912 48.1782 50.154 47.0635 50.154C45.7728 50.154 44.6728 49.8167 43.7635 49.142C42.8688 48.4527 42.2602 47.5507 41.9375 46.436V55.632H40.9695V38.054H41.9375V41.618C42.2602 40.5033 42.8688 39.6087 43.7635 38.934C44.6728 38.2447 45.7728 37.9 47.0635 37.9ZM46.8655 38.78C45.9268 38.78 45.0835 39 44.3355 39.44C43.5875 39.8653 43.0008 40.474 42.5755 41.266C42.1502 42.058 41.9375 42.9747 41.9375 44.016C41.9375 45.0573 42.1502 45.9813 42.5755 46.788C43.0008 47.58 43.5875 48.196 44.3355 48.636C45.0835 49.0613 45.9268 49.274 46.8655 49.274C48.3615 49.274 49.5495 48.8047 50.4295 47.866C51.3242 46.9273 51.7715 45.644 51.7715 44.016C51.7715 42.4027 51.3242 41.1267 50.4295 40.188C49.5495 39.2493 48.3615 38.78 46.8655 38.78ZM61.4793 38.054L65.9673 48.68L70.1253 38.054H71.2253L64.2953 55.632H63.1513L65.4393 49.934L60.3793 38.054H61.4793ZM78.6919 37.9C79.8213 37.9 80.8333 38.1493 81.7279 38.648C82.6226 39.132 83.3193 39.836 83.8179 40.76C84.3313 41.684 84.5879 42.7693 84.5879 44.016C84.5879 45.2773 84.3313 46.37 83.8179 47.294C83.3193 48.218 82.6226 48.9293 81.7279 49.428C80.8333 49.912 79.8213 50.154 78.6919 50.154C77.5773 50.154 76.5726 49.912 75.6779 49.428C74.7833 48.9293 74.0793 48.218 73.5659 47.294C73.0526 46.3553 72.7959 45.2627 72.7959 44.016C72.7959 42.7693 73.0526 41.684 73.5659 40.76C74.0793 39.836 74.7833 39.132 75.6779 38.648C76.5726 38.1493 77.5773 37.9 78.6919 37.9ZM78.6919 38.78C77.8266 38.78 77.0199 38.9707 76.2719 39.352C75.5386 39.7333 74.9446 40.32 74.4899 41.112C74.0353 41.8893 73.8079 42.8573 73.8079 44.016C73.8079 45.1747 74.0353 46.15 74.4899 46.942C74.9446 47.734 75.5386 48.3207 76.2719 48.702C77.0199 49.0833 77.8266 49.274 78.6919 49.274C79.5573 49.274 80.3566 49.0833 81.0899 48.702C81.8379 48.3207 82.4393 47.734 82.8939 46.942C83.3486 46.15 83.5759 45.1747 83.5759 44.016C83.5759 42.8573 83.3486 41.8893 82.8939 41.112C82.4539 40.32 81.8599 39.7333 81.1119 39.352C80.3786 38.9707 79.5719 38.78 78.6919 38.78ZM97.4906 38.054V50H96.4786V46.876C96.1853 47.976 95.6206 48.812 94.7846 49.384C93.9633 49.956 93.0099 50.242 91.9246 50.242C90.5313 50.242 89.3946 49.802 88.5146 48.922C87.6346 48.042 87.1946 46.7367 87.1946 45.006V38.054H88.1626V44.984C88.1626 46.4067 88.5219 47.4993 89.2406 48.262C89.9593 49.01 90.9419 49.384 92.1886 49.384C93.4939 49.384 94.5353 48.966 95.3126 48.13C96.0899 47.2793 96.4786 46.0327 96.4786 44.39V38.054H97.4906ZM102.03 40.694C102.338 39.7553 102.88 39.044 103.658 38.56C104.435 38.0613 105.425 37.812 106.628 37.812V38.89H106.298C105.095 38.89 104.083 39.2273 103.262 39.902C102.44 40.5767 102.03 41.6693 102.03 43.18V50H101.04V38.054H102.03V40.694ZM129.132 37.812C130.481 37.812 131.574 38.252 132.41 39.132C133.26 40.012 133.686 41.31 133.686 43.026V50H132.718V43.07C132.718 41.6473 132.38 40.562 131.706 39.814C131.031 39.066 130.107 38.692 128.934 38.692C127.672 38.692 126.66 39.11 125.898 39.946C125.15 40.782 124.776 42.014 124.776 43.642V50H123.808V43.07C123.808 41.6473 123.463 40.562 122.774 39.814C122.099 39.066 121.175 38.692 120.002 38.692C118.755 38.692 117.75 39.11 116.988 39.946C116.24 40.782 115.866 42.014 115.866 43.642V50H114.876V38.054H115.866V41.156C116.144 40.056 116.68 39.2273 117.472 38.67C118.278 38.098 119.202 37.812 120.244 37.812C121.329 37.812 122.26 38.1127 123.038 38.714C123.83 39.3007 124.35 40.1807 124.6 41.354C124.878 40.1807 125.428 39.3007 126.25 38.714C127.086 38.1127 128.046 37.812 129.132 37.812ZM136.782 34.446C136.782 34.2113 136.855 34.0207 137.002 33.874C137.163 33.7127 137.368 33.632 137.618 33.632C137.867 33.632 138.072 33.7127 138.234 33.874C138.395 34.0207 138.476 34.2113 138.476 34.446C138.476 34.6953 138.395 34.9007 138.234 35.062C138.072 35.2087 137.867 35.282 137.618 35.282C137.368 35.282 137.163 35.2087 137.002 35.062C136.855 34.9007 136.782 34.6953 136.782 34.446ZM138.124 38.054V50H137.134V38.054H138.124ZM147.232 37.812C148.64 37.812 149.784 38.252 150.664 39.132C151.544 40.012 151.984 41.31 151.984 43.026V50H150.994V43.07C150.994 41.6327 150.635 40.54 149.916 39.792C149.198 39.0293 148.215 38.648 146.968 38.648C145.678 38.648 144.636 39.0733 143.844 39.924C143.067 40.76 142.678 41.9993 142.678 43.642V50H141.688V38.054H142.678V41.2C142.972 40.0853 143.529 39.242 144.35 38.67C145.186 38.098 146.147 37.812 147.232 37.812ZM160.543 37.9C161.848 37.9 162.948 38.2447 163.843 38.934C164.737 39.6087 165.346 40.5033 165.669 41.618V33.72H166.659V50H165.669V46.436C165.346 47.5507 164.737 48.4527 163.843 49.142C162.948 49.8167 161.848 50.154 160.543 50.154C159.428 50.154 158.438 49.912 157.573 49.428C156.722 48.9293 156.055 48.218 155.571 47.294C155.087 46.3553 154.845 45.2627 154.845 44.016C154.845 42.7693 155.087 41.684 155.571 40.76C156.055 39.836 156.722 39.132 157.573 38.648C158.438 38.1493 159.428 37.9 160.543 37.9ZM160.763 38.78C159.267 38.78 158.071 39.2493 157.177 40.188C156.297 41.1267 155.857 42.4027 155.857 44.016C155.857 45.644 156.297 46.9273 157.177 47.866C158.057 48.8047 159.252 49.274 160.763 49.274C161.701 49.274 162.545 49.0613 163.293 48.636C164.041 48.196 164.62 47.58 165.031 46.788C165.456 45.9813 165.669 45.0573 165.669 44.016C165.669 42.9747 165.456 42.058 165.031 41.266C164.62 40.474 164.041 39.8653 163.293 39.44C162.545 39 161.701 38.78 160.763 38.78ZM7.106 70.9C8.23533 70.9 9.24733 71.1493 10.142 71.648C11.0367 72.132 11.7333 72.836 12.232 73.76C12.7453 74.684 13.002 75.7693 13.002 77.016C13.002 78.2773 12.7453 79.37 12.232 80.294C11.7333 81.218 11.0367 81.9293 10.142 82.428C9.24733 82.912 8.23533 83.154 7.106 83.154C5.99133 83.154 4.98667 82.912 4.092 82.428C3.19733 81.9293 2.49333 81.218 1.98 80.294C1.46667 79.3553 1.21 78.2627 1.21 77.016C1.21 75.7693 1.46667 74.684 1.98 73.76C2.49333 72.836 3.19733 72.132 4.092 71.648C4.98667 71.1493 5.99133 70.9 7.106 70.9ZM7.106 71.78C6.24067 71.78 5.434 71.9707 4.686 72.352C3.95267 72.7333 3.35867 73.32 2.904 74.112C2.44933 74.8893 2.222 75.8573 2.222 77.016C2.222 78.1747 2.44933 79.15 2.904 79.942C3.35867 80.734 3.95267 81.3207 4.686 81.702C5.434 82.0833 6.24067 82.274 7.106 82.274C7.97133 82.274 8.77067 82.0833 9.504 81.702C10.252 81.3207 10.8533 80.734 11.308 79.942C11.7627 79.15 11.99 78.1747 11.99 77.016C11.99 75.8573 11.7627 74.8893 11.308 74.112C10.868 73.32 10.274 72.7333 9.526 72.352C8.79267 71.9707 7.986 71.78 7.106 71.78ZM16.9947 73.694C17.3027 72.7553 17.8453 72.044 18.6227 71.56C19.4 71.0613 20.39 70.812 21.5927 70.812V71.89H21.2627C20.06 71.89 19.048 72.2273 18.2267 72.902C17.4053 73.5767 16.9947 74.6693 16.9947 76.18V83H16.0047V71.054H16.9947V73.694ZM28.908 70.9C30.2133 70.9 31.3133 71.2447 32.208 71.934C33.1027 72.6087 33.7113 73.5033 34.034 74.618V71.054H35.024V83.352C35.024 84.452 34.782 85.42 34.298 86.256C33.8287 87.092 33.176 87.73 32.34 88.17C31.5187 88.6247 30.6093 88.852 29.612 88.852C28.116 88.852 26.8767 88.4853 25.894 87.752C24.926 87.0333 24.2807 86.0507 23.958 84.804H24.926C25.2193 85.772 25.762 86.542 26.554 87.114C27.346 87.686 28.3507 87.972 29.568 87.972C30.404 87.972 31.1593 87.7813 31.834 87.4C32.5233 87.0333 33.0587 86.498 33.44 85.794C33.836 85.1047 34.034 84.2907 34.034 83.352V79.436C33.7113 80.5507 33.1027 81.4527 32.208 82.142C31.3133 82.8167 30.2133 83.154 28.908 83.154C27.7933 83.154 26.8033 82.912 25.938 82.428C25.0873 81.9293 24.42 81.218 23.936 80.294C23.452 79.3553 23.21 78.2627 23.21 77.016C23.21 75.7693 23.452 74.684 23.936 73.76C24.42 72.836 25.0873 72.132 25.938 71.648C26.8033 71.1493 27.7933 70.9 28.908 70.9ZM29.128 71.78C27.632 71.78 26.4367 72.2493 25.542 73.188C24.662 74.1267 24.222 75.4027 24.222 77.016C24.222 78.644 24.662 79.9273 25.542 80.866C26.422 81.8047 27.6173 82.274 29.128 82.274C30.0667 82.274 30.91 82.0613 31.658 81.636C32.406 81.196 32.9853 80.58 33.396 79.788C33.8213 78.9813 34.034 78.0573 34.034 77.016C34.034 75.9747 33.8213 75.058 33.396 74.266C32.9853 73.474 32.406 72.8653 31.658 72.44C30.91 72 30.0667 71.78 29.128 71.78ZM43.6893 70.9C44.9946 70.9 46.0946 71.2447 46.9893 71.934C47.8839 72.6087 48.4926 73.5033 48.8153 74.618V71.054H49.8053V83H48.8153V79.436C48.4926 80.5507 47.8839 81.4527 46.9893 82.142C46.0946 82.8167 44.9946 83.154 43.6893 83.154C42.5746 83.154 41.5846 82.912 40.7193 82.428C39.8686 81.9293 39.2013 81.218 38.7173 80.294C38.2333 79.3553 37.9913 78.2627 37.9913 77.016C37.9913 75.7693 38.2333 74.684 38.7173 73.76C39.2013 72.836 39.8686 72.132 40.7193 71.648C41.5846 71.1493 42.5746 70.9 43.6893 70.9ZM43.9093 71.78C42.4133 71.78 41.2179 72.2493 40.3233 73.188C39.4433 74.1267 39.0033 75.4027 39.0033 77.016C39.0033 78.644 39.4433 79.9273 40.3233 80.866C41.2033 81.8047 42.3986 82.274 43.9093 82.274C44.8479 82.274 45.6913 82.0613 46.4393 81.636C47.1873 81.196 47.7666 80.58 48.1773 79.788C48.6026 78.9813 48.8153 78.0573 48.8153 77.016C48.8153 75.9747 48.6026 75.058 48.1773 74.266C47.7666 73.474 47.1873 72.8653 46.4393 72.44C45.6913 72 44.8479 71.78 43.9093 71.78ZM58.8885 70.812C60.2965 70.812 61.4405 71.252 62.3205 72.132C63.2005 73.012 63.6405 74.31 63.6405 76.026V83H62.6505V76.07C62.6505 74.6327 62.2912 73.54 61.5725 72.792C60.8538 72.0293 59.8712 71.648 58.6245 71.648C57.3338 71.648 56.2925 72.0733 55.5005 72.924C54.7232 73.76 54.3345 74.9993 54.3345 76.642V83H53.3445V71.054H54.3345V74.2C54.6278 73.0853 55.1852 72.242 56.0065 71.67C56.8425 71.098 57.8032 70.812 58.8885 70.812ZM66.721 67.446C66.721 67.2113 66.7943 67.0207 66.941 66.874C67.1023 66.7127 67.3077 66.632 67.557 66.632C67.8063 66.632 68.0117 66.7127 68.173 66.874C68.3343 67.0207 68.415 67.2113 68.415 67.446C68.415 67.6953 68.3343 67.9007 68.173 68.062C68.0117 68.2087 67.8063 68.282 67.557 68.282C67.3077 68.282 67.1023 68.2087 66.941 68.062C66.7943 67.9007 66.721 67.6953 66.721 67.446ZM68.063 71.054V83H67.073V71.054H68.063ZM75.0157 70.9C76.2624 70.9 77.267 71.2373 78.0297 71.912C78.7924 72.572 79.247 73.4813 79.3937 74.64H78.4477C78.3597 73.7893 78.015 73.0853 77.4137 72.528C76.827 71.956 76.0277 71.67 75.0157 71.67C74.121 71.67 73.417 71.89 72.9037 72.33C72.405 72.77 72.1557 73.3567 72.1557 74.09C72.1557 74.6327 72.3024 75.0653 72.5957 75.388C72.9037 75.7107 73.2704 75.9527 73.6957 76.114C74.1357 76.2607 74.7444 76.4293 75.5217 76.62C76.387 76.8107 77.0837 77.0087 77.6117 77.214C78.1397 77.4193 78.587 77.742 78.9537 78.182C79.3204 78.622 79.5037 79.2233 79.5037 79.986C79.5037 80.9247 79.1664 81.6873 78.4917 82.274C77.817 82.8607 76.9297 83.154 75.8297 83.154C74.5097 83.154 73.4244 82.824 72.5737 82.164C71.7377 81.4893 71.239 80.5727 71.0777 79.414H72.0677C72.1557 80.2647 72.5224 80.976 73.1677 81.548C73.8277 82.1053 74.7224 82.384 75.8517 82.384C76.7024 82.384 77.3624 82.164 77.8317 81.724C78.3157 81.2693 78.5577 80.6827 78.5577 79.964C78.5577 79.392 78.4037 78.9373 78.0957 78.6C77.7877 78.248 77.399 77.9913 76.9297 77.83C76.475 77.6687 75.8664 77.5 75.1037 77.324C74.2384 77.1187 73.549 76.9207 73.0357 76.73C72.537 76.5247 72.1044 76.2167 71.7377 75.806C71.3857 75.3807 71.2097 74.8087 71.2097 74.09C71.2097 73.122 71.5544 72.352 72.2437 71.78C72.933 71.1933 73.857 70.9 75.0157 70.9ZM87.7123 82.318C88.9149 82.318 89.9269 82.0173 90.7483 81.416C91.5696 80.8 92.0683 79.964 92.2443 78.908H93.2783C93.0583 80.184 92.4569 81.2107 91.4743 81.988C90.5063 82.7653 89.2669 83.154 87.7563 83.154C86.6269 83.154 85.6223 82.912 84.7423 82.428C83.8769 81.9293 83.1949 81.218 82.6963 80.294C82.1976 79.37 81.9483 78.2773 81.9483 77.016C81.9483 75.7693 82.1976 74.684 82.6963 73.76C83.1949 72.836 83.8769 72.132 84.7423 71.648C85.6223 71.1493 86.6269 70.9 87.7563 70.9C88.9149 70.9 89.9123 71.1493 90.7483 71.648C91.5989 72.132 92.2369 72.7773 92.6623 73.584C93.1023 74.376 93.3223 75.2267 93.3223 76.136C93.3223 76.5027 93.2856 76.8913 93.2123 77.302H82.9383C82.9529 78.4167 83.1803 79.3553 83.6203 80.118C84.0749 80.866 84.6543 81.4233 85.3583 81.79C86.0769 82.142 86.8616 82.318 87.7123 82.318ZM87.7563 71.714C86.8909 71.714 86.0989 71.8973 85.3803 72.264C84.6616 72.6307 84.0749 73.188 83.6203 73.936C83.1803 74.684 82.9529 75.608 82.9383 76.708H92.3543C92.4129 75.608 92.2296 74.684 91.8043 73.936C91.3789 73.1733 90.8069 72.616 90.0883 72.264C89.3696 71.8973 88.5923 71.714 87.7563 71.714ZM101.439 70.9C102.745 70.9 103.845 71.2447 104.739 71.934C105.634 72.6087 106.243 73.5033 106.565 74.618V66.72H107.555V83H106.565V79.436C106.243 80.5507 105.634 81.4527 104.739 82.142C103.845 82.8167 102.745 83.154 101.439 83.154C100.325 83.154 99.3346 82.912 98.4693 82.428C97.6186 81.9293 96.9513 81.218 96.4673 80.294C95.9833 79.3553 95.7413 78.2627 95.7413 77.016C95.7413 75.7693 95.9833 74.684 96.4673 73.76C96.9513 72.836 97.6186 72.132 98.4693 71.648C99.3346 71.1493 100.325 70.9 101.439 70.9ZM101.659 71.78C100.163 71.78 98.9679 72.2493 98.0733 73.188C97.1933 74.1267 96.7533 75.4027 96.7533 77.016C96.7533 78.644 97.1933 79.9273 98.0733 80.866C98.9533 81.8047 100.149 82.274 101.659 82.274C102.598 82.274 103.441 82.0613 104.189 81.636C104.937 81.196 105.517 80.58 105.927 79.788C106.353 78.9813 106.565 78.0573 106.565 77.016C106.565 75.9747 106.353 75.058 105.927 74.266C105.517 73.474 104.937 72.8653 104.189 72.44C103.441 72 102.598 71.78 101.659 71.78ZM112.635 67.38L112.437 79.018H111.689L111.491 67.38H112.635ZM112.877 81.482V83H111.315V81.482H112.877Z" fill="black"/>
</svg>
