<svg viewBox="-15 0 512 512.00001" xmlns="http://www.w3.org/2000/svg"><path d="m420.242188 92.507812c-51.484376-59.65625-118.78125-92.507812-189.496094-92.507812-58.859375 0-114.476563 22.589844-156.617188 63.613281-66.804687 65.039063-89.90625 139.773438-63.378906 205.039063 9.496094 23.359375 25.398438 44.851562 44.777344 60.507812 20.097656 16.242188 42.683594 25.1875 63.59375 25.1875.929687 0 1.855468-.015625 2.742187-.054687 8.628907-.359375 17.503907-1.121094 26.085938-1.863281l.628906-.050782c12.597656-1.085937 24.496094-2.113281 36.542969-2.113281 34.375 0 60.570312 10.335937 77.859375 30.71875 16.820312 19.832031 25 48.453125 25 87.503906 0 12.261719 2.855469 23.769531 7.839843 31.578125 5.195313 8.140625 12.265626 11.933594 22.257813 11.933594 9.9375 0 37.527344-4.480469 79.019531-45.976562 91.160156-91.15625 124.742188-255.792969 23.144532-373.515626zm-314.597657 145.519532c-25.464843 0-46.183593-20.71875-46.183593-46.183594 0-25.46875 20.71875-46.1875 46.183593-46.1875 25.464844 0 46.183594 20.71875 46.183594 46.1875 0 25.464844-20.71875 46.183594-46.183594 46.183594zm81.085938-82.089844c-25.464844 0-46.183594-20.71875-46.183594-46.183594s20.71875-46.183594 46.183594-46.183594c25.46875 0 46.183593 20.71875 46.183593 46.183594s-20.714843 46.183594-46.183593 46.183594zm114.125 12.015625c-25.46875 0-46.183594-20.71875-46.183594-46.1875 0-25.464844 20.714844-46.183594 46.183594-46.183594 25.464843 0 46.183593 20.71875 46.183593 46.183594 0 25.46875-20.71875 46.1875-46.183593 46.1875zm74.078125 86.089844c-25.464844 0-46.183594-20.71875-46.183594-46.183594s20.71875-46.183594 46.183594-46.183594 46.183594 20.71875 46.183594 46.183594-20.71875 46.183594-46.183594 46.183594zm0 0"/></svg>