<?xml version="1.0" encoding="iso-8859-1"?>
<!-- Generator: Adobe Illustrator 19.0.0, SVG Export Plug-In . SVG Version: 6.00 Build 0)  -->
<svg version="1.1" id="Layer_1" xmlns="http://www.w3.org/2000/svg" xmlns:xlink="http://www.w3.org/1999/xlink" x="0px" y="0px"
	 viewBox="0 0 346.645 346.645" style="enable-background:new 0 0 346.645 346.645;" xml:space="preserve">
<g>
	<g>
		<path d="M336.754,26.196L319.445,8.887c-6.181-4.946-13.6-8.655-21.018-8.655c-4.945,0-9.891,2.473-13.6,6.182l-16.072,16.072
			l-7.418,7.418L19.009,270.995c-1.236,1.237-2.473,3.709-3.709,4.945l-14.836,54.4c-1.237,3.709,0,8.655,3.709,12.364
			c2.473,2.473,4.945,3.709,8.655,3.709c1.236,0,2.473,0,3.709,0l54.4-14.836c2.473,0,3.709-1.237,4.945-3.709L318.209,85.541
			l7.418-7.418l16.072-16.073c2.473-2.472,4.945-7.417,4.945-13.599C346.645,41.032,342.936,33.614,336.754,26.196z M61.045,308.086
			l-29.673,8.655l8.654-29.673L269.99,54.632l22.255,22.255L61.045,308.086z M309.554,59.577l-22.255-22.255l12.364-12.364
			c1.237,0,1.237,1.236,2.473,2.473l17.309,17.309c1.237,1.236,1.237,2.473,2.473,2.473L309.554,59.577z"/>
	</g>
</g>
<g>
</g>
<g>
</g>
<g>
</g>
<g>
</g>
<g>
</g>
<g>
</g>
<g>
</g>
<g>
</g>
<g>
</g>
<g>
</g>
<g>
</g>
<g>
</g>
<g>
</g>
<g>
</g>
<g>
</g>
</svg>
