<?xml version="1.0" encoding="UTF-8"?>
<svg width="465px" height="512px" viewBox="0 0 465 512" xmlns="http://www.w3.org/2000/svg" xmlns:xlink="http://www.w3.org/1999/xlink" version="1.1">
 <!-- Generated by Pixelmator Pro 1.5.1 -->
 <path id="Путь" d="M416.875 114.441 L405.57 80.555 C401.265 67.648 389.23 58.976 375.629 58.976 L280.617 58.976 280.617 28.043 C280.617 12.582 268.047 0 252.59 0 L165.582 0 C150.129 0 137.554 12.582 137.554 28.043 L137.554 58.976 42.547 58.976 C28.941 58.976 16.906 67.648 12.601 80.555 L1.297 114.441 C-1.277 122.156 0.027 130.699 4.781 137.297 9.535 143.894 17.226 147.836 25.359 147.836 L37.176 147.836 63.183 469.441 C65.117 493.305 85.367 512 109.293 512 L314.156 512 C338.078 512 358.332 493.305 360.262 469.438 L386.269 147.836 392.812 147.836 C400.945 147.836 408.637 143.895 413.391 137.301 418.144 130.703 419.449 122.156 416.875 114.441 Z M167.555 30 L250.617 30 250.617 58.977 167.555 58.977 Z M330.359 467.02 C329.68 475.422 322.562 482 314.156 482 L109.293 482 C100.887 482 93.769 475.422 93.09 467.02 L67.273 147.836 356.172 147.836 Z M31.793 117.836 L41.062 90.047 C41.273 89.406 41.871 88.976 42.547 88.976 L375.629 88.976 C376.305 88.976 376.898 89.406 377.113 90.047 L386.383 117.836 Z M31.793 117.836" fill="#000000" fill-opacity="1" stroke="none"/>
 <path id="Путь-1" d="M282.516 465.957 C282.781 465.973 283.043 465.977 283.308 465.977 291.234 465.977 297.859 459.766 298.273 451.758 L312.359 181.359 C312.789 173.086 306.429 166.027 298.16 165.598 289.867 165.156 282.832 171.524 282.398 179.797 L268.316 450.195 C267.886 458.469 274.242 465.527 282.515 465.957 Z M282.516 465.957" fill="#000000" fill-opacity="1" stroke="none"/>
 <path id="Путь-2" d="M120.566 451.793 C121.004 459.789 127.621 465.977 135.531 465.977 135.805 465.977 136.086 465.969 136.363 465.953 144.633 465.504 150.973 458.434 150.523 450.16 L135.769 179.762 C135.32 171.488 128.25 165.148 119.976 165.602 111.707 166.051 105.367 173.121 105.816 181.395 Z M120.566 451.793" fill="#000000" fill-opacity="1" stroke="none"/>
 <path id="Путь-3" d="M209.254 465.977 C217.539 465.977 224.254 459.262 224.254 450.977 L224.254 180.578 C224.254 172.293 217.539 165.578 209.254 165.578 200.969 165.578 194.254 172.293 194.254 180.578 L194.254 450.977 C194.254 459.262 200.969 465.977 209.254 465.977 Z M209.254 465.977" fill="#000000" fill-opacity="1" stroke="none"/>
</svg>
