<svg width="185" height="226" viewBox="0 0 185 226" fill="none" xmlns="http://www.w3.org/2000/svg">
<g clip-path="url(#clip0)">
<path opacity="0.4" d="M109.72 179.566L87.0806 167.281C86.0274 166.707 86.1573 165.708 87.3787 165.048L109.422 153.083C110.643 152.423 112.485 152.351 113.538 152.921L136.172 165.206C137.23 165.78 137.096 166.779 135.879 167.439L113.831 179.403C112.615 180.068 110.773 180.136 109.72 179.566Z" fill="#D6D8E5"/>
<path opacity="0.4" d="M99.7274 172.217V172.221L42.5424 203.251L9.55957 221.15L10.2905 221.548L43.2733 203.644L100.453 172.614L99.7274 172.217Z" fill="#D6D8E5"/>
<path d="M138.49 163.791L137.375 164.112L115.144 152.044C114.091 151.474 112.259 151.547 111.033 152.206L88.9848 164.171L88.932 164.203L87.9702 163.927V165.283C87.9702 165.333 87.9702 165.382 87.9702 165.437V165.545C88.01 165.725 88.0931 165.895 88.2131 166.041C88.3331 166.186 88.4868 166.304 88.6627 166.386L111.302 178.671C112.355 179.241 114.187 179.173 115.418 178.508L137.529 166.562C137.786 166.454 138.011 166.289 138.185 166.081C138.359 165.873 138.477 165.629 138.529 165.369L138.49 163.791Z" fill="#D5D6E0"/>
<path d="M111.345 177.247L88.7059 164.98C87.6528 164.41 87.7874 163.412 89.004 162.752L111.052 150.787C112.268 150.123 114.11 150.05 115.163 150.624L137.803 162.91C138.856 163.484 138.726 164.483 137.505 165.143L115.461 177.107C114.24 177.749 112.398 177.821 111.345 177.247Z" fill="#E9EAF4"/>
<path d="M122.804 162.833V161.025L120.063 161.703L113.966 158.381C113.719 158.275 113.449 158.226 113.179 158.237C112.908 158.248 112.644 158.319 112.408 158.444L106.479 161.662L103.675 160.966V162.914V163.366C103.673 163.384 103.673 163.403 103.675 163.421V163.466C103.69 163.534 103.722 163.598 103.768 163.653C103.814 163.708 103.873 163.752 103.94 163.782L112.523 168.478C112.77 168.584 113.039 168.633 113.31 168.623C113.58 168.613 113.844 168.543 114.081 168.42L122.439 163.9C122.536 163.859 122.62 163.796 122.686 163.717C122.751 163.639 122.795 163.546 122.814 163.448V162.851L122.804 162.833Z" fill="#D5D6E0"/>
<path d="M112.524 166.033L103.93 161.364C103.531 161.147 103.579 160.767 104.041 160.519L112.398 155.999C112.636 155.873 112.902 155.802 113.175 155.792C113.447 155.782 113.719 155.832 113.966 155.94L122.545 160.596C122.944 160.813 122.896 161.192 122.434 161.445L114.077 165.965C113.841 166.089 113.578 166.16 113.309 166.172C113.039 166.184 112.77 166.136 112.524 166.033Z" fill="#E9EAF4"/>
<path d="M113.235 160.984L62.0708 117.936L164.539 116.132L113.235 160.984Z" fill="url(#paint0_linear)"/>
<path d="M112.24 136.793C152.427 136.793 185.005 106.171 185.005 68.3966C185.005 30.6222 152.427 0 112.24 0C72.0527 0 39.4746 30.6222 39.4746 68.3966C39.4746 106.171 72.0527 136.793 112.24 136.793Z" fill="#E9EAF4"/>
<path d="M93.1011 27.7121L93.3464 26.903V25.1493C92.9998 25.1884 92.6495 25.1884 92.3029 25.1493C92.1201 25.0724 92.2452 24.5933 92.2452 24.5933L93.1011 23.9017L91.3844 24.2453L90.7689 25.1493L88.8454 26.2657L89.7062 26.7177L90.2592 27.0612L91.0863 27.1787V26.668C91.0863 26.668 92.048 26.4375 92.2836 26.781L92.1634 27.4183L93.1011 27.7121ZM71.8371 52.6851C71.5891 52.5803 71.3203 52.5262 71.0485 52.5262C70.7766 52.5262 70.5078 52.5803 70.2598 52.6851C70.264 53.0004 70.1382 53.3051 69.9087 53.5351C69.6792 53.7651 69.3639 53.9027 69.0288 53.9191L70.4329 54.6558L71.8371 54.1631L73.674 53.5891L75.2464 54.6558C76.4294 53.2998 75.2464 52.5179 75.2464 52.5179L71.8371 52.6851ZM101.699 77.8299L100.338 77.5587L97.9723 76.1439H95.895L94.1013 75.2715H93.3848C93.3848 75.2715 93.5291 74.3269 93.3127 74.2591C93.0963 74.1913 91.5239 73.3144 91.5239 73.3144L90.3025 73.7212V72.9121L89.4417 72.5731H88.7252L88.7973 71.8996C88.7973 71.8996 89.4417 70.7018 89.0859 70.4939C88.73 70.286 87.4365 67.5875 87.4365 67.5875L85.513 66.5751H83.4356L81.642 64.9614L79.8532 63.6054L78.8482 61.7206L77.771 61.0471C77.771 61.0471 76.5544 61.7884 76.2659 61.7206C75.9774 61.6528 74.1885 61.0471 74.1885 61.0471L72.6834 60.6448L70.8032 61.472V63.28L70.0867 62.828V62.15L70.7311 61.0064L71.0196 60.1973L70.3752 59.9307L69.5145 60.8708L67.365 61.472L66.9322 62.3489L65.9272 63.2257L65.6435 63.967L64.0662 62.7557C63.5345 63.0173 62.9832 63.2424 62.4169 63.4291C61.8357 63.1391 61.2836 62.8003 60.7675 62.4167L59.9788 61.0019L60.4116 59.1171L60.7675 57.1599L59.4066 56.3508H57.5408L56.0982 55.9485L56.7714 54.9361L57.5601 53.4535L58.2766 52.3777C58.2766 52.3777 58.4785 51.8851 58.7093 51.7721C59.623 51.3201 58.7093 50.8952 58.7093 50.8952C58.7093 50.8952 56.7859 50.7596 56.4877 50.8952C56.1896 51.0308 55.4106 51.4331 55.4106 51.4331V52.9834L53.968 53.5891L51.7464 54.0411L50.2412 52.6218C50.0249 52.4229 49.5247 50.1991 49.5247 50.1991L50.4528 49.39L50.8856 48.7165L50.9577 47.0984L51.8858 46.3571L52.2465 45.4802L53.314 44.748L54.3382 43.8666L55.2711 43.5999L56.5599 43.8666C56.632 43.4146 58.9979 43.5999 58.9979 43.5999L59.9308 43.5547L59.8586 43.062C60.2914 42.723 61.7244 43.062 61.7244 43.062L63.6479 42.9083C64.071 42.9942 64.4269 43.8123 64.4269 43.8123L63.5661 44.5536L64.1432 46.1673L64.7154 46.9085L64.499 47.6498L65.8791 47.46L65.9464 46.1763L66.0186 44.6259L65.807 42.9264L67.0957 40.3139L72.3276 37.1499L72.2554 36.0018L72.6113 34.352L73.5442 34.6548L75.1935 32.8152L77.343 32.1462L78.6318 31.3236L79.2761 30.1077L81.642 29.4342L84.0079 28.2907L82.9211 29.38L82.7769 30.3247L84.0656 30.0535L85.2149 29.4478L86.2151 29.1811L87.148 28.9099L87.4365 28.3042H86.7921L85.7871 27.9652C85.1427 27.5132 84.3445 26.9573 84.3445 26.9573C84.3296 26.8472 84.3408 26.7353 84.3774 26.6298C84.414 26.5243 84.475 26.4277 84.5561 26.3471L85.2052 25.8001C85.2052 25.8001 85.489 25.4747 85.2774 25.4747C85.0658 25.4747 83.4837 25.1493 83.4837 25.1493L81.7622 25.8001H80.7861L82.0075 24.8012H83.3683L84.8734 24.4622H87.9991L89.7206 24.1232L90.9468 23.504L92.4519 23.3593L92.8847 21.8451L91.8797 21.0361L90.4371 20.3355L90.1486 18.7444L89.36 17.1263H88.6435L88.5713 18.0031H87.4269L87.1383 18.541L86.7104 18.8122L85.9939 18.9478L85.3447 18.3376L86.2055 17.4653L85.2052 16.5884L83.9838 15.9827H82.7095L81.7766 16.2494L80.4879 17.6641L79.4829 18.4732L79.7714 19.2145L79.406 20.34L79.6224 20.792L78.4009 21.1988L77.0401 21.4655L76.4679 21.3299L76.0351 21.8723L76.8237 23.3865L76.0351 23.8927H74.9627L74.0539 22.7943L73.8375 22.1706L74.4819 21.8361L74.001 21.027L72.4959 20.9592L70.4906 19.7885H69.5578L69.3414 19.0699L68.697 18.8032L69.6299 17.7907L70.9908 17.0494L73.3566 16.2403L74.2174 15.9737L76.0784 15.5669L77.3286 14.916L78.4731 13.9713H79.9782L81.7718 13.5464H82.9211L83.402 12.2899H81.1082L80.2475 12.9091H78.7424C78.4228 12.6126 78.0268 12.3992 77.5931 12.2899V11.7927L78.3817 11.1192L79.406 10.396C79.764 9.96591 80.0539 9.48938 80.2667 8.98123L82.3441 9.65471L83.9165 9.57787L84.9985 9.5191L86.3593 9.5869L87.148 9.8581C86.9316 10.396 86.0756 9.99371 86.0756 9.99371L83.4934 10.2604L82.3441 10.848L82.7047 10.1067L81.4833 10.1745L80.0407 11.0469L81.0457 11.5215H83.4116L84.7003 11.9735L85.7775 11.5712L86.9219 11.9735L88.2876 12.3803L86.6382 12.8639L85.1956 13.5012L83.753 13.795L82.6086 14.1973L83.0894 15.142L86.0997 15.0742L87.9991 16.1725H89.5763L89.6485 15.5669L90.0043 14.9612L90.7256 14.8256L90.1486 14.0843L89.937 13.5238H90.7929L91.5143 14.0165C92.0865 14.4233 93.3031 13.5238 93.3031 13.5238L95.0967 12.8865L92.8751 12.2673L92.1586 11.5938C92.3702 11.187 89.7927 10.5813 89.7927 10.5813L87.7827 9.43774L87.3018 8.96315H85.5947L86.9556 8.42526L90.3217 8.75974L92.0432 8.42526L95.9863 7.48058L98.6359 6.87491L100.559 6.20143L98.333 5.87599C98.333 5.87599 96.7557 6.28279 96.5393 6.28279C96.3229 6.28279 94.462 6.41839 94.2456 6.41839H89.2253L87.6529 6.75287L89.0955 7.09187L88.2347 7.54387H86.7296L85.8689 7.81507L87.0133 7.00599L85.7967 6.73479L84.2916 7.07379L82.4258 8.08174L83.2866 8.35295L84.508 7.90094L85.5082 8.09983L84.4359 8.37103L84.0031 8.9089L84.7196 9.11231L82.7961 9.2479L79.43 8.71003L78.0691 10.2559L75.3426 12.0639L76.0591 12.6017L75.5782 12.8865L74.9339 13.2074L73.0681 12.8865L70.4906 13.5238L65.7589 14.6222L49.9431 28.928L43.6341 36.6572L39.9795 57.2774L46.428 55.257L47.433 56.2649L49.1545 56.5361L50.3038 57.2096L51.5204 56.7576L52.5254 57.7023L54.747 58.8459L56.8965 59.1171L57.5408 61.1375C57.5408 61.1375 59.046 62.4167 58.9834 62.6879C58.9209 62.9591 59.4643 64.1704 59.7721 64.1704C60.4894 64.4113 61.1855 64.7045 61.8542 65.0473L63.0708 65.1784L63.5517 64.1704H64.6288V65.1784L65.0616 65.7208L65.2011 67.2666L65.6339 68.4147L64.9174 69.156L63.7681 70.512L62.3255 72.3878L62.4697 74.1958L62.1091 75.4071L63.1862 75.7461L62.2534 76.9575C62.4437 77.4656 62.6043 77.9832 62.7342 78.5079C62.9567 79.0858 63.2202 79.649 63.5229 80.1938L64.5279 81.0029L64.9606 82.3589L67.3987 87.0733L69.1154 88.4293L71.6255 89.6406C71.6255 89.6406 73.2028 91.2588 73.2749 91.4486C73.347 91.6385 74.1356 94.6126 74.1356 94.6126L74.102 96.276L74.5828 98.0252L74.7271 99.9824L74.9435 102.694L75.66 104.85L76.3044 107.68L75.5157 108.625L75.9966 110.021L76.5736 112.06L77.5739 113.072L77.5065 114.69L77.7181 116.304L82.1661 120.752L83.0221 121.629V119.54L84.4647 118.758V117.52L83.0221 116.914V115.97L83.729 115.364L84.4407 114.284V113.407C85.0321 113.208 84.4407 112.598 84.4407 112.598H83.4549L83.3827 111.725H84.3156L84.7003 112.263L85.4601 111.725L84.8879 110.645C85.0321 110.311 86.0372 110.645 86.0372 110.645L87.7539 109.7L88.4703 108.896V107.816L87.6529 107.124L86.9316 106.044H87.7923C87.7923 106.044 89.0859 106.654 89.5138 106.044C89.9418 105.434 90.591 104.629 90.591 104.629L91.3796 102.88C91.3796 102.88 92.8847 100.317 93.029 100.113C93.1733 99.9101 93.029 97.4015 93.029 97.4015L95.3949 95.5935H96.9721L98.2608 93.5685L99.2659 92.2396V89.9796L99.6217 87.8236L99.0591 85.7173L101.064 83.2222L102.569 81.8662L101.997 79.3757L101.699 77.8299ZM117.674 24.8826L118.154 25.1493L118.808 24.6159H119.736L120.592 24.3447L120.977 23.8475L120.794 23.1605L121.16 22.7943C121.203 22.2384 120.265 21.8361 120.265 21.8361H119.736L119.082 22.5457H118.39L118.145 23.3503L118.246 23.956L117.674 24.2905V24.8826ZM122.001 19.7885L121.27 20.0959V21.131L121.352 21.3977C121.406 21.611 121.433 21.8294 121.434 22.0485L121.963 22.3921L122.492 22.6994L122.737 23.1514C122.737 23.1514 122.655 23.6034 122.372 23.6034L121.718 23.7978L121.963 24.2181C121.963 24.2181 121.482 24.4487 121.434 24.6385L121.881 24.9459L121.472 25.3301H120.578V25.7821H122.453L123.228 25.3301L124.367 25.5199C124.367 25.5199 125.305 25.3301 125.507 25.3301L125.343 25.1357L125.632 24.7922L126.079 24.295L125.507 24.078L124.858 23.8882L124.939 23.2373L124.324 22.7853L123.391 22.3062L123.309 21.4248L123.391 20.6609H122.429L122.227 20.2767L122.795 19.7795L122.001 19.7885ZM127.339 23.0836V22.7943H127.993L128.358 22.5457V21.5875L128.839 21.357L128.676 20.5931L127.911 20.34L126.772 20.6835V21.244L126.079 21.3208L125.916 21.8361L126.397 22.0485L125.622 22.4689L125.416 22.7943L126.07 23.3503L127.339 23.0836ZM168.405 46.3029L171.098 47.6589L172.488 47.1526L173.411 48.3821L175.878 48.8928L176.955 49.3991L179.961 41.9411L179.1 37.968L165.635 17.2573L161.615 14.464H156.763L154.604 14.7533L154.066 15.7703L152.916 15.368L152.373 14.464H151.291L151.772 14.916L152.161 15.6437H150.464V16.5432L149.252 16.3759L148.516 16.272L148.103 16.4663L148.488 16.6878L149.021 16.8008L148.541 16.9681L147.896 16.724L147.093 16.4709L146.853 15.9691L146.261 15.5171L145.578 15.4313L145.098 14.9024L146.146 14.9883L147.069 15.377L147.838 15.4629C147.838 15.4629 148.319 15.3499 148.372 15.4313C148.74 15.5416 149.119 15.6173 149.502 15.6573L150.127 15.2053L149.069 14.464L147.194 13.9442C147.194 13.9442 144.044 13.5374 143.895 13.5464C143.443 13.4396 142.997 13.3113 142.559 13.1622L141.462 12.9091H139.058L135.403 13.5464L133.384 14.7533L130.979 16.7918C130.979 16.7918 128.902 17.072 128.782 17.0991C128.441 17.3662 128.119 17.6546 127.82 17.9625L128.301 18.9433L128.181 19.3953L128.508 19.6439L128.748 20.0959L129.075 20.5479L130.292 20.3807L131.6 19.6846L132.609 20.1863L133.384 21.4429L133.528 22.1977L134.451 22.3649L135.076 21.8632L135.73 21.7231L136.086 20.7151L136.144 19.9332L137.038 19.6846V19.1693L136.711 18.9478L136.293 18.6947L136.144 17.7907L137.505 16.9816C137.505 16.9816 138.226 16.3669 138.226 16.2584C138.226 16.1499 138.582 15.7793 138.582 15.7793C138.582 15.7793 139.149 15.8109 139.327 15.8381C139.505 15.8652 140.452 16.1725 140.452 16.1725L140.813 16.4257L139.712 16.9274L139.063 17.5421L138.582 17.8495L139.029 18.8258L140.188 19.3863L141.227 19.1874L142.876 19.1105C142.876 19.1105 144.766 19.4676 144.852 19.5264C144.939 19.5851 144.309 19.775 144.309 19.775L143.573 19.9693L143.16 20.2225L142.458 19.888C142.175 19.7017 141.841 19.5951 141.496 19.5806C141.205 19.6338 140.93 19.7481 140.693 19.9151L141.14 20.5569L141.76 20.9502C141.76 20.9502 141.496 21.6734 141.318 21.6463C141.14 21.6191 140.837 21.1174 140.837 21.1174L140.149 20.8643L139.707 21.1174L139.765 21.7321L139.572 22.6L138.832 23.052L138.293 23.4452L137.582 23.052L136.663 23.3051L135.057 23.2192L134.701 23.5266L134.134 23.3051C134.134 23.3051 132.739 23.3593 132.648 23.3865C132.329 23.2857 132.021 23.1555 131.729 22.9977L131.374 22.2429L131.816 21.7412L131.609 21.5152L131.431 21.0993L131.729 20.7603L131.282 20.6519L130.542 21.3479L130.508 22.0214C130.508 22.0214 130.897 22.6633 130.926 22.7446C130.948 22.9398 130.958 23.136 130.955 23.3322L130.215 23.6125L129.412 23.8339L129.561 24.1142L130.393 24.2543L130.123 24.7063L129.642 24.7334L129.407 25.2939L129.258 25.6013L128.604 25.434L128.633 25.0408L128.661 24.5391L128.397 24.2859L128.007 24.6792L127.594 25.1809L126.632 25.3481L126.185 25.6826L125.887 26.2973L125.175 26.6047L124.612 26.9392L123.747 26.5233L123.632 26.7177L123.809 27.1335L123.603 27.3595L122.473 27.2737L121.847 27.1923L121.756 27.9743L122.857 28.1415L123.391 28.5935C123.391 28.5935 123.809 29.0681 123.896 29.0681C123.983 29.0681 124.584 29.2082 124.584 29.2082L124.343 30.4377L123.809 31.5812L121.578 31.5541L119.145 31.4999L118.371 31.7756L118.13 32.4174L118.342 33.0909L117.909 34.352L117.731 35.0255C117.732 35.2551 117.759 35.4839 117.813 35.708C117.876 35.7893 118.231 36.3769 118.231 36.3769L117.962 37.3261L118.765 37.5521L120.102 37.6335L120.814 37.9996L121.352 38.081L122.242 37.7194L123.579 37.5521L124.829 36.5713L124.622 35.3735L125.391 34.4695L127.026 33.4932L127.738 33.2672L127.652 32.2637L128.613 31.7304L129.575 32.0377L130.229 31.7033L132.239 31.1247L134.23 32.8604L136.961 34.6187C136.961 34.6187 137.529 35.6809 137.557 35.7622C137.449 36.0194 137.308 36.2636 137.139 36.4899H135.605L135.028 36.612C135.028 36.612 135.206 37.0278 135.321 37.0278C135.437 37.0278 136.663 37.5612 136.663 37.5612L137.048 37.8414L137.255 37.7827L137.226 37.2538L137.346 36.7521L137.759 36.8063C137.928 36.634 138.078 36.4462 138.207 36.2459C138.331 35.9984 138.469 35.757 138.62 35.5227L138.293 34.9351L138.476 34.5418L138.957 34.6006L139.015 35.1837H139.192L139.135 34.4605L138.654 34.1802L138.009 33.7779L137.562 33.1677L136.788 32.9689L135.898 32.3813L135.692 31.7123L134.86 31.3236L134.643 30.7089L134.884 30.067L135.418 29.9811L135.446 30.5959L135.98 30.7631L136.341 30.5687L136.875 31.4727L137.971 32.0558L138.837 32.5078L139.37 32.5666L140.26 33.4706L140.472 34.6413L142.135 36.2639L142.371 37.4075L143.559 38.1895L143.886 37.9363L143.708 37.2131L144.362 36.8787L144.155 36.3724L143.496 36.16L143.227 35.6583L143.347 34.8447L142.962 34.4288L143.318 34.4831L143.583 34.7904L144.001 34.2616L144.713 34.2887L145.429 34.5689L145.963 35.256L146.497 36.0379C146.497 36.0379 146.141 36.2323 146.112 36.3182C146.183 36.5344 146.283 36.741 146.41 36.9329L147.093 37.516L147.627 38.2211L148.694 38.194L148.815 38.646L149.589 38.7273L150.329 38.5601L150.541 38.1081L150.868 38.5285L151.729 38.8087L152.469 38.7545L153.094 38.1081L153.657 38.3341L154.075 38.5827L153.926 39.1432L154.297 40.2913L153.758 41.4529V42.9716H150.512L149.281 43.4236L147.285 42.488L145.978 42.6326L143.741 41.8733H141.972L141.433 42.3253L141.741 43.1208L141.049 43.7717L139.274 42.7592L137.889 42.9038L137.351 42.036L135.269 41.4574L133.826 40.802L132.72 40.2913L134.028 38.8449L133.643 37.6154L132.72 37.1047L127.248 37.6877L125.093 38.4833L123.704 38.5556L122.261 39.0618L120.491 38.7002L119.333 40.002L117.948 40.8698L116.697 43.3332L117.024 44.418L115.409 45.8689L113.793 46.4475L113.024 47.8035C113.024 47.8035 111.326 51.3517 111.172 51.641C111.018 51.9303 111.172 53.7428 111.172 53.7428L111.865 55.8401L110.249 59.3883L110.864 61.1285L111.711 62.7195L113.947 65.6891L113.879 67.1807L118.486 70.4758L121.573 69.3097L124.545 70.1956L128.238 68.3153C128.238 68.3153 129.474 68.3153 129.859 68.9661C130.243 69.617 130.474 70.1956 131.859 70.1956C133.244 70.1956 133.941 71.6465 133.941 71.6465L133.326 73.3099L133.634 74.1777L133.018 75.5337L134.461 78.3542L135.538 80.5283L136.543 82.6301L136.774 85.3059L136.543 86.8292L134.768 89.7265L135.307 94.2149L135.923 95.2273L135.692 95.9505L136.774 97.0399L137.466 99.5711L136.851 101.962L137.774 103.77C137.774 103.77 138.62 105.727 138.697 105.944C138.774 106.161 139.313 106.884 139.236 107.246C139.159 107.608 138.928 108.552 138.928 108.552L139.236 109.999H143.164L145.016 109.42L149.56 105.076C149.975 104.615 150.361 104.13 150.714 103.625C150.791 103.409 151.407 100.733 151.407 100.733L154.643 99.4987V97.1348L153.95 95.2499L155.643 93.7312L160.192 91.2678L160.577 89.383V86.1286L159.726 83.6652L159.956 82.1465L159.168 81.4911L160.634 79.4661L161.173 76.7857L163.327 75.5563L163.808 74.3223L167.737 70.4939L168.973 66.8508L170.127 64.8394V62.6653L169.05 62.3037L167.814 63.2438L166.121 63.3885L164.352 63.8405L162.885 62.9681L163.039 61.8833L161.192 59.9307L159.341 58.9137L158.495 56.3101L156.686 54.692L156.533 52.667L155.22 50.859L153.604 47.46L151.907 45.8689L151.753 44.5627L152.45 44.8565L153.219 45.435L153.527 46.5198C154.143 46.5198 154.373 45.435 154.373 45.435L154.912 46.5198L155.451 47.8758L157.148 50.2669L158.071 50.4115L159.149 52.5133L159.072 53.4535L162.154 56.4231L162.693 59.1713L163.231 60.4053L164.236 61.3454L168.857 60.1883L169.704 59.4606L171.704 58.882V58.0142L174.017 56.5678L174.979 54.8863L175.537 54.0321L176.311 53.0196L175.036 51.3698L173.257 49.955L172.69 48.599L172.036 48.7437L171.555 50.0454L169.785 50.4974L168.862 49.9189L168.554 48.6894L167.939 48.8341L167.011 47.2385L166.164 46.7865L165.087 45.1231L165.857 44.3231L168.405 46.3029ZM132.34 35.6447L132.504 34.9531V33.9587C132.337 33.8194 132.132 33.727 131.912 33.6921C131.754 33.6923 131.602 33.747 131.484 33.8457V34.9531C131.526 35.182 131.526 35.4158 131.484 35.6447H132.34ZM132.34 32.657C132.349 32.586 132.34 32.514 132.314 32.4469C132.288 32.3798 132.245 32.3195 132.189 32.271C132.133 32.2225 132.066 32.1871 131.993 32.1677C131.919 32.1484 131.842 32.1457 131.768 32.1598L131.484 32.9237L131.768 33.4977H132.34V32.657ZM111.326 12.8865H114.211L115.784 10.7576H119.405L119.987 9.40158L122.213 8.29419C123.266 7.43087 122.213 5.86695 122.213 5.86695L117.674 5.33359L113.163 5.87599L106.604 4.72791L102.56 6.45455C102.56 6.45455 99.6506 7.93259 99.2562 7.81055C98.4706 7.74817 97.6808 7.74817 96.8952 7.81055C96.8952 7.81055 98.3378 9.03999 98.9918 9.16655C99.4698 9.23564 99.9563 9.23564 100.434 9.16655C100.434 9.16655 100.434 10.3689 100.699 10.6446C101.617 11.6345 99.7371 12.3712 99.7371 12.3712V13.5374C99.7371 13.5374 99.9439 15.7386 100.333 15.6392C100.723 15.5397 101.362 16.8099 101.362 16.8099L102.569 18.0438H104.777L107.532 14.9612L110.244 13.8538L111.326 12.8865ZM167.996 86.6258L167.641 85.7218L167.232 86.1015L166.876 86.8699L166.063 87.3219L165.708 88.3298L165.198 89.5231L163.212 90.0971L162.346 91.4848L162.144 93.7809L161.433 94.92L160.62 95.7336L160.923 97.0896L161.486 97.7133L160.923 98.4275L161.486 98.8795H163.366L164.433 97.3969C164.433 97.3969 165.299 95.6748 165.299 95.5302C165.299 95.3855 165.708 93.8081 165.708 93.8081L167.179 92.0001V89.496H168.198L167.896 87.7241L167.996 86.6258ZM65.278 49.946L63.0468 49.2318C63.0468 49.2318 62.4265 49.3132 61.7004 49.4759C61.1662 49.5769 60.6442 49.7283 60.1423 49.9279L63.3065 50.9404H64.5856L66.7206 52.667H68.1632C68.1632 52.667 69.3414 52.1743 68.9471 51.311L67.1149 50.6918L65.278 49.946Z" fill="#8C50FF"/>
<path opacity="0.05" d="M119.313 121.588C107.978 121.581 96.8012 119.086 86.6727 114.302C76.5442 109.519 67.7438 102.578 60.9724 94.0333C54.2011 85.4886 49.6457 75.5759 47.6691 65.0844C45.6926 54.5929 46.3494 43.8125 49.5873 33.6017C44.3459 41.9391 41.0475 51.2276 39.9104 60.8527C38.7733 70.4778 39.8234 80.2202 42.9913 89.4353C46.1591 98.6504 51.3725 107.128 58.2865 114.308C65.2005 121.488 73.6576 127.206 83.0983 131.084C92.539 134.962 102.748 136.912 113.05 136.804C123.352 136.696 133.513 134.533 142.859 130.459C152.206 126.384 160.526 120.491 167.268 113.168C174.01 105.846 179.022 97.2609 181.971 87.9818C175.539 98.2226 166.376 106.709 155.388 112.603C144.399 118.496 131.965 121.593 119.313 121.588Z" fill="black"/>
<path opacity="0.4" d="M13.07 226L0 218.971L19.5618 208.444L32.6318 215.473L13.07 226Z" fill="#D6D8E5"/>
<path d="M13.3439 211.83L2.51953 205.954L13.3439 200.082L24.1683 205.954L13.3439 211.83Z" fill="#E9EAF4"/>
<path d="M13.3439 223.577L2.51953 217.701V205.954L13.3439 211.83V223.577Z" fill="#C5C7D3"/>
<path d="M24.1686 217.701L13.3442 223.577V211.83L24.1686 205.954V217.701Z" fill="#D5D6E0"/>
<path d="M27.8904 214.008C28.8283 214.25 29.8296 214.136 30.6794 213.692C31.3478 213.692 35.0072 212.241 35.4881 213.475C35.9209 214.551 34.3436 215.55 33.4973 215.735C31.6556 216.155 30.2947 217.019 29.5542 217.163C29.0012 217.272 28.2895 217.344 27.8519 216.937C27.3278 216.458 27.3758 214.65 27.8904 214.008Z" fill="#38226D"/>
<path d="M29.5594 216.874C30.3 216.725 31.6608 215.866 33.5025 215.446C34.2094 215.283 35.426 214.542 35.551 213.692C35.7145 214.682 34.2912 215.563 33.5025 215.744C31.6608 216.164 30.3 217.028 29.5594 217.172C29.0064 217.281 28.2947 217.353 27.8571 216.946C27.743 216.828 27.6606 216.685 27.6167 216.531C27.8895 216.727 28.2073 216.86 28.5446 216.919C28.882 216.979 29.2296 216.963 29.5594 216.874Z" fill="#9C73FF"/>
<path d="M21.3169 210.718C22.2547 210.962 23.2569 210.848 24.106 210.401C24.7744 210.401 28.4338 208.951 28.9147 210.185C29.3523 211.265 27.7702 212.264 26.9287 212.445C25.087 212.865 23.7261 213.728 22.9856 213.873C22.4326 213.981 21.7209 214.054 21.2833 213.647C20.7543 213.168 20.8024 211.36 21.3169 210.718Z" fill="#38226D"/>
<path d="M22.9856 213.584C23.7261 213.439 25.087 212.576 26.9287 212.155C27.6356 211.992 28.8522 211.251 28.9772 210.401C29.1407 211.396 27.7174 212.273 26.9287 212.454C25.087 212.874 23.7261 213.737 22.9856 213.882C22.4326 213.99 21.7209 214.063 21.2833 213.656C21.1686 213.539 21.0846 213.398 21.0381 213.245C21.3127 213.439 21.6315 213.57 21.9694 213.629C22.3074 213.688 22.6552 213.672 22.9856 213.584Z" fill="#9C73FF"/>
<path d="M11.0604 206.451C13.9024 207.626 16.5856 207.807 18.7784 206.704L21.0433 205.475C21.1779 208.223 21.3077 210.863 21.3077 210.863C21.3077 210.863 23.0437 212.101 24.3949 210.998C24.3949 210.998 24.6786 207.138 24.9672 203.346L27.3571 202.044C27.3034 202.247 27.2744 202.454 27.2705 202.663C27.2705 203.386 27.8187 214.099 27.8187 214.099C27.8187 214.099 29.5691 215.08 30.9203 213.977C30.9203 213.977 31.8292 201.56 32.0407 199.576C32.2764 197.348 29.6364 196.249 27.9726 196.819L25.424 197.723C25.4769 197.099 25.5202 196.615 25.549 196.344C25.7846 194.111 23.1447 193.013 21.4857 193.583C19.9661 194.102 9.70918 197.718 9.70918 197.718C9.77405 198.646 9.89446 199.57 10.0698 200.485L6.02092 200.164C5.77086 203.744 8.23772 205.276 11.0604 206.451ZM18.1581 200.281L20.8702 198.808C20.8237 198.987 20.7931 199.17 20.7788 199.355L18.1581 200.281Z" fill="#8C50FF"/>
<path d="M3.79395 189.293C3.79395 189.293 4.12575 194.035 4.78934 194.717C5.45294 195.4 7.67456 195.865 7.67456 195.865L9.39607 198.532C9.39607 198.532 7.82363 190.061 7.47259 189.858C7.12156 189.655 3.79395 189.293 3.79395 189.293Z" fill="#FFCEA9"/>
<path d="M7.10737 184.032C6.68724 183.849 6.21033 183.818 5.76713 183.943C5.32393 184.069 4.94528 184.344 4.70303 184.714C4.07309 185.7 3.4143 189.085 3.36621 189.664C3.36621 189.664 4.25582 190.821 5.58783 190.626L7.10737 184.032Z" fill="#EDEDED"/>
<path d="M7.69415 184.091C8.56452 184.131 9.21369 184.344 9.31948 184.091C9.41513 183.669 9.48258 183.241 9.52145 182.811C9.42047 182.576 9.33391 182.319 9.33391 182.319C8.23753 181.686 7.8913 180.574 7.75185 179.281C7.50661 177.071 8.7761 175.132 11.1179 174.901C13.3299 174.684 14.9649 176.144 15.3929 178.151C15.6285 179.146 16.0949 181.017 15.465 182.644C15.114 183.548 14.6571 184.28 14.2051 184.421C13.7672 184.41 13.3303 184.374 12.8972 184.312C12.8972 184.312 12.7817 184.927 12.7 185.325C12.6182 185.722 12.6519 185.926 13.4838 186.409C14.3157 186.893 12.2239 187.887 10.8535 187.788C9.48298 187.688 7.93939 186.916 7.51623 186.079C7.07383 185.162 7.1123 184.063 7.69415 184.091Z" fill="#FFCEA9"/>
<path d="M29.7802 198.586C29.7802 198.702 29.7478 198.817 29.6862 198.917C29.6246 199.018 29.536 199.102 29.4292 199.16L22.7884 202.776C22.6807 202.834 22.5589 202.865 22.4349 202.865C22.3109 202.865 22.1891 202.834 22.0815 202.776L12.7719 197.714C12.6638 197.656 12.574 197.573 12.5115 197.472C12.449 197.371 12.416 197.257 12.416 197.14V197.072L29.7802 198.586Z" fill="#E5E5E5"/>
<path d="M29.4288 199.16L22.788 202.776C22.6794 202.834 22.5567 202.863 22.4321 202.862V198.595H29.7798C29.7781 198.71 29.7449 198.822 29.6834 198.921C29.6219 199.02 29.5342 199.103 29.4288 199.16Z" fill="#E5E5E5"/>
<path d="M22.6825 202.437C22.6094 202.477 22.5264 202.498 22.442 202.498C22.3576 202.498 22.2747 202.477 22.2016 202.437L12.5025 197.185C12.3774 197.122 12.3774 197.013 12.5025 196.945L19.6241 193.076L29.7705 198.586L22.6825 202.437Z" fill="#F4F4F4"/>
<path d="M16.4839 198.586L16.532 198.609L19.6336 200.295L21.3359 199.368L21.3839 199.346L18.2342 197.637L16.4839 198.586Z" fill="#BFBFBF"/>
<path d="M16.5317 198.607L19.6333 200.293L21.3356 199.366L18.234 197.685L16.5317 198.607Z" fill="#E5E5E5"/>
<path d="M27.1494 198.88L27.5966 199.124C27.6192 199.134 27.6438 199.139 27.6688 199.139C27.6937 199.139 27.7184 199.134 27.7409 199.124L28.1689 198.894C28.2122 198.894 28.2122 198.835 28.1689 198.817L27.7217 198.573C27.6995 198.562 27.6747 198.556 27.6495 198.556C27.6244 198.556 27.5996 198.562 27.5774 198.573L27.1542 198.803C27.1206 198.803 27.1158 198.835 27.1494 198.88Z" fill="#3A2C6D"/>
<path d="M26.5198 198.514L26.967 198.758C26.9887 198.768 27.0125 198.773 27.0367 198.773C27.0609 198.773 27.0847 198.768 27.1064 198.758L27.5344 198.527C27.5777 198.505 27.5825 198.469 27.5344 198.451L27.0872 198.207C27.0658 198.195 27.0418 198.19 27.0175 198.19C26.9931 198.19 26.9691 198.195 26.9477 198.207L26.5198 198.437C26.4861 198.46 26.4813 198.491 26.5198 198.514Z" fill="#3A2C6D"/>
<path d="M25.8849 198.17L26.3321 198.414C26.3546 198.424 26.3793 198.43 26.4042 198.43C26.4292 198.43 26.4538 198.424 26.4764 198.414L26.8995 198.184C26.9428 198.161 26.9476 198.125 26.8995 198.107L26.4523 197.863C26.4301 197.852 26.4053 197.846 26.3802 197.846C26.355 197.846 26.3303 197.852 26.308 197.863L25.8801 198.093C25.856 198.116 25.8512 198.148 25.8849 198.17Z" fill="#3A2C6D"/>
<path d="M25.2551 197.827L25.7023 198.071C25.724 198.081 25.7479 198.086 25.772 198.086C25.7962 198.086 25.8201 198.081 25.8418 198.071L26.2697 197.84C26.313 197.818 26.3178 197.782 26.2697 197.764L25.8225 197.519C25.8003 197.508 25.7756 197.503 25.7504 197.503C25.7253 197.503 25.7005 197.508 25.6783 197.519L25.2551 197.75C25.2214 197.773 25.2166 197.804 25.2551 197.827Z" fill="#3A2C6D"/>
<path d="M24.6203 197.483L25.0675 197.727C25.0893 197.737 25.1131 197.743 25.1373 197.743C25.1614 197.743 25.1853 197.737 25.207 197.727L25.635 197.497C25.6783 197.474 25.6831 197.438 25.635 197.42L25.1878 197.176C25.1664 197.165 25.1424 197.159 25.118 197.159C25.0937 197.159 25.0697 197.165 25.0483 197.176L24.6203 197.406C24.5867 197.429 24.5819 197.461 24.6203 197.483Z" fill="#3A2C6D"/>
<path d="M23.9854 197.14L24.4326 197.384C24.4551 197.394 24.4798 197.399 24.5047 197.399C24.5297 197.399 24.5543 197.394 24.5769 197.384L25.0048 197.153C25.0433 197.131 25.0481 197.095 25.0048 197.076L24.5576 196.832C24.5354 196.821 24.5106 196.816 24.4855 196.816C24.4603 196.816 24.4356 196.821 24.4134 196.832L23.9854 197.063C23.9565 197.072 23.9517 197.117 23.9854 197.14Z" fill="#3A2C6D"/>
<path d="M23.3557 196.796L23.8029 197.04C23.8246 197.05 23.8485 197.056 23.8726 197.056C23.8968 197.056 23.9206 197.05 23.9424 197.04L24.3703 196.81C24.4136 196.81 24.4184 196.751 24.3703 196.733L23.9231 196.489C23.9009 196.478 23.8761 196.472 23.851 196.472C23.8258 196.472 23.8011 196.478 23.7789 196.489L23.3557 196.719C23.322 196.742 23.3172 196.774 23.3557 196.796Z" fill="#3A2C6D"/>
<path d="M22.7209 196.453L23.1681 196.697C23.1907 196.707 23.2153 196.712 23.2403 196.712C23.2652 196.712 23.2899 196.707 23.3124 196.697L23.7356 196.466C23.7788 196.444 23.7836 196.408 23.7356 196.389L23.2884 196.145C23.267 196.134 23.243 196.128 23.2186 196.128C23.1942 196.128 23.1702 196.134 23.1489 196.145L22.7209 196.376C22.6873 196.398 22.6825 196.43 22.7209 196.453Z" fill="#3A2C6D"/>
<path d="M22.0865 196.109L22.5337 196.353C22.5562 196.363 22.5809 196.369 22.6058 196.369C22.6308 196.369 22.6554 196.363 22.6779 196.353L23.1059 196.123C23.1444 196.1 23.1492 196.064 23.1059 196.046L22.6587 195.802C22.6365 195.791 22.6117 195.785 22.5866 195.785C22.5614 195.785 22.5367 195.791 22.5144 195.802L22.0865 196.032C22.0576 196.055 22.0528 196.087 22.0865 196.109Z" fill="#3A2C6D"/>
<path d="M21.4563 195.766L21.9035 196.01C21.9252 196.02 21.949 196.025 21.9732 196.025C21.9974 196.025 22.0212 196.02 22.0429 196.01L22.4709 195.779C22.5142 195.757 22.519 195.72 22.4709 195.702L22.0237 195.458C22.002 195.448 21.9781 195.443 21.954 195.443C21.9298 195.443 21.906 195.448 21.8843 195.458L21.4563 195.693C21.4226 195.716 21.4178 195.743 21.4563 195.766Z" fill="#3A2C6D"/>
<path d="M20.8215 195.422L21.2687 195.666C21.2913 195.676 21.3159 195.682 21.3409 195.682C21.3658 195.682 21.3904 195.676 21.413 195.666L21.8361 195.436C21.8794 195.413 21.8842 195.377 21.8361 195.359L21.3889 195.115C21.3672 195.105 21.3434 195.1 21.3192 195.1C21.295 195.1 21.2712 195.105 21.2495 195.115L20.8215 195.35C20.7879 195.368 20.783 195.4 20.8215 195.422Z" fill="#3A2C6D"/>
<path d="M20.1962 195.079L20.6434 195.323C20.6659 195.333 20.6906 195.338 20.7155 195.338C20.7405 195.338 20.7651 195.333 20.7876 195.323L21.2156 195.092C21.2541 195.07 21.2589 195.033 21.2156 195.015L20.7684 194.771C20.7459 194.761 20.7212 194.756 20.6963 194.756C20.6713 194.756 20.6467 194.761 20.6241 194.771L20.201 195.006C20.1577 195.024 20.1529 195.056 20.1962 195.079Z" fill="#3A2C6D"/>
<path d="M19.5569 194.735L20.0041 194.975C20.0254 194.986 20.0494 194.992 20.0738 194.992C20.0982 194.992 20.1222 194.986 20.1435 194.975L20.5715 194.744C20.6148 194.744 20.6196 194.685 20.5715 194.667L20.1243 194.423C20.1026 194.413 20.0787 194.408 20.0546 194.408C20.0304 194.408 20.0065 194.413 19.9848 194.423L19.5569 194.658C19.5232 194.681 19.5184 194.713 19.5569 194.735Z" fill="#3A2C6D"/>
<path d="M18.619 194.224L19.3691 194.631C19.3913 194.642 19.4161 194.648 19.4412 194.648C19.4664 194.648 19.4912 194.642 19.5134 194.631L19.9365 194.401C19.9798 194.378 19.9846 194.342 19.9365 194.324L19.1816 193.917C19.1602 193.906 19.1362 193.9 19.1119 193.9C19.0875 193.9 19.0635 193.906 19.0421 193.917L18.6141 194.148C18.5853 194.17 18.5805 194.206 18.619 194.224Z" fill="#3A2C6D"/>
<path d="M25.6013 198.681L26.0485 198.921C26.0699 198.932 26.0938 198.938 26.1182 198.938C26.1426 198.938 26.1666 198.932 26.188 198.921L26.6159 198.69C26.6592 198.668 26.664 198.631 26.6159 198.613L26.1687 198.369C26.1462 198.359 26.1215 198.354 26.0966 198.354C26.0716 198.354 26.047 198.359 26.0245 198.369L25.6013 198.604C25.5676 198.627 25.5628 198.658 25.6013 198.681Z" fill="#3A2C6D"/>
<path d="M24.9665 198.338L25.4137 198.577C25.4351 198.588 25.4591 198.594 25.4835 198.594C25.5079 198.594 25.5318 198.588 25.5532 198.577L25.9812 198.347C26.0244 198.324 26.0293 198.288 25.9812 198.27L25.534 198.026C25.5122 198.016 25.4884 198.011 25.4642 198.011C25.4401 198.011 25.4162 198.016 25.3945 198.026L24.9665 198.261C24.9329 198.283 24.9281 198.315 24.9665 198.338Z" fill="#3A2C6D"/>
<path d="M24.3318 197.976L24.779 198.216C24.8003 198.227 24.8243 198.232 24.8487 198.232C24.8731 198.232 24.8971 198.227 24.9184 198.216L25.3464 197.985C25.3897 197.962 25.3945 197.926 25.3464 197.908L24.8992 197.664C24.8775 197.654 24.8536 197.649 24.8295 197.649C24.8053 197.649 24.7815 197.654 24.7597 197.664L24.3318 197.895C24.2981 197.935 24.2933 197.976 24.3318 197.976Z" fill="#3A2C6D"/>
<path d="M23.697 197.646L24.1442 197.89C24.1668 197.9 24.1914 197.905 24.2163 197.905C24.2413 197.905 24.2659 197.9 24.2885 197.89L24.7116 197.66C24.7549 197.637 24.7597 197.601 24.7116 197.583L24.2644 197.339C24.2431 197.328 24.2191 197.322 24.1947 197.322C24.1703 197.322 24.1463 197.328 24.125 197.339L23.697 197.569C23.6633 197.592 23.6585 197.628 23.697 197.646Z" fill="#3A2C6D"/>
<path d="M23.0817 197.307L23.5289 197.551C23.5515 197.561 23.5761 197.566 23.6011 197.566C23.626 197.566 23.6507 197.561 23.6732 197.551L24.0964 197.321C24.1396 197.321 24.1445 197.262 24.0964 197.244L23.6492 197C23.6269 196.989 23.6022 196.983 23.577 196.983C23.5519 196.983 23.5271 196.989 23.5049 197L23.0769 197.23C23.0385 197.253 23.0337 197.284 23.0817 197.307Z" fill="#3A2C6D"/>
<path d="M22.4322 196.963L22.8794 197.203C22.9016 197.214 22.9264 197.22 22.9515 197.22C22.9767 197.22 23.0014 197.214 23.0236 197.203L23.4516 196.973C23.4901 196.973 23.4949 196.914 23.4516 196.896L23.0044 196.652C22.9819 196.642 22.9572 196.636 22.9323 196.636C22.9073 196.636 22.8827 196.642 22.8601 196.652L22.4322 196.887C22.4033 196.909 22.3985 196.941 22.4322 196.963Z" fill="#3A2C6D"/>
<path d="M21.7979 196.62L22.2451 196.86C22.2673 196.871 22.2921 196.876 22.3172 196.876C22.3424 196.876 22.3671 196.871 22.3893 196.86L22.8173 196.629C22.8606 196.606 22.8606 196.57 22.8173 196.552L22.3701 196.308C22.3476 196.298 22.3229 196.293 22.298 196.293C22.273 196.293 22.2484 196.298 22.2258 196.308L21.8027 196.539C21.769 196.566 21.7642 196.62 21.7979 196.62Z" fill="#3A2C6D"/>
<path d="M21.1578 196.272L21.6051 196.516C21.6264 196.527 21.6504 196.533 21.6748 196.533C21.6992 196.533 21.7232 196.527 21.7445 196.516L22.1725 196.286C22.2158 196.263 22.2206 196.227 22.1725 196.209L21.7253 195.965C21.7027 195.955 21.6781 195.949 21.6531 195.949C21.6282 195.949 21.6036 195.955 21.581 195.965L21.1578 196.195C21.1578 196.218 21.129 196.254 21.1578 196.272Z" fill="#3A2C6D"/>
<path d="M20.5329 195.928L20.9801 196.173C21.0019 196.182 21.0257 196.188 21.0499 196.188C21.074 196.188 21.0979 196.182 21.1196 196.173L21.5476 195.942C21.5908 195.915 21.5957 195.883 21.5476 195.861L21.1004 195.621C21.079 195.61 21.055 195.604 21.0306 195.604C21.0062 195.604 20.9823 195.61 20.9609 195.621L20.5329 195.852C20.4993 195.874 20.4945 195.91 20.5329 195.928Z" fill="#3A2C6D"/>
<path d="M19.8982 195.585L20.3454 195.829C20.3671 195.839 20.3909 195.844 20.4151 195.844C20.4393 195.844 20.4631 195.839 20.4848 195.829L20.9128 195.594C20.9561 195.571 20.9609 195.54 20.9128 195.517L20.4656 195.278C20.4442 195.266 20.4203 195.261 20.3959 195.261C20.3715 195.261 20.3475 195.266 20.3261 195.278L19.8982 195.508C19.8645 195.531 19.8597 195.567 19.8982 195.585Z" fill="#3A2C6D"/>
<path d="M19.2633 195.264L19.7105 195.508C19.7331 195.518 19.7577 195.523 19.7827 195.523C19.8076 195.523 19.8323 195.518 19.8548 195.508L20.278 195.273C20.3212 195.273 20.3261 195.219 20.278 195.196L19.8308 194.952C19.8091 194.942 19.7852 194.937 19.761 194.937C19.7369 194.937 19.713 194.942 19.6913 194.952L19.2633 195.183C19.2345 195.187 19.2345 195.223 19.2633 195.264Z" fill="#3A2C6D"/>
<path d="M18.6287 194.898L19.0759 195.142C19.0985 195.152 19.1231 195.157 19.1481 195.157C19.173 195.157 19.1977 195.152 19.2202 195.142L19.6434 194.911C19.6866 194.889 19.6914 194.853 19.6434 194.835L19.1961 194.591C19.1736 194.58 19.149 194.575 19.124 194.575C19.0991 194.575 19.0744 194.58 19.0519 194.591L18.6239 194.821C18.5951 194.844 18.5903 194.88 18.6287 194.898Z" fill="#3A2C6D"/>
<path d="M26.231 199.025L26.9859 199.431C27.0073 199.443 27.0313 199.448 27.0557 199.448C27.0801 199.448 27.104 199.443 27.1254 199.431L27.5534 199.201C27.5966 199.178 27.6015 199.142 27.5534 199.124L26.8032 198.713C26.7807 198.703 26.756 198.697 26.7311 198.697C26.7061 198.697 26.6815 198.703 26.6589 198.713L26.2358 198.943C26.2021 198.97 26.1973 199.007 26.231 199.025Z" fill="#3A2C6D"/>
<path d="M18.5759 194.242L19.0231 194.487C19.0616 194.487 19.0616 194.536 19.0231 194.554L18.5711 194.803C18.5508 194.812 18.5286 194.816 18.5062 194.816C18.4837 194.816 18.4616 194.812 18.4413 194.803L18.4028 194.78C18.3841 194.772 18.3635 194.767 18.3427 194.767C18.3218 194.767 18.3012 194.772 18.2826 194.78L17.8017 195.042C17.7805 195.051 17.7576 195.056 17.7344 195.056C17.7112 195.056 17.6882 195.051 17.6671 195.042L17.3833 194.889C17.3449 194.866 17.3449 194.835 17.3833 194.816L17.8306 194.572L17.9219 194.523L17.9892 194.487L18.0566 194.45L18.4413 194.242C18.4619 194.232 18.485 194.226 18.5086 194.226C18.5321 194.226 18.5553 194.232 18.5759 194.242Z" fill="#3A2C6D"/>
<path d="M24.6975 200.186L25.1447 200.43C25.1664 200.44 25.1903 200.446 25.2144 200.446C25.2386 200.446 25.2624 200.44 25.2841 200.43L25.7121 200.195C25.7554 200.195 25.7602 200.141 25.7121 200.118L25.2649 199.879C25.2427 199.868 25.2179 199.862 25.1928 199.862C25.1676 199.862 25.1429 199.868 25.1207 199.879L24.6975 200.109C24.6638 200.132 24.659 200.168 24.6975 200.186Z" fill="#3A2C6D"/>
<path d="M24.0435 199.843L24.4907 200.087C24.5129 200.098 24.5376 200.104 24.5628 200.104C24.5879 200.104 24.6127 200.098 24.6349 200.087L25.0629 199.856C25.1014 199.856 25.1062 199.798 25.0629 199.779L24.6157 199.535C24.5931 199.525 24.5685 199.52 24.5436 199.52C24.5186 199.52 24.494 199.525 24.4714 199.535L24.0435 199.766C24.0435 199.784 24.0435 199.825 24.0435 199.843Z" fill="#3A2C6D"/>
<path d="M23.4328 199.504L23.88 199.743C23.9023 199.754 23.927 199.76 23.9522 199.76C23.9773 199.76 24.0021 199.754 24.0243 199.743L24.4475 199.513C24.4907 199.49 24.4956 199.454 24.4475 199.436L24.0003 199.192C23.9786 199.182 23.9547 199.177 23.9305 199.177C23.9064 199.177 23.8825 199.182 23.8608 199.192L23.4328 199.427C23.3992 199.449 23.3944 199.481 23.4328 199.504Z" fill="#3A2C6D"/>
<path d="M18.0562 196.584L18.5034 196.828C18.5259 196.838 18.5505 196.843 18.5755 196.843C18.6004 196.843 18.6251 196.838 18.6476 196.828L19.0708 196.593C19.1141 196.57 19.1189 196.539 19.0708 196.516L18.6236 196.276C18.6014 196.265 18.5766 196.26 18.5514 196.26C18.5263 196.26 18.5015 196.265 18.4793 196.276L18.0513 196.507C18.0225 196.53 18.0225 196.566 18.0562 196.584Z" fill="#3A2C6D"/>
<path d="M17.4265 196.24L17.8737 196.484C17.8951 196.495 17.919 196.501 17.9434 196.501C17.9678 196.501 17.9918 196.495 18.0132 196.484L18.4411 196.254C18.4844 196.231 18.4892 196.195 18.4411 196.177L17.9939 195.933C17.9722 195.923 17.9484 195.918 17.9242 195.918C17.9 195.918 17.8762 195.923 17.8545 195.933L17.4265 196.163C17.3928 196.168 17.388 196.222 17.4265 196.24Z" fill="#3A2C6D"/>
<path d="M16.7966 195.901L17.2438 196.141C17.2652 196.152 17.2892 196.158 17.3135 196.158C17.3379 196.158 17.3619 196.152 17.3833 196.141L17.8112 195.91C17.8545 195.888 17.8593 195.852 17.8112 195.833L17.364 195.589C17.3415 195.579 17.3169 195.574 17.2919 195.574C17.267 195.574 17.2423 195.579 17.2198 195.589L16.7966 195.824C16.7629 195.847 16.7581 195.879 16.7966 195.901Z" fill="#3A2C6D"/>
<path d="M16.1617 195.558L16.6089 195.802C16.6314 195.812 16.656 195.817 16.681 195.817C16.7059 195.817 16.7306 195.812 16.7531 195.802L17.1811 195.571C17.2196 195.549 17.2244 195.513 17.1811 195.494L16.7339 195.25C16.7117 195.239 16.6869 195.234 16.6618 195.234C16.6366 195.234 16.6118 195.239 16.5896 195.25L16.1617 195.481C16.1328 195.504 16.128 195.535 16.1617 195.558Z" fill="#3A2C6D"/>
<path d="M22.6392 199.07L23.2499 199.404C23.2716 199.414 23.2955 199.419 23.3196 199.419C23.3438 199.419 23.3676 199.414 23.3894 199.404L23.8173 199.174C23.8606 199.151 23.8654 199.115 23.8173 199.097L23.2066 198.767C23.1853 198.756 23.1613 198.75 23.1369 198.75C23.1125 198.75 23.0885 198.756 23.0672 198.767L22.6392 198.998C22.6007 199.016 22.6007 199.052 22.6392 199.07Z" fill="#3A2C6D"/>
<path d="M18.6866 196.927L19.2973 197.257C19.3196 197.268 19.3443 197.274 19.3695 197.274C19.3946 197.274 19.4194 197.268 19.4416 197.257L19.8696 197.027C19.908 197.004 19.9129 196.968 19.8696 196.95L19.2685 196.62C19.2459 196.61 19.2213 196.605 19.1964 196.605C19.1714 196.605 19.1468 196.61 19.1242 196.62L18.7011 196.851C18.6578 196.873 18.653 196.909 18.6866 196.927Z" fill="#3A2C6D"/>
<path d="M19.48 197.357L22.4566 198.97C22.4779 198.981 22.5019 198.987 22.5263 198.987C22.5507 198.987 22.5747 198.981 22.596 198.97L23.024 198.74C23.0673 198.717 23.0721 198.681 23.024 198.663L20.0522 197.049C20.03 197.038 20.0053 197.032 19.9801 197.032C19.955 197.032 19.9302 197.038 19.908 197.049L19.4848 197.28C19.4511 197.302 19.4463 197.339 19.48 197.357Z" fill="#3A2C6D"/>
<path d="M24.813 198.921L25.2602 199.16C25.2825 199.171 25.3072 199.177 25.3324 199.177C25.3575 199.177 25.3823 199.171 25.4045 199.16L25.8325 198.93C25.8709 198.907 25.8758 198.871 25.8325 198.853L25.3853 198.609C25.3627 198.599 25.3381 198.594 25.3131 198.594C25.2882 198.594 25.2635 198.599 25.241 198.609L24.813 198.844C24.7842 198.88 24.7794 198.88 24.813 198.921Z" fill="#3A2C6D"/>
<path d="M24.1828 198.577L24.6301 198.821C24.6518 198.831 24.6756 198.836 24.6998 198.836C24.7239 198.836 24.7478 198.831 24.7695 198.821L25.1975 198.591C25.2408 198.591 25.2456 198.532 25.1975 198.514L24.7503 198.27C24.7289 198.259 24.7049 198.253 24.6805 198.253C24.6562 198.253 24.6322 198.259 24.6108 198.27L24.1828 198.5C24.1492 198.523 24.1444 198.555 24.1828 198.577Z" fill="#3A2C6D"/>
<path d="M23.5626 198.234L24.0098 198.478C24.0324 198.488 24.057 198.493 24.0819 198.493C24.1069 198.493 24.1315 198.488 24.1541 198.478L24.582 198.247C24.6205 198.225 24.6253 198.188 24.582 198.17L24.1348 197.926C24.1123 197.916 24.0877 197.911 24.0627 197.911C24.0378 197.911 24.0131 197.916 23.9906 197.926L23.5626 198.157C23.5193 198.179 23.5145 198.216 23.5626 198.234Z" fill="#3A2C6D"/>
<path d="M22.9182 197.89L23.3654 198.134C23.3867 198.145 23.4107 198.151 23.4351 198.151C23.4595 198.151 23.4835 198.145 23.5049 198.134L23.9328 197.904C23.9761 197.881 23.9809 197.849 23.9328 197.827L23.4856 197.583C23.4639 197.573 23.4401 197.568 23.4159 197.568C23.3917 197.568 23.3679 197.573 23.3462 197.583L22.9182 197.813C22.8845 197.836 22.8797 197.872 22.9182 197.89Z" fill="#3A2C6D"/>
<path d="M22.2832 197.547L22.7305 197.791C22.753 197.801 22.7776 197.806 22.8026 197.806C22.8275 197.806 22.8522 197.801 22.8747 197.791L23.3027 197.556C23.3412 197.533 23.346 197.501 23.3027 197.479L22.8555 197.239C22.8333 197.228 22.8085 197.222 22.7833 197.222C22.7582 197.222 22.7334 197.228 22.7112 197.239L22.2832 197.47C22.2544 197.492 22.2496 197.524 22.2832 197.547Z" fill="#3A2C6D"/>
<path d="M21.6392 197.203L22.0864 197.447C22.1081 197.457 22.1319 197.462 22.1561 197.462C22.1803 197.462 22.2041 197.457 22.2258 197.447L22.6538 197.212C22.6971 197.19 22.7019 197.158 22.6538 197.135L22.2066 196.896C22.1852 196.885 22.1612 196.879 22.1369 196.879C22.1125 196.879 22.0885 196.885 22.0671 196.896L21.6392 197.126C21.6392 197.149 21.6392 197.185 21.6392 197.203Z" fill="#3A2C6D"/>
<path d="M21.0186 196.86L21.4658 197.104C21.4883 197.114 21.513 197.119 21.5379 197.119C21.5629 197.119 21.5875 197.114 21.6101 197.104L22.038 196.869C22.0765 196.846 22.0813 196.814 22.038 196.792L21.5908 196.552C21.5686 196.541 21.5438 196.535 21.5187 196.535C21.4935 196.535 21.4688 196.541 21.4466 196.552L21.0186 196.783C20.9897 196.805 20.9849 196.841 21.0186 196.86Z" fill="#3A2C6D"/>
<path d="M20.3889 196.516L20.8361 196.76C20.8578 196.77 20.8817 196.775 20.9058 196.775C20.93 196.775 20.9538 196.77 20.9756 196.76L21.4035 196.53C21.4468 196.507 21.4516 196.471 21.4035 196.448L20.9563 196.209C20.935 196.198 20.911 196.192 20.8866 196.192C20.8622 196.192 20.8382 196.198 20.8169 196.209L20.3889 196.439C20.3552 196.462 20.3504 196.498 20.3889 196.516Z" fill="#3A2C6D"/>
<path d="M19.7539 196.168L20.2012 196.412C20.2237 196.422 20.2483 196.427 20.2733 196.427C20.2982 196.427 20.3229 196.422 20.3454 196.412L20.7734 196.182C20.8119 196.182 20.8167 196.123 20.7734 196.105L20.3262 195.861C20.304 195.85 20.2792 195.844 20.2541 195.844C20.2289 195.844 20.2041 195.85 20.1819 195.861L19.7539 196.091C19.7155 196.118 19.7155 196.168 19.7539 196.168Z" fill="#3A2C6D"/>
<path d="M19.1242 195.834L19.5715 196.073C19.5928 196.084 19.6168 196.09 19.6412 196.09C19.6656 196.09 19.6896 196.084 19.7109 196.073L20.1389 195.843C20.1822 195.843 20.187 195.784 20.1389 195.766L19.6917 195.522C19.67 195.512 19.6461 195.506 19.6219 195.506C19.5978 195.506 19.5739 195.512 19.5522 195.522L19.1242 195.752C19.0906 195.775 19.0858 195.811 19.1242 195.834Z" fill="#3A2C6D"/>
<path d="M18.4893 195.49L18.9365 195.73C18.9587 195.741 18.9835 195.746 19.0086 195.746C19.0338 195.746 19.0585 195.741 19.0808 195.73L19.5087 195.499C19.5472 195.476 19.552 195.44 19.5087 195.422L19.0615 195.178C19.039 195.168 19.0144 195.163 18.9894 195.163C18.9645 195.163 18.9398 195.168 18.9173 195.178L18.4893 195.409C18.4604 195.436 18.4556 195.467 18.4893 195.49Z" fill="#3A2C6D"/>
<path d="M17.8591 195.146L18.3063 195.386C18.3277 195.397 18.3517 195.403 18.376 195.403C18.4004 195.403 18.4244 195.397 18.4458 195.386L18.8737 195.156C18.917 195.133 18.9218 195.097 18.8737 195.079L18.4265 194.835C18.4048 194.825 18.381 194.819 18.3568 194.819C18.3326 194.819 18.3088 194.825 18.2871 194.835L17.8591 195.07C17.8254 195.092 17.8206 195.124 17.8591 195.146Z" fill="#3A2C6D"/>
<path d="M25.4475 199.264L26.3708 199.784C26.393 199.795 26.4177 199.801 26.4429 199.801C26.468 199.801 26.4928 199.795 26.515 199.784L26.9382 199.553C26.9815 199.531 26.9863 199.499 26.9382 199.477L26.0149 198.975C25.9932 198.965 25.9694 198.96 25.9452 198.96C25.921 198.96 25.8972 198.965 25.8755 198.975L25.4475 199.21C25.4138 199.21 25.409 199.242 25.4475 199.264Z" fill="#3A2C6D"/>
<path d="M24.524 199.422L24.9712 199.666C24.9929 199.676 25.0168 199.682 25.041 199.682C25.0651 199.682 25.089 199.676 25.1107 199.666L25.5387 199.431C25.5819 199.431 25.5868 199.377 25.5387 199.355L25.0915 199.115C25.0701 199.104 25.0461 199.098 25.0217 199.098C24.9973 199.098 24.9734 199.104 24.952 199.115L24.524 199.332C24.4808 199.368 24.4759 199.404 24.524 199.422Z" fill="#3A2C6D"/>
<path d="M23.8799 199.079L24.3271 199.323C24.3497 199.333 24.3743 199.338 24.3992 199.338C24.4242 199.338 24.4488 199.333 24.4714 199.323L24.8993 199.088C24.9378 199.065 24.9426 199.034 24.8993 199.011L24.4521 198.772C24.4299 198.76 24.4052 198.755 24.38 198.755C24.3549 198.755 24.3301 198.76 24.3079 198.772L23.8847 199.002C23.8511 199.025 23.8462 199.061 23.8799 199.079Z" fill="#3A2C6D"/>
<path d="M23.2497 198.735L23.6969 198.979C23.7187 198.989 23.7425 198.995 23.7667 198.995C23.7908 198.995 23.8147 198.989 23.8364 198.979L24.2644 198.749C24.3077 198.722 24.3125 198.69 24.2644 198.668L23.8172 198.428C23.7958 198.417 23.7718 198.411 23.7474 198.411C23.723 198.411 23.6991 198.417 23.6777 198.428L23.2497 198.659C23.2161 198.681 23.2113 198.717 23.2497 198.735Z" fill="#3A2C6D"/>
<path d="M22.6006 198.392L23.0478 198.636C23.0703 198.646 23.095 198.651 23.1199 198.651C23.1449 198.651 23.1695 198.646 23.1921 198.636L23.62 198.405C23.6633 198.383 23.6633 198.347 23.62 198.329L23.1728 198.084C23.1506 198.073 23.1258 198.068 23.1007 198.068C23.0755 198.068 23.0508 198.073 23.0286 198.084L22.6054 198.315C22.6006 198.338 22.6006 198.374 22.6006 198.392Z" fill="#3A2C6D"/>
<path d="M21.9851 198.048L22.4323 198.292C22.4545 198.303 22.4793 198.309 22.5044 198.309C22.5296 198.309 22.5543 198.303 22.5766 198.292L22.9997 198.062C23.043 198.039 23.0478 198.003 22.9997 197.985L22.5525 197.741C22.5308 197.731 22.507 197.726 22.4828 197.726C22.4586 197.726 22.4348 197.731 22.4131 197.741L21.9851 197.971C21.9514 197.976 21.9466 198.03 21.9851 198.048Z" fill="#3A2C6D"/>
<path d="M21.3506 197.709L21.7978 197.949C21.82 197.96 21.8448 197.966 21.8699 197.966C21.8951 197.966 21.9199 197.96 21.9421 197.949L22.3701 197.718C22.4133 197.696 22.4181 197.66 22.3701 197.641L21.9228 197.397C21.9003 197.387 21.8757 197.382 21.8507 197.382C21.8258 197.382 21.8011 197.387 21.7786 197.397L21.3554 197.632C21.3218 197.655 21.3169 197.687 21.3506 197.709Z" fill="#3A2C6D"/>
<path d="M20.7204 197.366L21.1677 197.605C21.1899 197.616 21.2146 197.622 21.2398 197.622C21.2649 197.622 21.2897 197.616 21.3119 197.605L21.7351 197.375C21.7784 197.352 21.7832 197.316 21.7351 197.298L21.2879 197.054C21.2662 197.044 21.2423 197.039 21.2181 197.039C21.194 197.039 21.1701 197.044 21.1484 197.054L20.7204 197.289C20.6772 197.312 20.6772 197.343 20.7204 197.366Z" fill="#3A2C6D"/>
<path d="M20.0906 197.022L20.5378 197.262C20.5591 197.273 20.5831 197.279 20.6075 197.279C20.6319 197.279 20.6559 197.273 20.6772 197.262L21.1052 197.031C21.1485 197.031 21.1533 196.973 21.1052 196.954L20.658 196.71C20.6354 196.7 20.6108 196.695 20.5859 196.695C20.5609 196.695 20.5363 196.7 20.5137 196.71L20.0906 196.945C20.0569 196.968 20.0521 197 20.0906 197.022Z" fill="#3A2C6D"/>
<path d="M19.4559 196.679L19.9031 196.923C19.9256 196.933 19.9503 196.938 19.9752 196.938C20.0002 196.938 20.0248 196.933 20.0473 196.923L20.4705 196.692C20.5138 196.67 20.5186 196.634 20.4705 196.615L20.0233 196.371C20.0011 196.36 19.9763 196.355 19.9512 196.355C19.926 196.355 19.9013 196.36 19.879 196.371L19.4511 196.602C19.4222 196.62 19.4174 196.656 19.4559 196.679Z" fill="#3A2C6D"/>
<path d="M18.8259 196.335L19.2731 196.579C19.2948 196.589 19.3187 196.594 19.3428 196.594C19.367 196.594 19.3909 196.589 19.4126 196.579L19.8405 196.349C19.8838 196.326 19.8886 196.29 19.8405 196.272L19.3933 196.028C19.3708 196.018 19.3462 196.013 19.3212 196.013C19.2963 196.013 19.2716 196.018 19.2491 196.028L18.8259 196.258C18.7922 196.281 18.7874 196.317 18.8259 196.335Z" fill="#3A2C6D"/>
<path d="M18.1914 195.992L18.6386 196.236C18.6612 196.246 18.6858 196.251 18.7107 196.251C18.7357 196.251 18.7603 196.246 18.7829 196.236L19.206 196.001C19.2493 195.978 19.2541 195.947 19.206 195.924L18.7588 195.684C18.7366 195.673 18.7119 195.667 18.6867 195.667C18.6616 195.667 18.6368 195.673 18.6146 195.684L18.1866 195.915C18.1577 195.937 18.1577 195.974 18.1914 195.992Z" fill="#3A2C6D"/>
<path d="M16.7776 195.223L18.0086 195.892C18.0303 195.902 18.0542 195.907 18.0783 195.907C18.1025 195.907 18.1263 195.902 18.148 195.892L18.576 195.657C18.6193 195.635 18.6241 195.603 18.576 195.58L17.345 194.916C17.3236 194.905 17.2997 194.899 17.2753 194.899C17.2509 194.899 17.2269 194.905 17.2055 194.916L16.7776 195.146C16.7439 195.169 16.7391 195.205 16.7776 195.223Z" fill="#3A2C6D"/>
<path d="M25.1446 199.784L25.7554 200.114C25.7776 200.125 25.8023 200.131 25.8275 200.131C25.8526 200.131 25.8774 200.125 25.8996 200.114L26.3228 199.883C26.3661 199.861 26.3709 199.825 26.3228 199.807L25.7121 199.472C25.6895 199.462 25.6649 199.457 25.6399 199.457C25.615 199.457 25.5904 199.462 25.5678 199.472L25.1398 199.703C25.1158 199.712 25.111 199.748 25.1446 199.784Z" fill="#3A2C6D"/>
<path d="M29.7801 198.586L19.6338 193.076V185.578L19.7107 185.406L19.7973 185.37C19.9033 185.312 20.0235 185.282 20.1459 185.282C20.2683 185.282 20.3885 185.312 20.4945 185.37L29.7801 190.41C29.8865 190.467 29.975 190.55 30.0366 190.65C30.0982 190.75 30.1308 190.864 30.1312 190.979V198.017C30.0686 198.378 29.9965 198.469 29.7801 198.586Z" fill="#E5E5E5"/>
<path d="M28.852 191.313L19.6338 185.826V185.578L19.7107 185.406L19.7973 185.37C19.9033 185.312 20.0235 185.282 20.1459 185.282C20.2683 185.282 20.3885 185.312 20.4945 185.37L29.7801 190.409C29.8936 190.47 29.9869 190.559 30.0494 190.667L28.852 191.313Z" fill="#E5E5E5"/>
<path d="M19.8694 185.405L29.6118 190.693C29.6629 190.722 29.7053 190.762 29.7348 190.81C29.7644 190.859 29.78 190.913 29.7801 190.969V198.585L19.6338 193.075V185.532C19.6345 185.506 19.6422 185.481 19.6562 185.459C19.6702 185.437 19.69 185.419 19.7137 185.406C19.7374 185.393 19.7641 185.386 19.7914 185.386C19.8187 185.386 19.8456 185.393 19.8694 185.405Z" fill="#DCEEFF"/>
<path d="M19.8694 185.405L29.6118 190.693C29.6629 190.722 29.7053 190.762 29.7348 190.81C29.7644 190.859 29.78 190.913 29.7801 190.969V198.585L19.6338 193.075V185.532C19.6345 185.506 19.6422 185.481 19.6562 185.459C19.6702 185.437 19.69 185.419 19.7137 185.406C19.7374 185.393 19.7641 185.386 19.7914 185.386C19.8187 185.386 19.8456 185.393 19.8694 185.405Z" fill="#F4F4F4"/>
<path d="M29.7801 198.586V198.31L19.6338 192.805V193.076L29.7801 198.586Z" fill="#DBDBDB"/>
<path d="M19.8984 192.679V185.799L20.018 185.867V192.62L19.8984 192.679Z" fill="#1E3779"/>
<path d="M20.0186 185.867V192.62L29.458 197.727V190.988L20.0186 185.867Z" fill="#3A2C6D"/>
<path d="M19.8984 192.679L29.4581 197.863V197.727L20.0187 192.62L19.8984 192.679Z" fill="#031F60"/>
<path d="M8.97329 184.213C8.73285 184.778 9.34356 185.469 10.9785 185.953C12.6135 186.436 12.7625 185.817 12.7625 185.817C13.8526 186.275 14.9153 186.788 15.9459 187.354C16.9076 188 17.3596 189.867 17.4943 193.022C17.6482 196.67 17.6578 202.062 17.5328 203.016C17.5328 203.016 15.6958 204.733 13.3492 204.553C11.0026 204.372 7.04981 202.419 6.08807 200.909C6.11692 197.709 6.51124 197.19 5.96305 195.345C4.70317 191.128 4.03957 189.402 4.65027 186.599C5.15519 184.289 5.86206 184 6.83342 184.023C7.54978 184.05 8.26407 184.114 8.97329 184.213Z" fill="#F4F4F4"/>
<path d="M21.3553 196.932C19.4319 197.384 18.975 196.245 18.7202 195.3C18.1095 193.009 17.7584 190.943 17.3208 189.641C16.7823 188.109 16.2197 187.865 15.4262 187.566C14.4981 187.214 13.6951 187.955 14.0077 189.903C14.3861 192.169 14.9767 194.398 15.7724 196.566C16.0129 197.28 16.5515 198.546 17.3545 199.16C18.3499 199.915 19.8454 199.883 22.1103 199.35C23.072 199.124 24.1396 198.582 25.9573 197.782C26.4381 197.565 26.8276 197.425 27.7701 197.009C28.7117 196.609 29.5365 196.001 30.1745 195.237C30.6553 194.568 30.7323 194.252 30.6553 194.098C30.5784 193.944 30.3043 193.949 30.0398 194.229C29.6623 194.709 29.1926 195.118 28.6549 195.436C28.6549 195.436 29.2656 194.844 29.5926 194.459C29.8902 194.121 30.1362 193.745 30.3235 193.343C30.4967 192.95 30.136 192.416 29.8427 192.697C29.5493 192.977 29.4388 193.262 28.9386 193.822C28.677 194.121 28.3784 194.39 28.049 194.622C28.358 194.229 28.633 193.813 28.8713 193.379C29.083 193.038 29.1865 192.648 29.1695 192.254C29.1695 192.05 28.8473 191.802 28.5588 192.195C28.2789 192.728 27.9318 193.227 27.5249 193.682C27.0825 194.111 26.7122 194.355 26.6978 194.238C26.6834 194.12 26.9671 193.885 27.121 193.384C27.2748 192.882 27.121 192.353 26.8276 192.299C26.5343 192.245 26.592 192.254 26.3468 192.724C26.026 193.205 25.7385 193.704 25.486 194.22C25.335 194.701 25.0628 195.142 24.6926 195.504C24.2357 195.974 23.1875 196.498 21.3553 196.932Z" fill="#FFCEA9"/>
<path d="M14.7148 187.255C15.9988 187.074 16.9076 187.621 17.4798 189.451C18.0521 191.282 18.4416 192.792 18.4416 192.792C17.9324 193.486 17.1599 193.971 16.2825 194.148C14.7437 194.5 14.1907 193.809 14.1907 193.809C14.1907 193.809 13.7627 191.888 13.4982 190.581C13.2338 189.275 13.1232 187.476 14.7148 187.255Z" fill="#EDEDED"/>
<path d="M15.3495 177.871C15.3495 177.871 17.3836 174.965 12.974 174.373C9.7955 173.943 7.75662 175.864 7.52099 177.948C7.29498 179.937 8.59814 182.016 9.54064 182.82C10.4654 183.04 11.4439 182.929 12.2864 182.509C12.337 181.968 12.3562 181.424 12.3441 180.881C12.3441 180.881 10.7957 177.817 15.3495 177.871Z" fill="#3A2C6D"/>
<path d="M24.1681 214.637V205.909L16.7964 209.954L19.6335 215.473L24.1681 214.637Z" fill="#D5D6E0"/>
<path d="M19.3359 206.41L22.1634 204.869L24.1687 205.954L21.2354 207.518L19.3359 206.41Z" fill="#E9EAF4"/>
<path d="M113.303 162.051C114.389 162.051 115.269 161.573 115.269 160.984C115.269 160.395 114.389 159.918 113.303 159.918C112.216 159.918 111.336 160.395 111.336 160.984C111.336 161.573 112.216 162.051 113.303 162.051Z" fill="#D5D6E0"/>
</g>
<defs>
<linearGradient id="paint0_linear" x1="113.303" y1="160.984" x2="113.303" y2="116.132" gradientUnits="userSpaceOnUse">
<stop stop-color="#E9EAF4"/>
<stop offset="0.63" stop-color="#E9EAF4" stop-opacity="0"/>
</linearGradient>
<clipPath id="clip0">
<rect width="185" height="226" fill="white"/>
</clipPath>
</defs>
</svg>
